<?xml version="1.0" encoding="utf-8"?>
<!-- Generator: Adobe Illustrator 22.0.0, SVG Export Plug-In . SVG Version: 6.00 Build 0)  -->
<svg version="1.1" id="Слой_1" xmlns="http://www.w3.org/2000/svg" xmlns:xlink="http://www.w3.org/1999/xlink" x="0px" y="0px"
	 viewBox="0 0 558 270" style="enable-background:new 0 0 558 270;" xml:space="preserve">
<style type="text/css">
	.st0{opacity:0.6;fill:#FFFFFF;}
</style>
<path class="st0" d="M438,38.8c-2.2,4-3.2,8.5-4.9,12.8c-2.2,5.7-2.2,5.8,4.1,6.3c3.1,0.3,6.1,0.5,9.1,1.4c1.3,0.4,2.5,1.1,2.2,2.4
	c-0.4,1.6-1.9,0.9-3,0.6c-4.7-1.3-9.6-1.3-14.4-1.9c-1-0.1-1.6,0.3-1.9,1.2c-1,2.6-1.9,5.3-3,7.9c-0.6,1.5,0,1.7,1.3,1.8
	c4.3,0.4,8.5,0.9,12.8,1.3c2.1,0.2,4.3,0.6,6.1,1.8c0.6,0.4,1.5,0.8,1.2,1.7c-0.2,0.7-1,1-1.8,1.1c-0.4,0.1-0.9,0-1.4-0.1
	c-6-1.2-12.1-1.1-18.1-2.1c-1.7-0.3-2.4,0.3-2.7,1.9c-2,11.4-6.8,22-9.5,33.1c-0.3,1.4-3.8,2.8-5.4,2.1c-1.9-0.8-1.3-2.3-0.8-3.6
	c2.1-6.4,5.3-12.4,7.3-18.8c1.4-4.6,2.7-9.1,4.2-13.7c0.4-1.3-0.1-1.6-1.3-1.7c-3.1-0.2-6.1-0.3-9.2-0.6c-1.4-0.1-1.9,0.6-2.4,1.7
	c-2.4,5.6-3.7,11.6-5.4,17.4c-0.2,0.8-0.4,1.6-0.7,2.4c-0.4,1.1-0.7,2.5-2.1,2c-1.3-0.5-2.2-1.5-1.8-3.3c1.3-6.1,3.4-11.9,5.9-17.5
	c1.3-3,1.3-3-1.9-3.4c-1.9-0.2-3.9-0.8-5.8-0.9c-1.7-0.2-2.4-1.3-2.1-2.7c0.3-1.5,1.6-0.6,2.5-0.5c2.9,0.6,5.7,1.2,8.6,0.9
	c1.1-0.1,1.9-0.4,2.4-1.5c1.3-3.1,2.6-6.2,4-9.3c0.7-1.5,0.1-2.1-1.5-2.3c-4.2-0.5-8.3-1.1-12.6-1c-1.1,0-2.9,0.8-3-1.4
	c0-2.1,1.8-1.6,2.9-1.6c4.5-0.2,9,0.3,13.4,1.1c1.7,0.3,2.5-0.2,3.1-1.8c1.8-5,3.7-10,6.6-14.6c0.8-1.3,1.7-2.6,3.5-2.4
	c1.1,0.1,1.8,1,2.1,2c0.5,1.6-0.1,3.1-1.4,4c-4.1,2.9-5.9,7.1-7.3,11.7c-0.5,1.5-0.5,2.2,1.3,2.4c2.6,0.2,5.2,0.7,7.8,1.2
	c1.4,0.2,2.2,0,2.8-1.5c2.4-6.3,5-12.5,7.6-18.7c0.5-1.2,0.6-2.9,2.3-3.3c0.6-0.2,1.3,0.3,1.6,0.9c0.9,1.6,0.4,3.1-0.7,4.4
	C438.1,38.5,438,38.7,438,38.8z M413.3,60c-1.1,2.5-2.5,5.6-3.9,8.6c-0.4,1-0.2,1.3,0.8,1.4c3.6,0.2,7.6,1.3,10.7,0.1
	c2.4-1,2.5-5.3,3.7-8.1c0.1-0.1,0.1-0.3,0.2-0.5c0.7-1.4,0-1.7-1.2-1.9c-2.7-0.3-5.3-0.8-8-1.2C414.7,58.2,413.8,58.1,413.3,60z"/>
<path class="st0" d="M396.8,151.2c-3.2,6.3-5.7,12.8-5.4,20.1c0.2,7,7,13,12.9,10.7c4.2-1.6,8.7-3.6,10.9-8.2c1.2-2.5,4.1-3,6.1-1.1
	c0.5,0.5,0.3,1.1,0,1.5c-0.6,1.1-1.1,2.3-2,3c-4.6,4-9.7,7.2-15.7,8.2c-6.8,1.2-14.9-5.3-15.2-12.6c-0.5-12.1,3.1-23,12.4-31.3
	c5.4-4.9,12.3-5.8,17.6-2.5c6.5,4,9.1,10.1,7.4,17.5c-1.6,7.2-5.8,12.3-13.2,14.1c-4.6,1.1-6.4,0.1-8.3-4.2
	c-0.5-1.2-1.1-0.7-1.7-0.5c-2.3,0.6-4.5,0.7-6.2-1.4c-1.7-2.1-1.4-4.4-0.3-6.6c2-4.2,4.6-7.7,9.3-9.1c3.2-0.9,5.6,0.3,7.4,2.6
	c1.6,2,0.1,3.9-0.9,5.6c-1.1,1.8-2.3,3.4-3.5,5c-1.1,1.4-1.4,3-0.7,4.5c0.7,1.6,2.4,1.2,3.8,1c5.8-0.8,10.5-6.1,11.6-13.2
	c0.9-5.7-1.7-10.8-7.1-13.3c-3.9-1.8-7.7-1.3-11.1,1.2C401.4,144.7,398.6,147.5,396.8,151.2z M407.7,155c0.1-0.6,2.3-1.4,1-2.7
	c-1.2-1.2-2.8-0.2-4.1,0.4c-2.3,1.1-3.7,3-4.8,5.2c-0.9,1.6-2.4,3.5-0.2,5.1c1.2,1,4.7-0.7,5.7-2.5c0.3-0.5,0.5-1.2,0.8-1.8
	C406.5,157.7,407,156.6,407.7,155z"/>
<path class="st0" d="M488.9,89.5c-3,3.3-5.5,6-8.1,8.7c-0.8,0.8-0.8,1.8-0.8,2.9c0.2,3,0.1,6-0.6,8.9c-1.7,6.9-5.5,9.2-12.4,8
	c-1.4-0.2-2.9-1.7-4.2-0.4c-1.5,1.5-3.3,2.8-3.9,5c0,0.2,0,0.4-0.1,0.6c-0.9,1.3-1.9,2.6-3.5,3c-0.7,0.2-1.4-0.2-1.5-0.9
	c-0.2-1.5,0.5-2.9,1.5-4.1c1.4-1.5,2.6-3.2,4.1-4.6c1.9-1.8,0-2.5-0.7-3.6c-1.1-1.5-1.6-0.2-2.3,0.5c-0.1,0.1-0.2,0.3-0.4,0.4
	c-0.8,0.6-1.5,2.4-2.6,1.2c-1.1-1.1,0.4-2.2,1.2-2.7c3.1-2,1.9-4.3,0.7-6.8c-0.3-0.7-1.4-1.8-0.1-2.3c1-0.4,2.2-0.1,2.8,1.1
	c0.2,0.5,0.5,1,0.7,1.5c0.5,1.6,1.2,1.2,2.1,0.3c4.2-3.9,8.1-8,12-12.2c0.8-0.8,0.9-1.7,0.9-2.8c-0.1-4.1,1.9-6.7,5.9-7.3
	c2.4-0.3,4.1-1.4,5.7-3.1c1.9-2.1,4-3.9,6.2-5.8c0.5-0.4,1.2-1.3,1.9-0.7c0.8,0.8,0.1,1.5-0.6,2.1c-1.8,1.7-3.7,3.4-5.4,5.3
	c-0.5,0.5-2.1,1.1-0.9,2c0.9,0.6,2.1,1.7,3.5,0.3c1.5-1.5,3.1-3,4.7-4.4c0.9-0.8,2-2.4,3.3-0.9c1,1.2,0.1,2.4-1.1,3.3
	c-0.8,0.6-1.5,1.4-2.3,2c-1.9,1.6-3.8,3.1-2.2,6c0.3,0.4,0.1,1.1,0.1,1.7c0,1-0.4,1.8-1.6,1.9c-1.2,0-1.6-0.7-1.6-1.8
	C489.2,91.2,489,90.7,488.9,89.5z M461.6,111.4c0.4,0.2,0.8,1.8,1.9,0.7c4.1-4.2,8.2-8.5,12.1-12.8c1.1-1.1,0.1-2.5-0.7-3.2
	c-0.9-0.8-1.3,0.6-1.9,1.1c-3.8,3.8-7.5,7.6-11.3,11.3C460.8,109.3,460.3,110.1,461.6,111.4z M476.8,102.6c-2.1,2.2-3.7,4.1-5.4,5.9
	c-1.7,1.9-3.5,3.7-5.3,5.6C473.6,116.9,477.4,112.9,476.8,102.6z M486,87.2c-0.8-0.5-1.8-0.6-2.9-0.5c-0.8,0.1-5.7,5.1-5.7,5.9
	c0,1,0.2,2.2,1.1,2.8c0.8,0.5,1.2-0.6,1.7-1.1c1.8-1.8,3.4-3.7,5.2-5.5C485.7,88.3,486.3,88,486,87.2z"/>
<path class="st0" d="M467.3,147.9c2-2.3,3-4.8,4.5-7.1c0.4-0.6,0.5-2,1.7-1c0.7,0.6,2.1,1.1,1,2.7c-1.3,1.9-2.4,4-3.8,6.4
	c3.2-1.6,5.9-2.8,8.7-4.1c0.8-0.4,1.8-1,2.4,0.2c0.7,1.3-0.4,1.6-1.2,2.1c-1.8,1.1-3.6,2.2-5.9,3.6c2.4,0.5,4.1,0.9,6,1.2
	c1.2,0.2,1.9,0.4,1.5,1.9c-0.3,1.5-1.2,1.4-2.3,1.1c-2.7-0.6-5.3-1.1-8-1.7c-1.1-0.3-2.3-0.5-3.2,0.4c-0.9,1-0.2,2.2,0.3,3.1
	c1.3,2.6,1.3,5.6,2.8,8.2c0.5,1,0.2,2.3-0.7,2.7c-1,0.6-1.9-0.5-2.4-1.4c-1.5-2.8-2.9-5.8-3.9-9.4c-1.5,2.3-2.7,4.1-3.9,6
	c-0.7,1.3-1.6,1.7-2.9,0.8c-1.4-1-0.1-1.8,0.3-2.5c0.3-0.6,0.6-1.1,1.3-2.2c-2.7,1.4-4.8,2.1-6.3,4c-0.5,0.6-1,1.2-1.6,1.6
	c-1,0.7-2.2,1-3-0.1c-0.9-1.1-0.7-2.3,0.4-3.2c3.1-2.6,7-3.7,10.1-5.9c1.5-1.1,4.4-1.6,4.3-3.1c-0.1-1.8-3.1-1.5-4.6-2.2
	c-1.2-0.6-2.3-1-1.7-2.6c0.6-1.5,1.5-0.9,2.5-0.5c1.1,0.4,2.5,1.5,3.3,0.6c0.8-1,0.3-2.7-0.3-4c-0.4-1-1.3-1.9-1.1-3.1
	c0.3-1.5,0.8-2.8,2.5-3c1.9-0.1,2.2,1.4,2.3,2.9C466.6,142.9,466.1,145.2,467.3,147.9z"/>
<path class="st0" d="M469.4,181.3c-0.7,0.4-1.5,0.7-2.2,0.1c-0.8-0.9-0.3-1.9,0.3-2.5c2.5-2.8,5.1-5.5,7.7-8.2
	c5-5.2,10.2-10.2,15-15.6c4-4.6,7.5-9.6,9.6-15.3c0.5-1.3,0.8-1.7,2-0.9c0.4,0.3,0.8,0.5,1.2,0.7c4.3,2.1,4.2,2.1,1,5.5
	c-11.2,11.7-22.4,23.4-33.5,35.1C470,180.5,469.8,180.9,469.4,181.3z"/>
<path class="st0" d="M466.9,48.1c-6.3,12-12.8,24.2-18.6,36.8c-0.5,1-0.6,2.3-2.3,1.4c-1.6-0.7-1.1-1.7-0.6-2.7
	c5.8-12.6,12.2-24.8,18.8-37c2.8-5.2,5.4-10.5,9-15.2c0.6-0.8,1.1-2.4,2.4-1.5c1.2,0.8,0.7,2,0,3.2C472.7,38,469.9,42.9,466.9,48.1z
	"/>
<path class="st0" d="M501.5,158.7c0.4-0.4,0.8-0.8,1.3-1.1c1.4-0.9,2.6-3.2,4.5-1.7c1.7,1.3,1.5,3.6,1.6,5.7c0,1.1-0.7,1.7-1.8,1.8
	c-5.4,0.5-9.2,3.8-13.1,7.1c-5.6,4.8-10.9,10-16.4,14.9c-0.8,0.8-1.7,2.2-3,0.7c-1.2-1.3,0-2.1,0.9-3
	C483.8,174.5,492.8,166.7,501.5,158.7z"/>
<path class="st0" d="M460.3,195.1c1.7-1.4,5.3-1.3,6.4,0.3c1.2,1.7-0.3,2.8-1.3,3.7c-1.7,1.5-4.2,1.4-5.5-0.1
	C458.8,197.7,459,196.2,460.3,195.1z"/>
<path class="st0" d="M440.1,99.7c1.4,1.1,2.1,2.4,1.1,3.9c-1.3,1.9-3.2,2-4.9,1.1c-1.4-0.8-2.1-2.3-1-3.8
	C436.4,99.2,438.2,98.9,440.1,99.7z"/>
<path class="st0" d="M463.2,189.3c-1,0.5-2.1,2.4-3.4,0.6c-1-1.5,0.3-2.7,1.4-3.4c1.1-0.7,2.7-2.2,3.9-0.7
	C466.3,187.5,464.4,188.4,463.2,189.3z"/>
<path class="st0" d="M267.2,230.5c-1.3,3-3.1,5.7-4.9,8.4c-3.6,5.1-6.5,10.6-10.2,15.5c-1.3,1.6-1.4,3.5-1.7,5.4
	c-0.5,2.9-1.4,5.5-3,7.9c-0.9,1.5-2.3,1.8-3.9,0.9c-2.2-1.3-4.1-3-6.1-4.6c-3.6-3-7.1-6.1-11.3-8.2c-2.6-1.3-5.3-2.5-8.4-3
	c-2.3-0.4-4.5-0.7-6.8-0.3c-1.8,0.3-3.7,0.9-5.5,1.3c-2.6,0.5-5.2,0.8-7.7,1c-11,1-22.1,1-33.1,1.3c-10.4,0.2-20.8,0.2-31.2,0.2
	c-14.4,0-117.1,0-131.5,0c-0.7,0-2,0.5-1.9-1c0.1-1.3,1.1-1,1.9-1c12,0,112.3-0.1,124.3,0c2.7,0,5.4,0.2,8.1,0.1
	c10.5-0.3,20.9,0.1,31.4-0.2c5.2-0.1,10.3-0.1,15.4-0.3c5.4-0.2,10.8-0.3,16.1-0.8c4.6-0.5,9.2-1.2,13.8-2.4c1.8-0.5,3.8-0.2,5.8,0
	c7.9,1,14,5.5,19.9,10.3c2.2,1.8,4.4,3.8,6.8,5.4c1.8,1.2,2.2,1.1,3.2-0.9c1.2-2.5,2-5.1,2.2-7.9c0.1-1.9,1-3.4,2.2-4.9
	c2.9-3.8,5.1-8,7.7-11.9c2.3-3.4,4.6-6.6,6.4-10.3c0.6-1.3,1.3-2.6,1.6-3.9c0.2-0.8-0.2-1.8-0.3-2.7c-0.4-3-0.9-6.1-0.9-9.1
	c-0.1-3.4-0.6-6.7-1.4-9.9c-1.3-4.8-0.6-9.4,1.1-14c0.7-1.8,1.1-3.7,1.6-5.5c0.3-1.4-0.3-2.6-0.9-3.9c-1.1-2.6-1.1-2.6-3.6-1.1
	c-0.4,0.3-0.9,0.5-1.3,0.7c-0.9,0.3-1.7,0.4-2.5-0.3c-0.7-0.7-0.7-1.6-0.3-2.5c0.6-1.5,1.7-2.7,2.8-3.8c0.8-0.7,0.7-1.3,0.2-2.2
	c-1.6-3.1-4.2-5.5-6.4-8.2c-0.5-0.6-0.9-0.2-1.3,0.1c-2.2,1.7-4.4,3.5-6.4,5.4c-0.8,0.7-1.7,1.3-2.6,1.7c-0.8,0.3-1.7,0.4-2.4-0.3
	c-0.6-0.6-0.8-1.4-0.5-2.3c1.3-3.3,3.3-6.1,5.8-8.5c0.7-0.7,1.7-0.9,2.6-1.2c0.7-0.2,0.8-0.5,0.3-1c-0.7-0.9-1.4-1.8-2.2-2.6
	c-1.9-1.9-3.6-3.9-4.6-6.5c-0.4-1-1-0.9-1.7-0.5c-2.2,1.1-3.8,2.9-5.4,4.6c-4.8,5.2-9.6,10.4-14.4,15.5c-0.7,0.8-1.5,1.7-2.5,2.2
	c-0.6,0.3-0.6,1-0.7,1.5c-0.5,2.7-1,5.4-2,8c-0.6,1.5-1.6,2.9-2.4,4.4c-2.6,4.8-3.8,9.8-2.8,15.2c0.7,3.8,1.8,7.5,2.8,11.2
	c0.7,3.1,1.4,6.3,1.8,9.5c0.5,4.2,1.3,8.3,1.8,12.5c0.3,2.1-0.1,4.1-1.1,5.9c-1.6,2.9-4.8,3.2-7,0.8c-1.2-1.3-1.9-2.8-2.1-4.5
	c-0.2-1.9-0.6-3.8-0.5-5.8c0.1-3.7-0.1-7.4-0.5-11.1c-0.4-3.9-1-7.7-2-11.5c-0.7-3.1-1.6-6.2-2.2-9.3c-0.7-3.8-0.3-7.5,0.1-11.2
	c0.4-3.3,0.9-6.5,1.4-9.7c0.5-3.1,0.8-6.1,0.9-9.3c0.1-3.5-0.3-7-1.5-10.3c-0.6-1.6-1.1-3.3-1.7-4.9c-0.7-2.3-0.3-3.4,1.8-4.7
	c-0.1-0.1-0.2-0.2-0.2-0.2c-3.7,0-5.9-2.3-7.7-5.1c-4.5-7.1-6.7-14.7-6.1-23.2c0.3-5,2.5-8.6,6.5-11.5c5-3.6,10-7.3,15.3-10.3
	c2.1-1.2,4.2-2.2,6.4-3.1c1-0.3,1.9-0.5,3-0.5c0.7,0,1.4,0.1,1.7,0.8c0.3,0.7,0.2,1.4-0.3,2c-0.9,1.2-1.8,2.3-2.6,3.5
	c-1.9,3-1.8,6.2-1,9.5c0.7,3.1,2.1,6.1,3.2,9.1c1.5,3.7,3,7.4,4.9,11c2.1,4,4.8,7.4,8.1,10.4c0.9,0.9,2,1.6,2.2,3
	c0.1,0.2,0.2,0.5,0.4,0.4c1-0.3,1.9-0.6,2.9-1c0.6-0.2,0.2-0.6,0.1-1c-1.3-3.5-3.6-6.4-5.7-9.4c-3.2-4.6-5.5-9.8-7.6-15
	c-1.1-2.9-2-5.8-2.5-8.7c-0.6-3.3-0.2-6.6,1.1-9.7c1.7-4.1,4-7.8,7.8-10.3c2.9-1.9,6-3.4,9-5c6.1-3.1,12.2-5.9,18.3-8.9
	c5.6-2.7,11.2-5.2,16.7-8.2c5.9-3.3,11.5-7,17-11c6.9-5,13.8-10.1,20.2-15.8c0.1-0.1,0.2-0.2,0.4-0.3c3.2-2.1,3.8-4.9,3.2-8.5
	c-0.5-2.5-0.2-5.1,0.5-7.7c1.3-4.7,5.3-5.9,9.2-3.5c3.7,2.2,6.1,5.5,8.4,9.1c4,6.3,7,13,10,19.8c2.3,5.4,4.6,10.7,6.7,16.2
	c3.2,8.1,6.4,16.3,9.2,24.5c1.9,5.8,3.8,11.5,5.3,17.5c1,4.3,2.1,8.6,1.9,13.1c-0.1,3-1.4,5.1-4.1,6.3c-2.9,1.3-6,1.8-9.1,0.4
	c-1.4-0.6-2.6-1.7-3.7-2.7c-1.7-1.7-3.7-2.4-6.1-2.5c-7.2-0.4-14.5-0.3-21.7,0.1c-4.5,0.3-9,1.1-13.4,2c-7.4,1.4-14.7,3.6-21.9,5.9
	c-5.8,1.9-11.6,3.7-17.5,5.5c-6.8,2.2-13.6,4.3-20.3,6.5c-2.4,0.7-4.7,1.5-7.1,2.2c-0.6,0.2-1.1,0.3-0.8,1.1
	c0.3,0.7,0.2,1.5,1.4,1.4c3-0.4,5.7,0.5,8.1,2.5c1.6,1.4,2.9,3,3.2,5.1c0.2,2.1-0.8,3.7-2.1,5.2c-0.7,0.8-0.5,1.3,0.1,1.9
	c0.4,0.5,0.6,0.5,1.1,0.1c1.3-0.8,2.5-1.6,4-1.9c4.1-0.9,7.7,1.8,8.1,6c0.4,3.4-0.3,6.4-2.8,8.9c-0.7,0.7-0.2,1.4,0.2,2
	c0.5,0.8,0.8,0,1.2-0.1c0.3-0.1,0.6-0.4,1-0.6c2.6-1.4,4.2-1,5.8,1.5c1.9,2.9,2.3,9.6-1.3,12.8c-0.7,0.6-1.4,1.1-2.3,1.9
	c1.4,0,2.6,0,3.7,0c1.9,0,2.7,0.5,3.3,2.4c1.3,3.8,1.3,7.7-0.3,11.4c-1.7,3.9-2.7,8.1-4,12.1c-0.7,2.4-1.5,4.8-2.6,7.1
	c-1.1,2.3-0.7,4.6-0.2,6.9c0.1,0.2,0.2,0.4,0.2,0.6c0.3,3.1,1.3,3.9,4.8,4.5c7,1.2,14.2,1.1,21.3,1.3c7.3,0.2,14.7,0.1,22.1,0.2
	c3.3,0.1,6.7,0,10,0c36,0,72,0,108,0c0.4,0,43.7,0,70.6,0c0.7,0.1,4.9,0,4.9,1.1c0,0.6-4.4,0.9-4.9,0.9c-27,0-70.3,0-70.7,0
	c-30.8,0-61.7,0-92.5,0c-12.5,0-25.2,0.1-37.7-0.1c-8.1-0.1-16.2-0.2-24.4-0.7c-3-0.2-5.9-0.5-8.8-1.3c-3-0.9-4.2-3-4.6-5.8
	C267.6,231.3,267.8,230.9,267.2,230.5z M319.3,38.1c-0.6,0.6-1.1,1-1.5,1.5c-4.8,4.6-10.1,8.7-15.4,12.7
	c-6.5,4.9-13.1,9.7-20.1,13.8c-6.2,3.7-12.8,7-19.4,10.1c-7.8,3.6-15.5,7.3-23.2,11.2c-4.8,2.4-8.8,5.4-11.1,10.4
	c-1.8,3.8-2.4,7.8-1.5,11.8c0.6,3,1.7,5.8,2.8,8.6c1.7,4.1,3.5,8.1,5.8,11.8c2.5,3.8,5.4,7.3,7,11.5c0.2,0.6,0.7,0.5,1.1,0.4
	c1-0.3,2-0.6,3-0.9c4.4-1.4,8.8-2.7,13.2-4.1c5.3-1.7,10.6-3.4,15.9-5.1c4.9-1.6,9.9-3.1,14.8-4.7c4.6-1.5,9.2-3,13.8-4.1
	c3.1-0.7,6.2-1.3,9.3-1.9c4.6-1,9.2-1.5,13.9-1.7c6-0.3,12-0.2,17.9-0.1c3.2,0.1,6.2,0.8,8.5,3.3c1.9,2.1,4.4,3.1,7.4,2.7
	c4.4-0.7,6.4-2.3,6.2-6.7c-0.1-3.2-0.8-6.3-1.5-9.4c-1.1-5.1-2.6-10.1-4.2-15.1c-1.5-4.7-3.3-9.3-5-13.9c-2.2-6.1-4.5-12-6.9-18
	c-2.7-6.6-5.3-13.1-8.4-19.6c-2.4-5.1-4.9-10.1-8.1-14.7c-1.8-2.6-3.8-5-6.6-6.6c-2.4-1.4-5.3-1.2-6.2,1.9c-0.2,0.7-0.4,1.4-0.5,2.1
	c-0.3,2.5-0.2,5,0,7.9c0.3-0.5,0.5-0.7,0.6-1c0.7-1.7,0.7-3.4,1-5.1c0.3-1.9,1.5-3.2,3.5-3.3c3.7-0.1,6.1,2.6,5.6,6.2
	c-0.3,2-0.2,3.9,0.2,5.9c0.9,3.5,1.9,7.1,2.9,10.6c1.2,4.7,2.4,9.5,3.9,14.1c0.2,0.7,0.6,1.5,1.1,2.1c0.7,0.8,1.7,0.7,2.7,0.9
	c0.9,0.1,0.6-0.7,0.9-1.2c0.7-1.1,1.9-1.4,3-0.6c0.5,0.4,1,0.9,1.4,1.5c1.7,2.6,3.2,5.3,4.5,8.1c1.5,3,2.8,6.2,4.2,9.3
	c1.9,4.4,3.6,8.8,5,13.4c1.2,3.8,2.3,7.6,3.1,11.5c0.7,3.3,1.3,6.5,1.1,9.8c-0.2,2.9-1.9,4.5-4.8,4.3c-5.2-0.3-9.4-2.2-12.5-6.6
	c-6.2-8.8-10.5-18.6-14.4-28.6c-1.9-5.1-3.8-10.2-5.6-15.3c-1.7-5.1-3.4-10.3-5-15.5C321.6,48.5,320.4,43.4,319.3,38.1z M220.8,95.6
	c-1.6,0.3-3.1,0.8-4.5,1.5c-7,3.5-13.4,8-19.5,12.7c-2.6,2.1-4.6,4.6-4.7,8.1c-0.1,2.8-0.2,5.6-0.1,8.4c0.1,0.5,0,1,0.1,1.5
	c1.1,4.7,2.6,9.1,5.2,13.2c1.9,3,4.2,5,8.1,5c3.3,0,6.5,0.7,9.6,1.8c1.8,0.7,3.6,0.9,5.4,0.5c4.9-1,9.6-2.6,14.4-3.9
	c0.9-0.2,1.1-0.7,0.6-1.5c-0.4-0.6-0.9-1-1.4-1.5c-3.3-3-6.1-6.4-8.2-10.4c-1.7-3.3-3.3-6.6-4.6-10c-1.7-4.4-3.8-8.7-4.5-13.5
	c-0.5-3.4,0.2-6.3,2.1-9.1C219.4,97.6,220.2,96.8,220.8,95.6z M350.5,73.1c-0.1,0-0.1,0.1-0.2,0.1c0.5,1.3,1,2.6,1.4,4
	c0.4,1.4,0.7,2.7,1.1,4.1c0.9,2.8-0.3,5.7-2.8,6.9c-1.1,0.5-2.2,0.7-3.2-0.3c-0.7-0.6-0.8-2.2-0.3-3.2c0.3-0.6,0.6-1.1,0.9-1.7
	c0.3-0.5,0.3-0.9,0.1-1.4c-0.9-2.5-1.8-4.9-2.6-7.3c-0.8-2.6-1.7-5.1-2.2-7.8c-0.2-0.9-0.6-1.3-1.5-1.3c-1.9,0.1-3.2-0.8-4.1-2.4
	c-1.5-2.8-2.1-6-3-9c-1-3.3-1.8-6.6-2.6-9.9c-0.8-3.1-1.5-6.3-2.4-9.5c-0.5-1.9,0.1-3.8,0-5.8c0-1.9-1.4-3.2-3.4-3.2
	c-1.4,0-2.1,0.9-2.1,3c0,2.3-0.7,4.4-1.9,6.3c-0.7,1-0.7,1.9-0.6,3c0.3,2.5,0.9,4.9,1.5,7.3c1.2,5,2.6,10,4.2,15c1.6,5,3.5,9.9,5,15
	c1,3.1,2.2,6.2,3.4,9.3c1.5,3.9,3.1,7.8,4.9,11.5c2.8,5.9,5.8,11.6,9.7,16.9c2.8,3.7,6.6,5,11.1,5c1.1,0,1.7-0.6,1.9-1.7
	c0.3-1.3,0.2-2.5,0.1-3.8c-0.3-2.7-0.8-5.4-1.4-8c-1-4.2-2.2-8.3-3.6-12.4c-1.7-4.9-3.7-9.6-5.7-14.3
	C351.8,76,351.1,74.5,350.5,73.1z M206.8,149.8c-3.2-0.1-3.3,0.1-2.8,2.6c0.1,0.4,0.2,0.8,0.4,1.2c1.4,4,2.6,8,2.7,12.3
	c0.1,3-0.3,6-0.7,9c-0.6,4.5-1.4,8.9-1.8,13.3c-0.2,2.3-0.7,4.6-0.5,6.9c0.5,4.8,2.1,9.3,3,13.9c0.9,4.3,1.4,8.6,1.8,13
	c0.3,3.7,0.2,7.3,0.4,10.9c0.1,2.1,0.3,4.3,2.1,5.9c1.4,1.3,3.2,0.9,4-0.8c1-1.9,0.8-4.1,0.5-6.1c-0.8-4.3-1.1-8.7-1.8-13
	c-0.6-3.3-1.3-6.6-2.1-9.8c-0.9-3.4-1.8-6.8-2.3-10.3c-0.9-5.9,1-11.1,3.9-16.1c1.3-2.3,2.3-4.6,2.9-7.1c0.3-1.7,1.1-3.4,0.7-5
	c-0.9-3.4-0.9-6.9-1.4-10.3c-0.3-1.9-0.6-3.9-1.3-5.7C212.9,150.9,209.6,150.3,206.8,149.8z M268.3,222.5c0.9-2.4,1.7-4.6,2.4-6.9
	c1.1-3.7,2.1-7.4,3.6-10.9c1.4-3.4,1.6-7,0.3-10.6c-0.3-0.9-0.8-1.4-1.8-1.3c-1.2,0.1-2.5,0-3.7,0c-0.7,0-1.3-0.3-1.5-1
	c-0.2-0.7-0.2-1.4,0.3-2c0.3-0.3,0.7-0.6,1.1-0.9c1-0.7,1.9-1.3,2.5-2.4c1.3-2.3,1.1-4.8,0.7-7.2c-0.7-3.5-2.4-4.1-5.3-2.1
	c-0.6,0.4-0.7,0.6-0.3,1.3c1.1,2.2,2.2,4.4,1.9,7c-0.2,2.7-1.5,5-2.2,7.6c-0.7,2.7-1.4,5.3-1,8.1c0.3,2.1,1,4.2,1.3,6.2
	c0.4,2.8,0.6,5.5,0.8,8.3C267.6,218.1,267.6,220.2,268.3,222.5z M219.7,168.3c0.5-0.2,0.7-0.5,1-0.8c4.6-5,9.1-9.9,13.7-14.8
	c2.2-2.4,4.4-4.9,7.5-6.1c0.5-0.2,0.6-0.5,0.3-1.1c-0.3-0.6-0.5-1.2-1.4-0.9c-2.2,0.8-4.5,1.3-6.4,2.9c-3,2.6-6.8,4-10.1,6.1
	c-1.5,0.9-2.8,1.9-3.1,3.8c-0.3,2.3-0.9,4.5-1.2,6.8C219.9,165.5,219.6,166.8,219.7,168.3z M266.1,166.8c0-1.7-0.7-3.7-1.5-4.7
	c-1.1-1.5-2.9-2.2-4.4-1.6c-1.1,0.4-2.2,0.9-3.3,1.6c-0.7,0.5-0.8,0.7-0.2,1.4c2.4,2.6,4.9,5.1,6.4,8.4c0.3,0.6,0.5,0.3,0.8,0
	C265.5,170.4,265.9,168.4,266.1,166.8z M218.1,164.2c0.1-0.1,0.3-0.2,0.3-0.3c0.1-1.9,0.5-3.8,0.8-5.7c0.5-2.5,1.3-4.7,3.7-5.9
	c1-0.6,2-1.2,3-1.8c1.6-0.9,3.3-1.8,4.9-2.7c-3,0.7-6,1.5-9,2.2c-2.2,0.6-4.4,0.9-6.6-0.1c-0.9-0.4-1.9-1-3.2-0.9
	c0.1,0.4,0.5,0.5,0.7,0.7c1.1,0.7,2.1,1.6,2.8,2.9c1.8,3.2,2,6.7,2.3,10.2C217.8,163.2,217.6,163.7,218.1,164.2z M246.8,147.6
	c-1.4,0-1.6,0.2-1,1.5c0.1,0.2,0.2,0.3,0.2,0.5c1.4,3.1,4.4,5,6.2,7.8c0.2,0.3,0.4,0.4,0.7,0.2c1-0.6,1.9-3.4,1.5-4.5
	C253.5,149.9,249.9,147.8,246.8,147.6z M345.2,66.8c-0.3,0.8-0.2,1.3,0,1.8c0.4,1.4,0.9,2.7,1.4,4.2c0.7,2.3,1.5,4.7,2.5,6.9
	c0.8,1.8,0.9,3.5-0.3,5.3c-0.3,0.4-1.1,1-0.5,1.5c0.6,0.5,1.3-0.1,1.8-0.6c0.3-0.3,0.7-0.7,0.8-1.3c0.2-1.3,0.2-2.6-0.2-3.9
	c-0.9-2.9-1.8-5.8-2.8-8.7C347.3,70.2,346.4,68.6,345.2,66.8z M253.2,162c-0.4-0.4-0.4-1.4-1.4-1.3c-1.4,0.3-2.8,0.6-3.8,1.8
	c-1.6,1.8-3,3.8-4,6c-0.1,0.3-0.6,0.7-0.2,1c0.3,0.3,0.7-0.1,1.1-0.3c0.1-0.1,0.2-0.2,0.3-0.2c2.6-2.1,5-4.5,7.7-6.3
	C253,162.4,253.2,162.3,253.2,162z M260,179.5c1.5-0.4,2.4-1.3,3.4-1.9c0.7-0.5,0-1-0.2-1.4c-0.1-0.2-0.2-0.6-0.5-0.3
	C261.6,176.7,260.5,177.8,260,179.5z"/>
</svg>
