<?xml version="1.0" encoding="utf-8"?>
<!-- Generator: Adobe Illustrator 22.0.0, SVG Export Plug-In . SVG Version: 6.00 Build 0)  -->
<svg version="1.1" id="Слой_1" xmlns="http://www.w3.org/2000/svg" xmlns:xlink="http://www.w3.org/1999/xlink" x="0px" y="0px"
	 viewBox="0 0 536 271" style="enable-background:new 0 0 536 271;" xml:space="preserve">
<style type="text/css">
	.st0{opacity:0.6;fill:#FFFFFF;}
</style>
<path class="st0" d="M277.6,270.8c-1.1,0-2.4-0.7-3.5-1.9c-1.6-1.8-3-3.9-4.3-5.9c-1-1.5-2-3-3.1-4.5c-0.7-1-1.6-1.9-2.6-2.8
	c-0.8-0.8-1.5-1.2-2.2-1.2c-0.8,0-1.6,0.5-2.5,1.7c-1.5,2-2.4,4.2-3.3,6.4c-0.3,0.9-0.7,1.7-1.1,2.5c-0.6,1.4-1.2,2.4-1.8,3.3
	c-0.6,0.8-1.3,1.2-2.1,1.2c-0.7,0-1.3-0.3-2-0.8c-2.6-2-3.7-6.7-2.5-10.3c0.3-0.9,0.6-1.9,0.9-2.8l0-0.1c0.3-0.9,0.6-1.8,0.9-2.7
	c0.9-2.7,0.2-5-2-7.1c-2.5-2.3-4.6-4.9-6.2-7.9c-3.1-5.6-2.6-9.7,1.7-14c5.8-5.9,10.4-12.8,14.9-19.5c0.9-1.4,0.9-2.8,1-4.2
	c0.1-2.2,0.2-4.5,0.3-6.6c0.2-3.9,0.4-8,0.3-12c-0.2-7.8-1.4-15.3-2.5-21.7c-2.3-12.5-6.1-25.3-12.3-41.3
	c-2.1-5.4-4.4-11.1-7.3-16.5c-1.6-2.9-4-4.8-7.4-5.8l-1.7-0.5c-7-2.1-14.2-4.3-21.1-7.1c-2.6-1.1-5.2-2.3-7.8-3.5
	c0,0-1.8-0.9-2.6-1.2c-0.4-0.2-0.7-0.3-1-0.3c-0.8,0-0.9,1-1,1.3c-0.2,1.6-0.3,3.3-0.4,4.9c-0.3,3.9-0.6,7.9-1.7,11.9l-0.2,0.7
	l0.7-0.2c1-0.3,2-0.7,2.9-1l0.1,0c1.4-0.5,2.7-1,3.9-1.3c1.9-0.5,3.6-0.8,5.2-0.8c0.4,0,0.8,0,1.2,0c1.1,0.1,2,0.6,2.6,1.5
	c0.8,1.1,1,2.5,0.6,3.9c-0.7,2.4-1.3,4.9-2,7.3l0,0.1c-1.2,4.5-2.5,9.1-3.7,13.7c-0.6,2.6-1.2,5.2-1.7,7.7c-0.4,1.8-0.7,3.7-1.1,5.5
	c-1,4.7-1.8,9.6-2.5,14.2c-0.4,2.5-0.8,5-1.2,7.5c-0.4,2.3-0.7,4.6-0.9,6.8c-0.2,2.1-0.5,4.2-0.8,6.3c-0.3,1.5-0.4,3.1-0.6,4.6
	c-0.2,2.1-0.4,4.3-0.9,6.5c-0.1,0.6-0.1,1.2,0.1,1.7c3.9,8.5,8.9,16.5,15.3,24.6c0.1,0.1,0.2,0.2,0.3,0.2l0.1,0l0.2,0.1l0.2-0.1
	c0.6-0.4,0.5-1,0.5-1.4c0-0.1,0-0.2,0-0.3c0-7.3,0-14.6,0-21.8c0-7.3,0-14.6,0-21.8c0-13.7,0-27.4,0.1-41.1c0-0.5,0-0.9,0.1-1.4
	c0.1-0.4,0.3-0.6,0.7-0.6l0.1,0c0.4,0,0.6,0.2,0.7,0.6c0,0.5,0,1,0,1.4c0,1.1,0,2.2,0,3.3c0,3.2,0,6.5-0.1,9.7
	c-0.2,4.8,0.2,9.9,1.2,16.2c0.8,5.2,2.7,10.6,5.7,16.7c5.2,10.7,8.9,19.7,11.6,28.4c0.9,3,1.9,6,2.9,9.3l0.2,0.6l0.5-0.4
	c2.8-2.6,6-4.8,10.1-7c2-1.1,4.2-2.2,6.9-3.4l0.2-0.1c0.5-0.2,1-0.4,1.4-0.4c0.4,0,0.7,0.2,0.9,0.6c0.5,0.8,0,1.2-0.7,1.9
	c-0.1,0.1-1.8,1.7-1.8,1.7c-3,2.9-6.2,5.9-8.7,9.4c-4.7,6.7-7.1,13.4-7.4,20.6c0,0.8-0.1,1.6-0.2,2.4l-0.1,0.8
	c-0.1,0.7-0.3,1.8-1.4,1.8c-0.4,0-0.8-0.1-1.3-0.4c-2.7-1.7-5-3.9-7.3-6.1l-0.2-0.2c-4.6-4.4-8.6-8.4-12.2-12.4l-0.5-0.5l-0.2,0.6
	c-0.1,0.3-0.2,0.6-0.3,0.8c-0.2,0.5-0.3,0.9-0.5,1.4c-0.6,2.3-2.1,3.6-5.1,4c-1.7,0.2-3.4,0.5-5.1,0.7l-2.4,0.3
	c-4.5,0.6-8.9,1.6-13.2,2.5l-2.5,0.6c-6.4,1.4-13.1,3.2-20.5,5.6c-9.2,2.9-15.9,5.8-21.9,9.5l-0.1,0.1c-0.2,0.1-0.4,0.2-0.6,0.3
	c-0.3,0.1-0.6,0.2-0.9,0.2c-0.3,0-0.5-0.1-0.6-0.3c-0.3-0.4-0.1-0.7,0.4-1.4c0.7-0.8,1.3-1.5,2-2.2c1.4-1.5,2.9-3.1,4.2-4.9l0.7-1
	c1.3-1.8,2.6-3.7,3.6-5.8c0-0.1,0.1-0.1,0.2-0.2c0.2-0.3,0.7-0.9,0-1.5c-0.2-0.2-0.4-0.3-0.7-0.3c-0.3,0-0.6,0.1-0.8,0.2
	c-1.8,0.6-3.5,1.3-5.2,1.9c-2.5,0.9-5,1.9-7.5,2.8c-1.1,0.4-2.3,0.8-3.4,1.3c-3.4,1.3-6.9,2.6-10.6,3.3c-1,0.2-1.8,0.3-2.6,0.3
	c-2.5,0-4.1-1-6-3.8l-0.2-0.3l-0.3,0.2c-5.8,4.1-12.5,5.7-19,7.3c-6.9,1.6-13.8,2.8-20.9,4c-3.7,0.6-7.4,1.2-11,1.7
	c-1.8,0.3-3.6,0.5-5.4,0.8c-5.9,0.9-12.4,1.8-20.3,2.9c-1.8,0.2-3.5,0.5-5.3,0.7l-0.5,0.1c-1.9,0.2-3.8,0.5-5.7,0.7l-2.8,0.3
	c-3.6,0.5-7.2,0.9-10.8,1.5c-1.8,0.3-3.7,0.5-5.4,0.7L2.4,253c-0.1,0-0.3,0-0.4,0c-0.9,0-1.1-0.4-1.1-0.8c0-0.2-0.1-0.8,1.4-1
	c1.4-0.2,2.9-0.3,4.3-0.5c3.1-0.3,6.4-0.7,9.5-1.2c3.6-0.6,7.3-1,10.9-1.5l2.1-0.3c1.5-0.2,3-0.4,4.5-0.6c2.3-0.3,4.6-0.7,6.9-0.9
	c2.7-0.3,5.4-0.7,8-1.1c1.4-0.2,2.8-0.4,4.1-0.6c2.2-0.3,4.4-0.6,6.5-1c3.5-0.5,7.2-1,10.8-1.6c5.2-0.9,10.3-1.9,16-3
	c5.1-1,11.2-2.3,17.1-4.5c2.9-1,5-2.1,6.7-3.6c0.7-0.5,1.5-1.4,1-2.8c-0.5-1.2-0.6-2.5-0.7-3.8l0-0.7c-0.3-3.5-0.6-7.4-0.7-11.9
	c-0.1-2.1-0.1-4.1-0.2-6.2c-0.1-3.8-0.2-7.8-0.5-11.7c-0.4-4.6-0.6-9.2-0.8-13.7l-0.1-2.7c0-0.4,0-0.8,0-1.2c0-0.2,0-0.4,0-0.6
	c0-1.2,0.3-1.4,0.9-1.5c0.1,0,0.1,0,0.2,0c0.3,0,0.8,0.1,1.1,1.3c0.5,2.4,1.1,4.9,1.6,7.6l0.4,2.2c1,5.8,1.9,11.8,2.7,17.7
	c0.8,6.3,1.6,12.4,1.3,18.6c-0.1,2.8-0.6,4.8-1.6,6.6c-0.9,1.6-1.3,3,0,4.5c1,1.1,2.3,1.7,3.7,1.7c0.4,0,0.8,0,1.3-0.1
	c3.9-0.8,7.6-2.2,11.2-3.5l0.1,0c0.8-0.3,1.5-0.6,2.3-0.8c3.1-1.1,6.2-2.2,9.2-3.4c2.3-0.9,4.7-1.7,7-2.6c1.2-0.4,1.9-1.1,2.3-2.4
	c2.6-7.8,3.6-16.1,3-24.8c-0.5-6.9-1.4-14-2.9-21.1c-1.5-7.7-3.5-15.7-6.3-26.2c-1.9-7.1-4.2-14.1-6.9-21c-0.6-1.6-1.4-3-2.5-4.5
	c-1.6-2-4.2-3.2-7-3.2c-3,0-5.7,1.4-7,3.6c-1,1.6-1,3.4-1,5.1l0,0.5c0,0.6,0,1.3,0,1.9c0.1,1.2,0.1,2.4-0.2,3.6
	c-0.6,2.2-2.3,3.4-4.2,4.7c-5.6,3.8-9.7,9.4-12.4,17.1c-1.6,4.5-2.4,5.2-3.8,5.2c-0.5,0-1.2-0.1-2-0.3c-0.7-0.1-1.5-0.3-2.5-0.4
	c-3-0.3-5.3-0.8-7.5-1.5c-4.2-1.2-5.4-2.9-5.4-6.9c0-0.1,0-0.3,0.1-0.5c0.1-0.5,0.3-1.5-0.8-1.8c-0.2-0.1-0.5-0.1-0.7-0.1
	c-0.8,0-1.5,0.5-2,0.9c-1.7,1.5-2.9,3.5-3.6,6c-0.8,2.7-1.5,5.9-1.2,9.2c0,0.1,0,0.2,0,0.2c0,0.5,0,1.1,0.4,1.5
	c2.8,2.9,6.2,6.1,10.9,7.5c0.8,0.2,1.5,0.3,2.2,0.3c2.3,0,4.5-1.1,6.6-3.3c1.8-1.8,3.1-4,4.4-6c0.6-1,1.3-2,1.9-2.9
	c0.1-0.1,0.2-0.3,0.3-0.4c0.2-0.3,0.3-0.5,0.5-0.7c0.1-0.1,0.2-0.2,0.3-0.3c0.3-0.3,0.6-0.6,0.9-0.6c0.1,0,0.2,0,0.4,0.1
	c0.7,0.3,1.1,1,1,1.7l-0.2,1c-1.1,6.2-2.2,12.5-5.9,17.9c-1.4,2-3.3,2.9-6.2,2.9c-0.4,0-0.8,0-1.1,0c-4.2-0.3-8-1.8-11.6-4.6
	c-3.1-2.3-5.1-5.8-5.9-10.3c-0.5-2.6-2.2-4-4-5.3c-0.5-0.3-1-0.5-1.5-0.5c-0.7,0-1.5,0.3-2.3,0.9c-4.2,3-7.1,7.2-9.6,10.9
	c-2.6,3.8-4.9,8.1-7.4,13.7c-0.5,1.1-0.6,2.4-0.2,4c0.7,3.7,1.9,7.9,5.7,10.6c2,1.5,4.3,2.2,7.1,2.2c1.3,0,2.6-0.1,4.3-0.4
	c4.9-0.9,9.4-3,13.8-5c1.3-0.6,2.5-1.2,3.8-1.7l0.2-0.1c0.7-0.3,1.3-0.6,2-0.6c0.5,0,0.9,0.2,1.3,0.5c1.1,1,0.4,2.1-0.2,3.1
	c-5,8.1-10.4,13.6-16.8,17.5c-2.5,1.5-5.1,2.2-7.9,2.2c-5,0-10.2-2.6-13.7-6.9c-3.9-4.8-5.1-10.5-3.3-17.1c1.2-4.6,1.8-9.2,2.4-13.4
	c0.6-4.7,2.4-9,5-14c2.4-4.7,5.4-9.2,8.2-13.5c2-3,4-6.1,5.9-9.3c3.5-5.9,6.2-12.3,8.1-19.2c0.9-3.2,1.7-6.4,2.4-9.6
	c0.9-3.7,1.8-7.5,2.9-11.1c1.5-5.1,4.6-8.6,9.4-10.8c3.3-1.5,7-3.1,9.9-6c1.6-1.6,2.2-3.5,2.7-5.4c0.2-0.9,0.5-1.7,0.8-2.5
	c0.7-1.8,1.4-3.8,2-5.8c0.6-2.2,0.6-4.7-0.1-7.7c-0.9-4.2-2.8-8-4.6-11.7c-0.7-1.3-1.3-2.7-1.9-4c-1.5-3.4-3.1-7.4-3.4-11.7
	c-0.2-3.9,0.8-8.1,3-12.3c3.6-6.9,8.4-12.5,14.1-16.6c4.7-3.4,10.1-5.3,16.4-5.7c1.4-0.1,2.9-0.2,4.4-0.2c6.2,0,12.4,0.9,17.6,1.8
	c4.5,0.7,8.9,1.6,13.4,2.7c1.2,0.3,2.3,0.7,3.3,1.2c0.9,0.5,1.5,1.1,1.6,1.8c0.1,0.7-0.2,1.5-1,2.3c-1.4,1.5-3.1,2.6-4.8,3.6
	c-0.5,0.3-0.9,0.6-1.4,0.9c-0.1,0-0.1,0.1-0.2,0.1c-0.3,0.2-0.8,0.4-0.8,1.1l0,0.4l0.4,0c0.3,0,0.5,0,0.7,0c5.4,0,8.8,3.5,12.3,7.7
	c6.5,7.7,11.5,17,14.9,27.6c2.9,8.9,3.6,18.5,2.1,28.5c-0.6,3.6-1.8,6.9-3.6,9.7c-2,3-4.8,5-8.7,6c-1.2,0.3-2.5,0.6-4,0.9
	c-4.5,0.8-6.7,4.2-8.1,7.1c-1,2.2-2,3.1-3.3,3.1c-0.8,0-1.7-0.3-2.9-0.9c-5.4-2.7-10.7-6.5-16.8-11.9l-0.1-0.1
	c-0.5-0.4-0.9-0.9-1.6-1.2l-0.8-0.4l0.3,0.9c7.2,22,18.2,42.2,28,59.5l0.4,0.8l0.3-0.8c1-2.7,0.8-5.3,0.7-7.8c0-0.4,0-0.8-0.1-1.2
	c-0.1-1.9-0.2-3.9-0.3-5.8c-0.2-4-0.5-8.1-0.4-12.2c0.1-5.4,0.5-11.1,3.4-16.2c2.8-4.9,6.9-8.7,12.6-11.6c3.3-1.7,4.8-3.9,5.3-7.5
	c0.5-3.9,0.9-8.2,1.3-13.5c0.2-2.1,0.9-3.1,2.1-3.1c0.6,0,1.3,0.2,2.1,0.7c9.3,4.9,19.2,8.1,27.6,10.6c2.3,0.7,4.7,1.4,7.2,2.3
	c4.9,1.7,6.9,6,8.7,9.8c3.3,7.2,6.4,15,9.5,23.8c2.4,7,4.4,13.5,6,19.9c1.6,6.6,3,13.6,4,20.8c1,6.8,1.2,14.3,0.8,22.8
	c0,0.7-0.1,1.4-0.2,2.1c-0.2,1.3-0.4,2.6-0.2,3.9l0,0.2l0.2,0.1c0.2,0.1,0.3,0.1,0.4,0.1c0.5,0,0.7-0.4,0.8-0.6
	c0-0.1,0.1-0.1,0.1-0.2l0.2-0.3c1.6-2,3.3-4.2,5.7-5.5c1.3-0.7,2.6-1.1,4-1.1c2,0,4,0.9,5.4,2.5c2.7,3.1,3,7.5,0.8,10.5
	c-1,1.4-2.3,2.5-3.5,3.6c-0.4,0.3-0.8,0.7-1.2,1.1c-0.7,0.7-1.5,1.3-2.1,2.1c-1.8,2.1-1.8,3.6,0.2,5.5c2,2,4.4,3.6,6.8,4.9
	c4.7,2.7,9.4,5.7,14,8.5l1.4,0.9c1.7,1.1,2.9,1.7,3.9,1.7c1.5,0,2.2-1.4,3-4.3c0.6-1.9,1-3.9,1.5-5.7c0.4-1.8,0.9-3.5,1.3-5.2
	c2.4-8.3,6.7-13.7,13.2-16.7c2.2-1,4.6-1.8,6.9-2.5l1.6-0.5c1.6-0.5,3.2-0.9,4.7-1.3c2.8-0.7,5.6-1.4,8.2-2.6c3.5-1.6,5-3.8,4.9-7.1
	c0-1.2-0.6-2.1-1.2-3c-0.2-0.4-0.5-0.8-0.7-1.2c-0.6-1.3-1.5-2.5-2.3-3.6c-0.3-0.4-0.5-0.7-0.8-1.1c-0.8-1.2-1.9-1.7-3.2-1.7
	c-0.3,0-0.6,0-1,0.1c-2,0.3-3.9,1.1-5.7,1.8c-1.2,0.5-2.5,1-3.8,1.3l-0.8,0.2c-2.1,0.6-4.2,1.2-6.3,1.2c-1.3,0-2.4-0.2-3.6-0.7
	c-1.1-0.4-2.3-1.1-2.8-2.2c-0.4-0.8-0.8-1.6-1.2-2.3c-0.8-1.5-1.6-2.9-1.8-4.6c-0.1-0.6-0.2-1.6-1.2-1.6c-0.3,0-0.6,0.1-0.9,0.2
	c-0.4,0.2-0.8,0.2-1.2,0.2c-1,0-2-0.5-2.8-1.5c-0.9-1.1-0.8-2.2,0.2-3.9c0.6-1,1.4-1.8,2.3-2.7c0.3-0.3,0.6-0.6,0.9-0.9l0.4-0.4
	L304,160c-2.4-1.1-4.7-2.2-7-3.3c-0.2-0.1-0.4-0.1-0.5-0.1c-0.6,0-1,0.5-1.3,0.8l-0.1,0.1c-1,1.3-2.2,2.4-3.4,3.3
	c-1.5,1.1-3,1.7-4.5,1.7c-1.1,0-2.3-0.3-3.5-0.9c-3.2-1.6-6.3-3.8-9.6-6.8c-2.1-1.9-2.2-3.1-0.7-5.5c0.7-1.1,1.6-2.2,2.5-3.2
	c0.5-0.5,0.7-1,0.6-1.4c-0.1-0.4-0.4-0.7-1.1-1c-2.7-1.2-5.3-2.2-8-2.8c-5.8-1.3-9.6-4-11.8-8.6c-1.5-3.1-1.8-6.2-0.8-8.9
	c1-2.8,3.2-5,6.4-6.5c2.8-1.2,5.6-1.9,8.4-2c0.2,0,0.4,0,0.6,0c6.1,0,9.9,3.6,11.2,10.6c0.3,1.6,0.4,3.2,0.5,4.8
	c0.1,1.3,0.2,2.6,0.4,3.9c0.2,1.2,0.7,1.8,1.5,1.8c0.4,0,0.8-0.1,1.3-0.4c0.5-0.3,1.1-0.5,1.6-0.6l0.5-0.2c0.1,0,0.3-0.1,0.4-0.1
	c0.3,0,0.5,0.1,0.7,0.4c0.2,0.2,0.3,0.6-0.2,1.3c-0.9,1.3-2.1,2.3-3.3,3.4c-0.3,0.3-0.6,0.6-1,0.8c-2,1.8-2.9,2.6-2.8,3.5
	c0.1,0.9,1.2,1.6,3.3,2.9c3.2,2,6.4,4,9.6,6c0.6,0.4,1.1,0.5,1.5,0.5c0.7,0,1.3-0.5,1.6-1.3c0.1-0.2,0.2-0.5,0.4-0.7
	c0.1-0.2,0.2-0.3,0.3-0.5c1.2-2.3,1-3.4-1-5c-1.9-1.5-4-3.3-5.5-5.7c-0.9-1.3-1.2-2.3-0.2-3.3c0.7-0.7,1.6-1.1,2.6-1.1
	c0.7,0,1.3,0.2,1.8,0.6c0.8,0.7,1.3,1.6,1.8,2.5c0.3,0.5,0.6,1.1,1,1.7l0.4,0.5l0.3-0.6c0.8-1.7,1.2-2.1,1.8-2.1
	c0.4,0,0.9,0.2,1.8,0.5c4.5,1.8,9.1,2.2,14,2.6c0.6,0.1,1.2,0.1,1.9,0.2c7.7,0.7,14.8,3.2,21.3,7.6c4.4,3,8.5,6.3,12.6,9.5
	c0.9,0.7,1.8,1.4,2.7,2.2c3.3,2.7,3.9,5.9,1.6,10.3l-0.6,1.2c-1.1,2-2.2,4.2-3.4,6.2c-0.8,1.4-0.9,2.7-0.9,4
	c0.1,1.9-0.5,2.8-2.2,3.1c-0.7,0.1-1.4,0.7-1.7,1.5c-0.3,0.8-0.2,1.7,0.3,2.3c1.9,2.3,4.6,3.3,6.5,3.8c0.2,0.1,0.3,0.1,0.5,0.1
	c0.9,0,1.2-0.9,1.4-1.4l0-0.1c3.1-8.5,5.7-15.6,7.6-23.2c0.1-0.4,0.2-0.9,0.3-1.4c0.1-0.5,0.2-1.1,0.4-1.6c0.3-0.9,0.7-1.3,1.3-1.3
	c0.2,0,0.4,0,0.6,0.1c3.9,1,7.8,2.1,11.7,3.1c3.4,0.9,6.7,1.7,10.1,2.5l0.2,0c6.5,1.6,13.3,3.3,19.9,5.1c4.8,1.3,9.8,2.7,14.3,4
	c3.4,1,6.9,2,10.4,2.9c1.4,0.4,2.8,0.5,4.2,0.6c0.4,0,0.7,0,1,0c2.7,0,4.1-1,5.1-3.9c0.5-1.5,1.1-3,1.6-4.4c1.6-4.3,3.2-8.7,5-13
	c1-2.3,2-4.6,3-6.9l0.1-0.2c3.8-9,7.8-18.3,13.2-26.7c3.5-5.4,7-10.7,10.7-15.8c0.2-0.3,0.3-0.7,0.2-1.2l-0.1-0.6l-5.2,3.7
	c-1.1,0.7-2.1,1.5-3.3,2c-0.5,0.2-0.9,0.3-1.2,0.3c-0.8,0-1.4-0.5-1.6-1.6c-0.3-1.1-0.4-2.2-0.5-3.1c-0.1-2.1-0.4-4.2-0.7-6.2
	c-0.1-0.9-0.3-1.7-0.4-2.6c-0.3-2.1-0.9-3.4-2.9-3.4c-0.5,0-1.1,0.1-1.8,0.2c-2.2,0.5-4.4,1.1-6.5,1.7l-0.1,0c-1,0.3-2,0.5-3,0.8
	c-2,0.5-3.8,0.8-5.5,0.8c-0.6,0-1.1,0-1.7-0.1c-2.6-0.3-4.1-1.7-4.8-4.4c-0.6-2.3-0.7-4.8-0.8-7.1l0-0.1c0-0.8-0.1-1.6-0.2-2.3
	c-0.1-0.7-0.1-1.4-0.1-2.1c-0.1-1.4-0.1-2.9-0.4-4.3c-0.8-4-2.3-4.7-6.4-5.5c-1.1-0.2-2.3-0.4-3.3-0.5c-2.3-0.3-4.6-0.6-6.8-1.6
	c-1.2-0.5-1.8-1.1-2-1.8c-0.1-0.7,0.2-1.4,1-2.4c1.5-1.7,3.2-3.3,4.8-4.8c2.5-2.4,3.6-5.2,3.6-8.7c0-1.8-0.3-3.6-0.5-5.3l0-0.1
	c-0.1-0.8-0.2-1.5-0.3-2.3c-1-8.6,1.1-17.1,6.2-26c0.8-1.4,0.7-2.1-0.5-3.1c-1.9-1.6-3-3.7-3-5.8c0-2.2,1-4.4,3-6.2
	c3.5-3.1,7.6-4.4,11.2-5.4c6-1.6,12.5-2.3,20.5-2.3c2.8,0,5.7,0.1,9.4,0.3c9.2,0.5,16.3,2.5,22.3,6.3c5.2,3.3,9.2,7.9,12.3,14.2
	c4,8.1,5.4,16.3,4,24.6c-0.8,5.1-2.6,10.5-5.7,16.9c-0.5,1.1-1,2.1-1.5,3.2c-1.7,3.6-3.5,7.2-4.5,11.1l-0.1,0.3c-0.5,2-1,4-0.8,6.2
	c0.1,1.3-0.3,2.1-1.2,2.5c-0.2,0.1-0.4,0.1-0.5,0.1c-0.6,0-1.2-0.5-1.7-0.9l-0.2-0.2c-1.9-1.6-3.6-3.5-5.2-5.4
	c-0.8-0.9-1.6-1.8-2.4-2.7c-0.4-0.4-0.9-0.9-1.5-1.3l-0.8-0.5l0.2,0.9c0.4,1.6,1.2,3,2,4.3c0.3,0.6,0.6,1.1,0.9,1.6
	c0.6,1.2,1.2,2.3,1.8,3.4c0.4,0.7,0.8,1.4,1.1,2.1c0.2,0.4,0.4,0.7,0.3,1c0,0.1-0.2,0.2-0.4,0.3c-0.2,0.1-0.3,0.1-0.5,0.1
	c-0.4,0-0.7-0.2-0.9-0.7c-0.9-1.7-1.9-3.4-2.8-5.1l-0.1-0.1c-0.9-1.7-1.8-3.3-2.8-5c-0.6-1.1-1.1-2.2-1.6-3.2
	c-0.3-0.6-0.6-1.3-0.9-1.9c-0.6-1.3-0.8-2,0-2.6c0.2-0.2,0.5-0.3,0.7-0.3c0.5,0,1,0.5,1.5,0.9l0.2,0.2c2.1,1.9,4,4.1,5.9,6.2
	c1.5,1.7,3,3.4,4.6,4.9c0.1,0.1,0.2,0.2,0.3,0.3c0.4,0.4,0.9,0.9,1.7,1.2l0.5,0.2l0.1-1.6c0.2-2.1,0.3-4.1,0.9-6.1
	c1.1-4,3-7.7,4.7-11.3L504,64c3.9-7.9,6-14.8,6.8-21.6c0.5-4.1-0.3-8.2-1.1-11.6c-1.7-6.9-4.8-12.7-9.1-17.4
	c-4.2-4.6-9.7-7.6-16.8-9.3c-5.5-1.3-11.4-1.9-17.9-1.9c-2.6,0-5.3,0.1-8.1,0.3c-6.1,0.4-13,1.1-19.5,4c-2.7,1.2-4.5,2.5-5.9,4.1
	c-1.3,1.5-1.8,3.3-1.5,5c0.3,1.8,1.5,3.3,3.2,4.3c0.3,0.2,0.6,0.3,0.8,0.3c0.3,0,0.7-0.2,0.9-0.5c0.1-0.1,0.2-0.2,0.3-0.3l0.1-0.1
	c1.4-1.1,2.8-1.7,4.1-1.7c2,0,3.6,1.4,4.3,3.9c1.1,3.6,3.3,5.2,6.5,6.5c6.8,2.8,11.1,6.4,13.6,11.5c1.3,2.7,2.1,5.7,2.4,9.3
	c0.1,1,0.1,2.1,0,3.2c0,0.4,0,0.9,0,1.3v0.4h0.4c0.7,0,1.2-0.4,1.6-0.7c0.2-0.2,0.4-0.3,0.5-0.4c0.6-0.3,1.2-0.4,1.8-0.4
	c1.1,0,2,0.6,2.6,1.7c1.7,3,2,6.8,0.8,10.4c-1.2,3.6-3.7,6.4-6.9,7.8c-0.5,0.2-0.9,0.3-1.3,0.3c-1.1,0-2-0.7-2.4-2.1
	c-0.5-1.5-0.4-3-0.2-4.7c0.1-1.4,0.3-2.9,0.4-4.5l0.1-0.9l-0.7,0.6c-0.4,0.3-0.7,0.6-1,0.8c-0.5,0.5-1,0.9-1.5,1.2
	c-0.4,0.2-0.8,0.3-1.1,0.3c-0.8,0-1.3-0.7-1.5-1.7c-0.1-1.4,0.1-2.7,0.4-4c0.2-1.1,0.4-2.1,0.5-3.2c0-0.2,0.1-0.4,0.1-0.6
	c0.1-0.3,0.1-0.6,0.1-0.8c0.4-4.7-0.9-6.5-5.6-7.7c-0.4-0.1-0.9-0.2-1.3-0.3c-1.3-0.3-2.7-0.6-3.9-1.3c-1.5-0.8-2.3-2-2.5-3.5
	c-0.4-2.6-0.7-5.2-0.9-7.7l-0.2-1.9c-0.2-1.9-0.8-3.8-3.4-4.6c-1.6-0.5-3.3-1.3-5.3-2.4c-0.5-0.3-0.8-0.4-1.2-0.4
	c-0.7,0-1.2,0.6-1.5,1c-2,3.1-3.2,6.4-4.5,10.1c-2.4,6.9-1.8,13.8-0.9,21.6c0.5,4.7-0.8,8.5-4,11.6c-0.7,0.6-1.3,1.3-1.9,1.9
	c-0.8,0.8-1.5,1.5-2.3,2.2c-0.5,0.5-0.7,0.8-0.6,1.2c0.1,0.5,0.6,0.8,1.1,1c1.3,0.5,2.7,0.7,4,0.9c0.7,0.1,1.4,0.2,2.1,0.3
	c0.6,0.1,1.3,0.2,1.9,0.3c1.5,0.2,3.1,0.5,4.5,1.1c2.6,1,4.1,3,4.5,5.7c0.4,3.2,0.6,6.4,0.8,9.6c0.1,1.2,0.2,2.3,0.2,3.3l0,0.4
	c0.1,1.5,0.3,3,1.1,4.5c0.7,1.1,1.6,1.7,3,1.8c0.3,0,0.6,0,0.9,0c2.2,0,4.3-0.5,6.3-1.1c0.6-0.2,1.2-0.3,1.8-0.5
	c0.9-0.2,1.7-0.4,2.6-0.7c2.1-0.6,4.3-1.2,6.5-1.2c0.2,0,0.3,0,0.5,0c2.1,0.1,3.5,1.3,3.9,3.3c0.7,3.1,1,6.4,1.1,9.8v0.2
	c0.1,1.6,0.3,3,1.4,3c0.5,0,1.1-0.3,2.2-1.1c0.8-0.5,2.6-1.8,2.6-1.8c3.6-2.5,7.2-5.1,10.6-7.9c1.6-1.4,3-3,4.4-4.5
	c1-1.1,2.1-2.3,3.2-3.4c7.4-7.1,15.1-11.1,23.5-12.2c2.4-0.3,4.5-0.5,6.4-0.5c4.2,0,7.9,0.8,11.1,2.4c1.1,0.5,2.2,1.2,3,2.2
	c0.4,0.5,0.6,1,0.5,1.4c-0.1,0.4-0.4,0.8-1.1,1.2c-0.7,0.4-1.4,0.5-2.2,0.6c-1.1,0-2.2,0.1-3.3,0.1l-0.4,0c-2.3,0.1-4.8,0.2-7.1,0.2
	c-9.5,0.1-18.8,2.8-27.8,8c-0.6,0.3-1.2,0.7-1.7,1.1l-0.2,0.1c-1,0.7-2.1,1.3-3.2,1.9c-3.9,2.1-6.4,5.6-8.7,8.9
	c-0.3,0.4-1.3,1.8-1.3,1.8c-5.2,7.2-10.5,14.6-14.8,22.5c-3.6,6.7-6.6,13.7-9.5,20.5l-0.8,1.9c-2.6,5.9-4.9,12.1-7.1,18
	c-0.6,1.5-1.1,2.9-1.6,4.3c-1.3,3.3-3.6,4.9-6.9,4.9c-0.8,0-1.7-0.1-2.6-0.3c-4.5-1-9.1-2.2-13.4-3.5c-1.6-0.5-3.2-0.9-4.8-1.4
	l-5.9-1.6c-5.6-1.5-11.3-3.1-17-4.6c-3-0.8-6.1-1.5-9-2.2c-2.2-0.5-4.4-1-6.6-1.6c-1-0.2-1.9-0.5-2.9-0.7c-2.5-0.6-5-1.2-7.4-2
	c-0.4-0.1-0.7-0.2-1-0.2c-0.9,0-1.5,0.6-1.8,1.7c-1.5,6.8-3.8,14-7.2,22.7c-0.6,1.6-0.9,2.4-0.5,3.1s1.3,0.9,2.9,1.2
	c1.9,0.3,3.9,0.6,5.7,0.9c1.6,0.2,3.1,0.5,4.7,0.7c6.8,1.1,13.5,2.2,20.1,3.8c8.6,2,16.5,4.3,24,7c7.4,2.6,15.1,5.6,21.8,10.4
	c2.1,1.5,3.8,3.1,5.1,4.9c0.7,1,0.9,1.6,0.5,2.2c-0.3,0.4-0.7,0.6-1.3,0.6c-0.3,0-0.6,0-0.9-0.1l-2.1-0.5c-3.3-0.8-6.6-1.7-9.9-2.8
	c-1.7-0.5-3.4-1-5-1.5c-1.4-0.4-2.8-0.8-4.2-1.2c-5-1.6-10.5-3.2-17.2-5.1c-4.7-1.4-9.4-2.7-13.7-3.9c-3-0.8-6-1.6-9-2.5
	c-5.9-1.6-11.9-3.3-17.8-4.9c-1.8-0.5-3.2-1.2-4.4-2.1c-1.3-1-1.9-2.1-1.8-3.3c0.2-2.1-1-2.7-2.4-3.2c-2.7-1-4.8-2.3-6.3-4
	c-1.1-1.3-1.3-2.6-0.6-3.9c1-1.6,0.2-2.5-0.8-3.2c-0.7-0.7-1.6-1.6-2.7-2.5l-0.8-0.7l0.2,1c0.2,1.6,0.6,3,1.3,4.4
	c1,2.3-0.5,5.8-3.2,7.6c-1.7,1.2-3.8,1.8-5.8,2.3c-0.8,0.2-1.7,0.5-2.5,0.7c-1.6,0.6-3.3,1-5,1.3c-2,0.5-4.1,0.9-6,1.7
	c-8.9,3.5-14.1,8.6-16.2,15.9c-1,3.5-2,7.3-3,11.5c-0.4,1.5-0.8,2.8-1.2,3.9c-0.9,2-2.1,2.9-3.9,2.9c-0.2,0-0.5,0-0.7,0l-1.3-0.1
	l1,0.8c0.7,0.6,1.4,1.2,2,1.7c0.9,0.8,1.8,1.5,2.7,2.3l0.1,0.1c1.5,1.4,3,2.8,3.8,4.7c0.3,0.8,0.3,1.5-0.1,2.1c-0.4,0.6-1.1,0.9-2,1
	c-0.1,0-0.2,0-0.4,0c-1.9,0-3.6-0.7-5.2-1.4c-3.4-1.4-6.6-3.2-9.8-4.9c-1-0.6-2-1.1-3.1-1.6c-0.3-0.2-0.7-0.3-1.1-0.5
	c-0.4-0.2-0.8-0.3-1.3-0.6l-1.3-0.6l0.7,1.2c1.1,1.8,2.3,3,3.4,4.3l0.9,1c3,3.3,6.2,6.7,8.4,10.7c1.3,2.3,1.9,4.4,1.8,6.5
	c-0.1,1.4-0.3,2.7-1.5,3.4c-0.4,0.2-0.8,0.3-1.2,0.3c-0.7,0-1.4-0.3-2.4-1c-2.4-1.7-4.5-3.8-6.4-5.9c-0.7-0.7-1.3-1.4-2-2.1
	c-0.8-0.8-1.6-1.7-2.5-2.5c-1.2-1.3-2.5-2.5-3.7-3.8l-0.1-0.1c-0.2-0.3-0.6-0.7-1.2-0.7c-0.2,0-0.3,0-0.5,0.1l-0.5,0.1l2.8,6.5
	c1.5,3.5,3,7.2,3.7,11.3c0.3,2.1-0.2,3.9-1.3,4.4C278.3,270.8,278,270.8,277.6,270.8z M261.7,253c1.1,0,2.3,0.5,3.4,1.5
	c1.4,1.2,2.4,2.6,3.5,4.1l0.4,0.5c0.8,1,1.5,2.1,2.2,3.2c1.3,2,2.6,4,4.3,5.7c0.1,0.1,0.1,0.2,0.2,0.3c0.3,0.4,0.6,0.8,1.2,0.8
	c0.2,0,0.3,0,0.5-0.1c0.9-0.5,0.7-1.7,0.6-2.2c-0.4-2.7-1.2-5.2-2.2-8c-0.7-2-1.6-3.9-2.5-5.8c-0.9-1.9-1.7-3.8-2.5-5.7
	c-0.1-0.2-0.2-0.4-0.3-0.6c-0.5-1.1-0.8-1.8,0.2-2.4c0.3-0.2,0.5-0.3,0.8-0.3c0.6,0,1.2,0.5,1.7,1.1c0.2,0.2,0.3,0.3,0.4,0.4
	c2.4,2.1,4.6,4.3,6.7,6.5c1,1,1.9,2,2.9,2.9c0.7,0.7,1.3,1.4,2,2.1c1.7,1.9,3.5,3.7,5.6,5.2c0.6,0.4,1.1,0.6,1.5,0.6
	c1.2,0,1.2-1.6,1.2-2.2c0-2-0.8-3.7-1.6-5.3c-1.6-3.1-4-5.8-6.3-8.4c-0.4-0.5-0.8-0.9-1.2-1.4c-0.6-0.7-1.2-1.3-1.8-2
	c-1.4-1.5-2.9-3.1-4-4.8c-0.1-0.1-0.2-0.3-0.3-0.4c-0.5-0.8-1-1.4-0.4-2.2c0.3-0.4,0.7-0.6,1.1-0.6c0.4,0,0.9,0.2,1.4,0.3l0.1,0
	c0.5,0.2,1,0.4,1.5,0.6c1.1,0.6,2.1,1.1,3.2,1.7c2.5,1.3,5.1,2.7,7.7,3.9c0.3,0.2,1.2,0.6,1.2,0.6c2,1,4,2,6.3,2.3
	c0.1,0,0.1,0,0.2,0c0.2,0,0.3,0,0.5,0c0.4,0,0.7-0.1,0.9-0.4c0.4-0.6,0-1.1-0.3-1.3c-0.1-0.1-0.1-0.1-0.1-0.2
	c-2-2.8-4.8-4.8-7.2-6.6c-7.7-5.6-15.9-10.2-25.9-15.4c-3.8-2-7.3-4-9.2-7.9c-0.4-1.1-0.8-2.3-1.1-3.6c-0.2-0.8-0.4-1.6-0.7-2.4
	l-0.2-0.8L257,207c-0.2,0.3-0.4,0.5-0.5,0.7l-0.2,0.3c-4.5,6.9-8.6,12.2-13.1,16.8c-4.5,4.6-4.3,7.3-1.6,12.6
	c1.5,2.9,3.7,5.2,5.8,7.5c0.5,0.5,1,1,1.4,1.6c1.5,1.6,2,3.4,1.5,5.3c-0.5,1.7-0.9,3.4-1.5,5.1c-1.1,3.5-1.2,6.2-0.3,8.7
	c0.3,0.8,1,2.3,2.3,2.4c0.1,0,0.1,0,0.2,0c1,0,1.3-0.9,1.6-1.6c0.1-0.2,0.1-0.4,0.2-0.5c0.1-0.3,0.3-0.6,0.4-0.8
	c0.1-0.3,0.2-0.5,0.4-0.8c0.3-0.8,0.7-1.6,1-2.3c0.9-2.2,1.8-4.5,3.3-6.4C259,253.9,260.3,253,261.7,253z M192.9,191.2
	c0,0.6-0.2,1.2-0.4,1.8c-0.2,0.6-0.4,1.1-0.4,1.6c-0.5,6.2-1.3,12.3-2.2,18.5c-0.6,3.9-2.4,5.6-6.4,5.9c-1.2,0.1-2.4,0.2-3.7,0.2
	c-2.7,0.2-5.4,0.3-8.1,0.7c-6.4,0.9-12.6,2.7-17.9,4.4l-0.3,0.1c-0.6,0.2-1.4,0.4-1.8,1.3c-1.8,3.9-4.2,7.8-7.6,12.3l-0.1,0.1
	l0.4,0.5l0.1-0.1c6.3-2.9,12.8-5.1,19-7.1c5.2-1.6,11-3.2,17.5-4.8c7.4-1.8,15.4-3.5,23.5-4.2c1.2-0.1,3.5-0.3,4-2.4l0.2-0.6
	c0.6-1.9,1.2-4.1-0.5-6.1c-3.7-4.4-7.1-9.1-10.4-14.6c-1.2-1.9-2.3-3.9-3.3-5.8c-0.4-0.8-0.8-1.5-1.2-2.2l-0.7-1.2L192.9,191.2z
	 M211.6,160l0,0.2c0,0.3,0,0.6,0,0.7c0,0.2,0,0.3,0,0.5c0,8.6,0,17.2,0,25.8v0.2c0,8.7,0,17.3,0,26c0,1.2,0.6,2,1.2,2.6
	c6.2,7.1,12.1,12.9,18,17.7c0.1,0.1,0.2,0.2,0.2,0.3c0.3,0.3,0.6,0.7,1,0.7c0.1,0,0.3,0,0.4-0.1c0.7-0.3,0.6-1,0.6-1.4
	c0-0.2,0-0.3,0-0.4c0.3-7.3,2.5-14.1,6.5-20.2c2.1-3.2,4.6-6.2,7.5-9.3l0.1-0.1l-0.4-0.6l-0.1,0.1c-4,1.4-9,4.9-11.3,7.4
	c-1,1.1-1.4,2.1-1.3,3.5c0.1,1.3,0.1,2.6,0,4.3c0,0.5-0.3,1.1-1.1,1.2c0,0-0.1,0-0.1,0c-0.5,0-0.8-0.3-1.1-0.9
	c-0.7-1.5-0.7-3.2-0.1-5c0.3-1,0.4-1.9,0.2-2.7c-1.6-6.2-3.8-12.9-6.5-20.4c-1.7-4.5-3.7-8.9-5.7-13.1c-2.5-5.4-5.1-10.9-7-16.7
	l-0.1-0.2L211.6,160z M110.5,193l0,0.2c0.4,4.7,0.5,9.4,0.7,14c0.2,6.3,0.4,12.8,1.2,19.1l0,0.2l0.7,0.1l0-0.2
	c0.6-1.9,1.2-3.8,1.3-5.9c0.1-1.9-0.1-3.8-0.3-5.7c-0.1-1-0.2-2.1-0.3-3.1c-0.3-6-1.3-11.7-2.5-18.6l0-0.2L110.5,193z M358.3,196.5
	c-0.4,0-0.7,0.2-0.9,0.5c-0.5,0.8,0.2,1.8,0.4,2.1c1.2,1.8,3.1,2.3,4.9,2.8l0.3,0.1c3.1,0.9,6.2,1.7,9.1,2.4c3,0.8,6,1.6,9,2.4
	c8.6,2.4,17.4,5,25.6,7.4c4.2,1.2,8.6,2.6,12.7,3.9l0.2,0.1c2.5,0.8,5.1,1.5,7.4,2.1c2.4,0.7,4.9,1.4,7.4,2.1c1,0.3,1.9,0.5,2.9,0.8
	l0.1,0c0.7,0.2,1.3,0.3,2,0.5l0.6,0.1l-0.1-0.6c-0.1-0.8-0.6-1.2-1-1.6c-0.1-0.1-0.2-0.1-0.2-0.2c-3.3-3.1-7.5-5.7-12.9-8
	c-7-3-14.1-5.3-20.2-7.2c-9.1-2.8-18.9-5.1-29.9-6.9c-2.3-0.4-4.6-0.7-6.9-1.1l-0.1,0c-3.1-0.5-6.4-0.9-9.5-1.5
	c-0.1,0-0.2,0-0.3-0.1C358.8,196.6,358.6,196.5,358.3,196.5z M129.4,119c3.7,0,7,2.1,9.1,6c2.1,3.7,3.4,7.8,4.6,11.4
	c0.4,1.3,0.7,2.6,1.1,3.9c0.4,1.6,0.8,3.2,1.4,4.7c0.9,2.7,1.8,5.7,2.8,9.4c1.1,4.2,2.1,8.5,3,12.6l0.6,2.4
	c1.4,6.1,2.5,12.6,3.6,20.7c0.7,5,0.8,10.3,0.4,16.9c-0.1,2-0.4,3.9-0.7,6.2c-0.3,1.6-0.7,3.2-1.1,4.9c-0.3,1.3-0.7,2.7-0.9,4.1
	l-0.1,0.7l0.6-0.2c0.7-0.2,1.3-0.4,2-0.6c1-0.3,2-0.6,3-0.9l1.3-0.3c4.5-1.2,9.1-2.4,13.9-2.6c1.5-0.1,3-0.2,4.4-0.3l0.1,0
	c1.8-0.1,3.7-0.3,5.6-0.3c1.9,0,3.1-1,3.7-2.9c0.7-2.4,1-5,1.3-7.4c0.1-0.8,0.2-1.5,0.3-2.2c0.3-2.4,0.6-5,0.9-7.2
	c0.4-3.3,0.8-6.8,1.3-10.1c0.1-0.6,0.2-1.4-0.2-2.2c-0.7-1.7-1.4-3.3-2.1-5l-0.1-0.2c-3.9-9.7-6.6-19.8-7.9-30
	c-1.1-8.4-1-15.8,0.4-22.5c0.9-4.2,2.2-8.6,4.2-13.8c0.5-1.3,0.9-2.5,1.4-3.8l1.6-4.4l-1.4,0.7c-0.6,0.3-1.1,0.5-1.5,0.7
	c-0.4,0.2-0.8,0.5-1.3,0.8l-0.5,0.3c-7.6,4.5-11.9,10.7-12.8,18.6c-0.8,7.5-0.4,15,0.2,23.3l0,0.6c0.3,3.6,0.5,7.1-0.4,10.6
	c-0.3,1.1-0.9,1.7-1.6,1.7c-0.4,0-0.9-0.2-1.4-0.5c-1.3-0.9-2.1-2.3-2.9-3.5c-3.2-5.2-6-10.8-8.6-16.2c-1-2.1-2.1-4.2-3.1-6.2
	c-4.1-8.2-8.9-18-12.7-28.5c-1-2.7-2-5.7-2.6-8.7c-0.2-0.9,0-1.5,0.5-1.8c0.2-0.1,0.4-0.2,0.6-0.2c0.3,0,0.7,0.2,1,0.5
	c0.8,0.7,1.6,1.3,2.3,2c6.3,5.8,11.9,9.9,17.6,12.7c0.8,0.4,1.4,0.7,1.9,0.7c0.9,0,1.4-0.9,2-2.1c1.3-2.7,3.1-5.6,6.3-7
	c2-0.9,4.2-1.3,6.2-1.7c1.8-0.3,4.1-1.4,5.5-2.6l0.1-0.1l-0.4-0.6l-0.2,0.1c-2.6,1.1-5.3,1.6-8,1.6c-1.7,0-3.5-0.2-5.3-0.6
	c-10.4-2.3-18.8-7.5-24.9-15.2c-4.6-5.8-7-12.3-7.2-19.3c-0.1-3.7,0.5-7.5,1.7-11.6c2.1-6.9,5.5-13.6,10.7-20.9
	c0.2-0.3,0.5-0.7,0.9-1c0.7-0.7,1.4-1.5,1.7-2.6l0.2-0.6L151,29c-1.1,0.2-2,0.5-2.8,1.1c-1.2,1-2.6,1.8-3.7,2.4
	c-4.3,2.4-7.8,5-10.6,7.9c-2.1,2.3-2.3,4-0.5,6.6c0.1,0.2,0.3,0.4,0.4,0.5c0.2,0.2,0.3,0.4,0.4,0.6c1.3,2.1,1.2,3.6-0.4,5.5
	c-0.7,0.8-1.6,1.7-2.3,2.4c-0.4,0.4-0.8,0.8-1.2,1.2c-1.7,1.7-3.4,4.2-2.3,7.6c0.1,0.3,0.2,0.6,0.3,0.9c0.2,0.6,0.4,1.1,0.5,1.7
	l0,0.2c0.2,1.2,0.4,2.1-0.5,3c-0.4,0.4-0.9,0.6-1.4,0.6c-0.5,0-1-0.2-1.7-0.5l-0.4-0.2c-0.5-0.2-1-0.5-1.4-0.8
	c-7.4-5.9-12.2-12.8-14.6-21.2c-2.6-9.1,1.9-18.1,10.9-21.8c6.2-2.6,13.1-3.8,21-3.8l3.1,0c2.9,0,5.3,0.1,7.8,0.6
	c0.3,0.1,0.6,0.1,0.9,0.2c0.7,0.2,1.5,0.4,2.2,0.4c0.6,0,1.2-0.1,1.7-0.4c2.8-1.6,5.9-3.3,8.7-5.6c0.7-0.6,1.1-1.1,1-1.6
	c-0.1-0.5-0.7-0.8-1.7-1.1c-6.3-1.9-12.9-3-19.2-4l-1.3-0.2c-3.1-0.5-6.4-0.7-10.1-0.7c-1.9,0-4,0.1-6.4,0.2
	c-4.8,0.2-9.5,1.7-13.8,4.4c-4.8,3-8.8,7.2-13,13.7c-2.1,3.2-3.5,6.6-4.2,10c-1.2,5.8,0.7,11.1,2.5,15.1c0.6,1.4,1.3,2.8,2,4.2
	l0,0.1c1.9,3.9,3.8,7.8,4.9,12.2l0.3,1l0.5-1c0.6-1.1,0.9-2.2,1.2-3.3c0.3-1,0.5-1.9,1-2.8l0.1-0.2c0.4-0.8,0.7-1.4,1.6-1.4
	c1.2,0,1.6,0.9,1.9,1.8c1.2,3.4,1.4,7,0.6,11.5c-0.4,2.3-0.9,4.7-1.3,6.7l-0.2,1.1l0.9-0.7c0.6-0.4,1.1-0.9,1.7-1.3
	c1.5-1.3,3-2.4,4.7-3.3c2.5-1.3,4.7-1.9,6.8-1.9c1.7,0,3.4,0.4,5,1.2c1.4,0.7,2.6,1.5,2.6,3.1c-0.1,1.5-1.5,1.9-2.9,2.4
	c-6,2.1-11.5,5.6-17.2,11.3c-1.8,1.8-3.6,3.8-4.5,6.8l-0.2,0.6l0.6-0.1c1-0.2,1.6-0.8,2.1-1.3l0.3-0.2c0.8-0.7,1.6-1.5,2.4-2.2
	c1.3-1.2,2.6-2.5,4-3.6c2.9-2.4,6.3-4.9,10.7-4.9c0.1,0,0.2,0,0.4,0c1.4,0,2.7,0.1,3.2,1.3c0.5,1.2,0.3,2.4-0.7,3.8
	c-1.7,2.3-4.1,3.7-6.4,5.1c-1.2,0.7-2.4,1.3-3.5,1.9c-2.3,1.2-4.7,2.4-6.8,4l-0.3,0.2c-1.2,0.9-2.9,2.2-1.9,4.2
	c0.6,1.4,1.9,1.5,2.8,1.5c0.4,0,0.8,0,1.3-0.1c0.2,0,0.4,0,0.6-0.1c2.2-0.2,4.4-0.7,6.5-1.2c1.7-0.4,3.5-0.8,5.2-1
	c1.1-0.1,2-0.2,2.9-0.2c3.3,0,5.8,1,7.7,3.2c0.6,0.7,0.9,1.5,0.7,2.1c-0.2,0.7-0.9,1.3-1.9,1.7c-1.6,0.5-3.3,0.6-4.6,0.6
	c-0.5,0-1.1,0-1.6,0l-1,0c-0.3,0-0.6,0-0.8,0c-5,0-8.4,2-10.5,6.2l-0.3,0.6l0,0c-0.9,2.1-1.7,4.2-2.5,6.2c-1.3,3.4-2.7,7-4.3,10.4
	l-0.7,1.4c0,0,1.9-1.3,2.2-1.5c1.6-1,3-2,4.3-3.4c0.6-0.7,0.9-1.3,0.9-2.1c0-3.5-0.1-7.4,1-11.2c0.4-0.1,0.7-0.4,0.9-0.6
	c0.1-0.1,0.1-0.1,0.2-0.2C123.7,120.3,126.6,119,129.4,119z M46.6,197.7c-0.1,0.4-0.1,0.7-0.2,1l0,0.1c-0.1,0.4-0.2,0.7-0.2,1.1
	c-1.4,8,0.4,13.7,5.7,17.7c3.4,2.6,6.6,3.9,9.8,3.9c2.1,0,4.3-0.6,6.5-1.7c4.8-2.4,8.4-6.4,11.5-9.8c1.8-2,3.9-4.4,5.4-7.6l0.4-0.8
	l-0.8,0.2c-2.1,0.6-3.9,1.5-5.6,2.3c-0.7,0.3-1.3,0.6-1.9,0.9c-4.7,2.1-9.8,4-15.4,4c-0.4,0-0.7,0-1.1,0c-5.1-0.2-8.8-2.6-11.3-7.3
	c-0.4-0.8-0.8-1.6-1.1-2.4c-0.2-0.6-0.5-1.2-0.8-1.8l-0.5-1.1L46.6,197.7z M271.1,192.8c-1.3,0-2.7,0.6-4.3,1.7
	c-2.4,1.8-4.2,4.3-5.8,6.7l-0.4,0.6c-0.1,0.1-0.2,0.3-0.3,0.4c-0.4,0.4-0.8,0.9-0.8,1.7c0,3.7,0.5,7.9,3.9,11.4
	c1.7,1.8,3.9,2.8,6.2,3.9l0.1,0.1l0.1-0.1l0.4-0.4l-0.6-0.7c-0.4-0.5-0.9-1-1.2-1.6c-1-1.4-1.1-3.7-0.2-5.1c0.9-1.5,2.2-2.6,3.4-3.6
	l0.6-0.5c1.3-1.1,2.6-2.2,3.6-3.6c1.9-2.7,1.5-6.7-1-9.1C273.6,193.3,272.4,192.8,271.1,192.8z M98.6,95.2c-0.8,0-1.3,0.4-1.7,0.8
	c-0.2,0.1-0.3,0.3-0.5,0.4c-2.3,1.3-4.7,2.5-7.2,3.6c-5.9,2.6-7.7,7.8-9,12.9c-0.6,2.5-1.3,5-1.9,7.6l-0.1,0.4
	c-0.7,3-1.5,6.1-2.3,9.1c-2,7.8-5.5,15.5-10.7,23.7c-1.1,1.7-2.1,3.3-3.2,5l-0.1,0.2c-3.4,5.2-6.9,10.5-9.5,16.2
	c-1.2,2.6-2.6,5.6-3,8.9l-0.2,1.5l0.9-1.2c0.5-0.7,0.9-1.4,1.3-2l0.2-0.3c3.2-5.4,6.4-10.6,10.9-14.8c1.9-1.8,3.7-3.2,5.6-3.2
	c1.2,0,2.5,0.6,4,1.9v0.2l0.4,0.1c0,0,0,0,0,0c0.1,0,0.2,0,0.3,0l0.3-0.1l0.1-0.3c0-0.3,0-0.5,0-0.8l0-0.1c0-0.2,0-0.4,0-0.6
	c0.2-4.3,1.3-7.9,3.4-11c1.7-2.5,3.4-3.6,5.5-3.6c0.1,0,0.3,0,0.4,0l0.1,0c0.9,0,1.5-0.4,1.9-1.2c1.9-3.6,4.4-6.7,6.8-9.8
	c0.7-0.9,1.4-1.7,2-2.6c4-5.2,5.6-10.1,4.9-15.6c-0.4-3.2-0.7-6-0.8-8.6c-0.2-5.2,0.3-10.6,1.5-16l0.1-0.5L98.6,95.2z M76.1,173.4
	c0.5,1.7,1.2,3.4,2.6,4.9c3.5,3.9,8,5.7,13.8,5.7h0.2c2.6,0,4.4-1.1,5.6-3.5c1.6-3.1,2.4-6.4,3.3-9.7c0.3-1.1,0.6-2.1,0.9-3.2
	l0.2-0.8l-0.8,0.3c-0.7,0.3-0.9,0.7-1.1,1.1c-0.1,0.1-0.1,0.2-0.2,0.3c-1.6,2.5-3.2,5-5.5,7c-2.3,2-4.6,3-6.9,3
	c-1.2,0-2.5-0.3-3.8-0.8c-2.7-1.2-5.1-2.8-7.7-4.7l-1-0.7L76.1,173.4z M323.4,163.6c0.8,0,1.5,0.4,1.7,1.1c0.4,1.2,1.3,1.7,2,2.2
	l0.3,0.2c0.4,0.2,0.7,0.5,1.1,0.7c0.8,0.5,1.5,0.9,2.2,1.4c3,2.4,5.9,4.9,8.9,7.3l0.2,0.1c2.1,1.7,4.2,3.5,6.3,5.2
	c0.1,0.1,0.2,0.2,0.3,0.3c0.4,0.4,0.8,0.8,1.3,0.8c0.2,0,0.4-0.1,0.5-0.2c1-0.5,1.2-1.6,1.4-3l0-0.1l0-0.1c-0.2-0.3-0.3-0.6-0.5-0.9
	c-0.4-0.9-0.9-1.8-1.7-2.6c-4.4-4.2-8.2-7.4-12.2-10.2c-5-3.6-9.6-6.2-14.3-8.2c-0.1,0-0.2-0.1-0.3-0.1c-0.2-0.1-0.5-0.3-0.8-0.3
	c-0.4,0-0.7,0.2-0.9,0.6c-0.6,0.9-1.2,1.7-1.9,2.5l-0.4,0.5c-0.3,0.4-0.4,0.7-0.3,1c0.1,0.2,0.2,0.4,0.7,0.5c0.5,0.1,1,0.4,1.5,0.6
	c0.8,0.4,1.7,0.8,2.7,0.8c0.4,0,0.9-0.1,1.3-0.2C322.8,163.6,323.1,163.6,323.4,163.6z M204.7,100.7c-0.1,0-0.3,0-0.5,0
	c-3.2,0.2-6.2,1.3-9.2,2.3l-1.1,0.4c-2.1,0.7-3.2,1.9-3.9,4c-0.6,1.9-1.4,3.8-2,5.6c-0.7,1.9-1.5,3.9-2.1,5.8
	c-2,5.9-3.2,11.2-3.5,16.4c-0.4,6.1,0.1,12.4,1.6,20.7c1.5,8.4,3.9,16.5,7.3,24.7l0.4,1.1l0.3-1.1c0.7-2.6,1-5.2,1.3-7.7
	c0.1-1,0.2-2,0.3-2.9c0.8-5.7,1.6-11.6,2.5-17.4c1.1-7.1,2.5-14.2,4-21.1c1.8-8.1,3.5-14.6,5.3-20.7l0.2-0.5c0.6-2,1.3-4.1,1.5-6.4
	c0.1-1.2-0.1-2-0.5-2.5C206.2,100.9,205.6,100.7,204.7,100.7z M325,167.8c-0.7,0-1.2,0.5-1.6,0.9c-3.7,3.8-7.1,5.9-11,6.8
	c0,0-0.1,0-0.2,0c-0.3,0-0.9,0.1-1,0.8c-0.1,0.6,0.4,1,0.7,1.2c1.3,1.1,2.9,1.2,4.1,1.2l0.4,0c1.7-0.1,3.7-0.3,5.6-1
	c3.2-1.2,6.5-2.3,9.8-3.4c0.4-0.1,0.9-0.4,1-0.8c0.1-0.4-0.3-0.8-0.6-1c-2-1.7-4.2-3.1-6.4-4.4C325.7,167.9,325.3,167.8,325,167.8z
	 M302.4,140.6c-0.3,0-0.5,0.1-0.7,0.3c-0.5,0.5-0.3,1.2-0.1,1.6l0.1,0.1c1.3,2.9,3.3,5.1,6.1,6.4c2,1,4.1,1.5,6.2,2l1.3,0.3
	c1.2,0.3,2.1,0.6,2.1,1.5c0,1.3,0.7,1.6,1.3,1.9l0.2,0.1c3.8,1.6,7.9,3.5,11.6,5.9c7.7,4.8,13.3,9.3,17.9,14.3
	c0.2,0.3,0.5,0.6,0.7,1c0.6,0.8,1.1,1.5,1.7,1.5c1.2-0.1,1.6-1.3,2-2.2c0.1-0.3,0.2-0.6,0.4-0.8c0.2-0.5,0.5-1,0.8-1.4
	c1.1-2,2.2-4,2.3-6.8c0.2-1.3-0.5-2.7-2.1-4c-3.8-3-7.9-6.3-12.1-9.4c-8.2-6.2-16.9-9.3-26.6-9.6c-4-0.1-8.1-0.5-11.9-2.4
	C303.1,140.8,302.8,140.6,302.4,140.6z M320.8,165.9c-0.2,0-0.3,0-0.5,0.1l-0.6,0.2c-0.5,0.2-1.1,0.4-1.6,0.6
	c-2.3,1-4.9,2.5-6.5,5.2c0,0.1-0.1,0.1-0.1,0.2c-0.2,0.3-0.5,0.9,0,1.4c0.2,0.2,0.4,0.2,0.7,0.2c0.3,0,0.5-0.1,0.8-0.2
	c2.9-1,5.7-2.7,8.8-5.4c0.2-0.1,0.4-0.4,0.6-0.7l0.4-0.5l-0.4-0.4C321.8,166.3,321.4,165.9,320.8,165.9z M314.7,163.7
	c-0.7,0-1.3,0.3-2,1c-0.8,0.8-1.5,1.4-2.1,1.7c-2.1,1.1-2,2.9-1.6,4.9l0.2,1.1l0.6-0.9c1.8-2.9,4.2-4.4,7.2-6.1l0.5-0.3l-0.5-0.4
	C316.1,164,315.4,163.7,314.7,163.7z M307,161c-0.6,0-1.1,0.2-1.6,0.7L305,162c-1,1-2.1,1.9-2.7,3.3c-0.4,0.8-0.4,1.4-0.1,1.8
	c0.3,0.4,0.8,0.6,1.6,0.6l0.2,0c2.9,0,3.8-2.1,4.3-4c0-0.1,0.1-0.3,0.2-0.4c0.2-0.3,0.5-0.7,0.4-1.1c-0.1-0.3-0.2-0.5-0.6-0.8
	C307.9,161.2,307.4,161,307,161z M278.9,145.8c-0.8,0-1.4,0.7-2.8,2.4c-0.3,0.4-0.7,0.9-1.1,1.4c-1.3,1.6-1.1,2.9,0.6,4.3l0.5,0.4
	c1.3,1.1,2.6,2.2,4.1,3.2l0.3,0.2c2,1.4,4.1,2.8,6.7,3.2c0,0,0,0,0,0c0.9,0,1.6-0.2,2.3-0.6c1.1-0.6,2-1.5,2.9-2.4
	c0.3-0.3,0.6-0.6,0.9-0.8c0.6-0.5,0.9-1,0.9-1.5c-0.1-0.5-0.4-0.9-1.2-1.3c-2.1-1.2-4.2-2.6-6.3-3.9c-1.2-0.8-2.4-1.5-3.6-2.3
	c-0.8-0.5-1.3-0.9-1.8-1.2C280,146.2,279.5,145.8,278.9,145.8z M85.4,152.5c-0.6,0-0.9,0.5-0.9,1.4c-0.1,2.4,1.2,4.1,3.7,4.8
	c2.2,0.6,4.4,0.9,6.6,1.2c1.6,0.2,3.2,0.5,4.8,0.8c0.1,0,0.3,0,0.4,0c0.6,0,1.1-0.4,1.4-1c1.4-3.5,3-7.3,4.8-11l0.1-0.1l-0.6-0.4
	l-0.1,0.1c-3.2,2.7-6.4,5.3-10.1,6.9c-1.2,0.5-2.3,0.8-3.2,0.8c-1.2,0-2.2-0.4-3.2-1.1c-0.4-0.3-0.9-0.7-1.3-1
	c-0.5-0.4-0.9-0.7-1.3-1C86,152.7,85.6,152.5,85.4,152.5z M315.6,155.5c-1.7,0.2-2.9,1-4,1.7c-0.6,0.4-1.1,0.7-1.6,1
	c-0.5,0.2-0.8,0.5-0.9,0.8c0,0.2,0,0.4,0.2,0.7c0.2,0.3,0.5,0.5,0.9,0.5c0.3,0,0.6-0.1,0.9-0.4c0.9-0.7,1.9-1.4,2.9-2.2l3-2.3
	L315.6,155.5z M301,149.2c-0.6,0-1,0.4-1.3,1.1c-0.3,1.3-1,2.4-1.8,3.4c-0.2,0.3-0.4,0.7-0.3,1c0.1,0.4,0.5,0.6,0.8,0.8
	c1.5,0.6,2.9,1.3,4.4,2c0,0,1.6,0.7,2.4,1.1c0.3,0.1,0.6,0.2,0.8,0.2c0.3,0,0.6-0.1,0.9-0.3c1.3-1,2.7-1.9,4.1-2.9l1.6-1.1l-0.7-0.3
	c-0.8-0.4-1.6-0.7-2.4-1c-2.7-1.1-5.3-2.2-7.8-3.7C301.5,149.3,301.3,149.2,301,149.2z M110.4,65.1c-0.8,1.1-1.1,2.3-1.3,3.4
	c-0.1,0.4-0.2,0.8-0.3,1.2l-0.4,1.1c-0.8,2.6-1.7,5.3-2.1,8c-0.5,3.5-1.3,6.5-2.6,9.2c-0.2,0.5-0.5,1-0.8,1.5
	c-0.6,1.2-1.3,2.5-1.7,4c-0.8,3.4-1.6,6.7-1.9,10.1c-0.6,6.2,0,12.2,0.5,16.8c0.4,3.2,0,6.4-1.1,9.5c-1.2,3.4-3.5,6.2-5.7,8.9
	c-0.5,0.6-1,1.3-1.5,1.9l-0.6,0.8c-1.8,2.3-3.7,4.7-4.9,7.4c-0.3,0.6-0.7,1.4,0.4,2.2c0.8,0.6,1.6,1.2,2.4,1.8l0.8,0.6
	c0.7,0.6,1.5,0.8,2.4,0.8c0.6,0,1.3-0.2,2.1-0.5c4.3-1.8,7.7-4.7,10.7-7.5c5.7-5.3,8.6-12.1,10.7-18.1l0.1-0.3
	c1.1-3.1,2.2-6.3,4.3-8.9c3-3.7,7.4-4.3,10.9-4.4c0.2,0,0.5,0,0.7,0l1.6,0c1,0,2.2,0,3.3-0.2c0.1,0,0.1,0,0.2,0
	c0.4,0,1.2-0.1,1.3-0.8c0.1-0.7-0.5-1.1-0.8-1.3l-0.2-0.1c-1.7-1.2-3.6-1.8-5.5-1.8c-0.5,0-1.1,0-1.6,0.1c-2.7,0.4-5.4,1-7.9,1.5
	c-1.5,0.3-3.1,0.6-4.6,0.9c-0.6,0.1-1.1,0.2-1.6,0.2c-1.7,0-3.1-0.5-4.3-1.6c-0.8-0.7-1.2-1.6-1.1-2.6c0.1-1.5,1-3.1,2.6-4.3
	c2.3-1.8,4.9-3.2,7.2-4.4l0.9-0.5c2.8-1.4,5.8-2.9,8.1-5.3l0.2-0.2c0.7-0.7,1.6-1.5,1.2-2.6c-0.2-0.6-0.7-0.9-1.4-0.9
	c-0.3,0-0.5,0-0.8,0.1c-0.3,0-0.5,0.1-0.7,0.1l-0.2,0c-0.5,0-1,0.2-1.4,0.3l-0.4,0.1c-3.9,1.4-7,4-9.8,6.6l-0.9,0.9
	c-1.7,1.6-3.4,3.3-5.5,4.5c-0.5,0.3-0.9,0.4-1.3,0.4c-0.9,0-1.4-0.8-1.5-2c-0.1-1.8,0.9-3.4,1.8-4.7c3.6-5.2,8.7-8.9,13.2-11.8
	c2.4-1.6,5-2.6,7.9-3.8c0,0,0.1,0,0.2-0.1c0.4-0.1,1.1-0.3,1-1.2c0-0.7-0.6-0.9-1-1.1c-0.1,0-0.2-0.1-0.2-0.1c-1.2-0.7-2.5-1-4-1
	c-3.1,0-6,1.2-9.1,3.7c-1.2,0.9-2.2,2-3.2,3.1c-0.6,0.6-1.1,1.2-1.7,1.7c-0.4,0.4-0.9,0.9-1.4,0.9c-0.2,0-0.3,0-0.5-0.1
	c-0.7-0.4-0.8-0.9-0.6-2.1l0.4-1.5c0.2-1,0.5-2,0.7-3c1.5-5.6,1.7-10.4,0.7-15.2l-0.2-0.9L110.4,65.1z M293.8,137.6
	c-0.3,0-0.6,0.1-0.9,0.4c-0.3,0.2-0.5,0.5-0.5,0.7c-0.1,0.4,0.2,0.7,0.4,0.9c0.1,0.1,0.1,0.1,0.2,0.2c1,1.4,2.2,2.5,3.5,3.5l1,0.8
	l-0.4-1.2c-0.5-1.8-1.2-3.3-2.1-4.6C294.7,138,294.4,137.6,293.8,137.6z M269.8,116.5c-3.5,0-6.8,0.9-9.8,2.8
	c-1.9,1.2-3.3,3-3.9,5.3c-0.7,2.5-0.1,5.5,1.6,8.2c1.8,2.9,4.6,5,7.4,5.6c4.4,0.9,8.3,2.2,11.9,4c0.4,0.2,0.8,0.3,1.1,0.3
	c0.4,0,0.8-0.2,1-0.5c0.5-0.5,1.1-1,1.7-1.4c0.9-0.7,1.9-1.4,2.6-2.5l0.3-0.4l-0.5-0.2c-2.2-0.7-3.3-2.3-3.3-4.5
	c0-3.4-0.1-7-1.2-10.4c-1.3-4-3.7-6-7.7-6.3C270.7,116.5,270.2,116.5,269.8,116.5z M159.2,26.7c-0.6,0-1.1,0.2-1.6,0.5
	c-0.3,0.2-0.6,0.4-1,0.7c-1.2,0.8-2.4,1.7-3.3,2.8c-3.9,4.6-6.6,8.6-8.7,12.6c-3.9,7.4-6.5,13.9-6.3,21.9c-0.2,3.2,0.5,7,2.1,10.8
	c3,7.4,8.3,13.3,15.9,17.6c6.6,3.7,12,5.4,17.3,5.4c1.5,0,3.1-0.1,4.6-0.4c5.3-1,8.9-4.7,9.1-9.4c0.1-2.3-0.2-4.5-2.6-5.7
	c-0.6-0.3-1.2-0.4-1.8-0.4c-1.6,0-2.8,1-4,2c-1.5,1.2-3,2.2-4.9,2.3l-0.1,0c-1,0-2.2-0.3-2.8-1.5c-0.4-1-0.1-1.9,1.1-2.8
	c1.6-1.3,3-2.3,4.3-3.2c0.8-0.6,1.2-1.1,1.3-1.7c0.1-0.6-0.2-1.2-0.8-1.8c-0.7-0.7-1.3-1.6-2.1-2.8c-0.9-1.5-0.8-3,0.4-4.5
	c0.6-0.7,1.3-1.3,2.1-2c0.3-0.2,0.5-0.4,0.8-0.7c1-0.9,1.7-1.6,1.7-2.4c0-0.8-0.6-1.5-1.5-2.4c-1.1-1.1-2.4-2.1-3.5-3.1
	c-1.1-0.9-2.2-1.9-3.3-2.8c-4.8-4.4-4.4-6.6-1.1-10.6c2-2.4,2.4-5.3,1.1-8.5c-2.2-5.7-7.1-8-11.5-9.5
	C159.7,26.7,159.5,26.7,159.2,26.7z M520.7,84.3c-6.8,0-13.4,1.9-19.4,5.5c-2.4,1.4-5.4,3.5-7.8,6.4l-0.1,0.1l0.5,0.6l0.1-0.1
	c12.1-7.6,25.9-8,39.1-8.3l1,0l-0.8-0.7c-2.8-2.4-6.1-3.1-8.7-3.3C523.3,84.4,522,84.3,520.7,84.3z M183,81.2c1,0,2.1,0.4,3.2,1.1
	c0.6,0.4,1,1,1.5,1.5c0.3,0.4,0.6,0.7,0.9,1.1l0.6,0.6l0.1-0.9c1.6-16.8-3.3-32.4-15.2-49l-0.1-0.1l-0.7,0.3l0,0.2
	c1.1,4.2,0.2,7.9-2.7,11.2c-1.5,1.8-1.4,3.6,0.3,5.5c1.5,1.6,3.1,3,4.5,4.2l0.7,0.6c1.5,1.2,3.1,2.5,4.3,4.2
	c1.1,1.4,0.9,3.3-0.3,4.8c-0.5,0.6-1.2,1.1-1.9,1.7c-0.4,0.3-0.7,0.6-1.1,0.9c-1.1,1-2.2,2.3-0.7,4.2c0.7,0.8,1.3,1.7,1.8,2.5
	c0.2,0.3,0.5,0.7,0.7,1c0.8,1.1,0.7,2.1-0.3,3.1c-0.5,0.5-1.1,1-1.6,1.4l-0.3,0.2c-0.4,0.3-0.9,0.6-1.3,1c-1,0.7-2,1.4-2.8,2.5
	l-0.3,0.4l0.5,0.2c0.4,0.1,0.7,0.2,1.1,0.2c0.8,0,1.5-0.3,2.3-0.8c0.5-0.4,1.1-0.8,1.6-1.2c0.5-0.4,1.1-0.8,1.6-1.1
	C180.8,81.5,181.9,81.2,183,81.2z M471.8,53.8c-0.2,0-0.3,0-0.5,0.1c-1.5,0.4-4.1,3-4.2,4.5c-0.2,2.7-0.5,5.8-1,9.1
	c-0.2,1.3,0.1,2.3,0.9,2.7c0.3,0.1,0.5,0.2,0.8,0.2c0.7,0,1.4-0.5,1.9-0.9c3.3-2.8,4.9-5.9,4.6-9.7c0-0.2,0-0.5,0-0.7
	c0-1.5-0.1-3-1-4.4C473,54.4,472.6,53.8,471.8,53.8z M140.6,24.3c-8.3,0-14.5,1.1-20.2,3.6c-8.4,3.7-11.7,9.8-10.1,19.2
	c0.8,5,3.5,9.2,6.1,12.7c1.9,2.7,4.7,6.1,8.4,8.5l0.1,0.1c0.4,0.3,0.9,0.6,1.4,0.6c0.3,0,0.5-0.1,0.7-0.2c0.7-0.5,0.3-1.3,0.1-1.6
	c-0.1-0.1-0.2-0.3-0.2-0.4c-0.9-2.7-1.6-5.6,0.4-8.4c0.9-1.3,2-2.4,3.1-3.5c0.6-0.6,1.3-1.3,1.9-2c1.4-1.6,1.4-3.1,0.2-4.5
	c-2.8-3.4-2.5-6.6,0.9-9.8c4-3.9,8.6-6.7,14.1-10.1c0.4-0.2,0.8-0.4,1.2-0.6c1.2-0.5,2.4-1.1,3.3-2.4l0.3-0.5l-0.6-0.1
	c-2.5-0.4-4.8-0.6-7-0.6C143.2,24.4,141.9,24.3,140.6,24.3z M448.2,28.3c-0.3,0-0.5,0.1-0.6,0.3c-0.2,0.3-0.3,0.7-0.1,1.7
	c0.4,2.2,0.6,4.4,0.8,6.6c0.1,0.8,0.2,1.6,0.2,2.5c0.1,1.2,0.8,2.2,2.1,2.8c0.9,0.4,1.9,0.6,2.8,0.8c0.4,0.1,0.8,0.2,1.2,0.3
	c6.5,1.6,8.4,4.7,7.1,11.4c-0.2,1.2-0.4,2.5-0.5,3.7c-0.1,0.5-0.1,1-0.2,1.4l-0.1,1l0.9-0.7c2.2-1.7,4.5-3.4,4.1-6.8
	c-0.1-0.8-0.1-1.6-0.1-2.5c0-0.7,0-1.4,0-2.2c-0.3-5.4-2-9.6-5.2-13c-2.9-3.1-6.5-5-11-7C449,28.5,448.5,28.3,448.2,28.3z M440.3,19
	c-0.7,0-1.4,0.3-2,0.7c-0.6,0.5-0.9,0.9-0.8,1.3c0.1,0.4,0.4,0.8,1,1c1.3,0.6,2.7,1.2,4.1,1.8l1.5,0.6l0-0.6
	c-0.1-1.5-0.7-2.4-1.2-3.3C442.2,19.6,441.3,19,440.3,19z"/>
</svg>
