<svg width="517" height="263" viewBox="0 0 517 263" fill="none" xmlns="http://www.w3.org/2000/svg">
<g opacity="0.6" clip-path="url(#clip0)">
<path d="M91.3594 204.854C88.7261 205.622 86.7512 206.314 84.7031 206.928C80.0217 208.234 76.2181 205.622 75.9986 200.476C75.6329 193.025 75.8523 185.575 77.9736 178.354C79.3634 173.592 80.168 168.676 79.8022 163.607C79.6559 161.379 78.6319 159.305 78.4125 157.078C77.9736 152.008 77.5347 146.939 79.2171 142.023C80.4606 138.49 82.5818 136.032 86.3123 135.417C87.3363 135.264 88.3604 134.956 89.3113 134.649C90.9205 134.188 91.5057 132.883 91.7251 131.423C92.3835 127.967 91.2131 124.817 89.8233 121.822C88.0678 118.058 85.7271 114.525 84.191 110.607C82.3624 105.768 81.8503 100.929 84.5568 96.167C85.8734 93.8627 87.9947 92.6337 90.4085 91.8656C93.5538 90.7134 96.9185 90.5598 100.21 90.483C104.087 90.4062 107.891 89.8685 111.694 89.1772C119.74 87.641 127.421 84.799 134.882 81.1889C135.613 80.8816 136.125 80.1903 136.71 78.8077C134.37 79.4222 132.175 79.8831 130.054 80.5744C127.201 81.4961 124.275 82.0338 121.349 82.7251C116.01 84.0309 110.524 84.7222 105.111 85.5671C101.454 86.1816 97.65 86.412 93.9195 86.028C92.676 85.8743 91.3594 85.8743 90.0428 85.7975C86.3854 85.7975 84.5568 87.2569 83.6059 91.0207C81.4846 99.009 79.2171 106.92 77.2421 114.909C75.4134 122.206 74.9746 129.58 75.6329 137.107C76.2912 144.711 77.169 152.392 76.5106 159.997C76.0718 165.066 75.0477 170.059 73.9505 175.052C72.4876 181.273 71.3904 187.572 71.0247 194.024C70.5858 201.782 70.6589 209.616 71.6098 217.298C72.3413 223.442 73.5116 229.587 77.0227 234.887C78.8513 237.652 81.3383 239.342 84.5568 239.649C85.2151 239.726 85.8003 239.726 85.8734 240.648C85.9466 241.57 85.3614 241.954 84.6299 242.031C84.1179 242.107 83.5327 242.107 82.9475 242.107C56.1759 242.107 29.4042 242.107 2.6326 242.107C1.5354 242.107 -0.146973 242.491 -0.146973 240.802C-0.146973 239.112 1.5354 239.726 2.4863 239.726C26.771 239.726 51.1288 239.726 75.4134 239.726C76.1449 239.726 76.8032 239.726 77.9736 239.726C75.194 236.807 73.3653 233.812 72.1218 230.355C70.5126 225.977 69.6349 221.369 69.1228 216.683C68.4645 210.922 68.2451 205.161 68.3914 199.324C68.6108 191.95 69.4886 184.653 71.0247 177.433C72.6339 170.059 73.6579 162.531 74.3894 155.004C74.6088 153.007 74.2431 151.01 74.0968 149.013C73.6579 143.559 73.1459 138.106 72.9265 132.652C72.6339 125.816 73.6579 119.057 75.4134 112.528C77.3153 105.231 79.1439 97.9336 81.192 90.7134C82.5818 85.7975 84.7031 83.186 90.3354 83.57C94.7973 83.8005 99.2592 84.0309 103.721 83.3396C109.207 82.4947 114.693 81.7266 120.179 80.4976C125.153 79.4222 130.054 78.0396 134.882 76.7339C138.978 75.5817 142.781 73.8919 146.366 71.5107C147.024 71.0499 148.048 71.2035 148.414 70.3586C148.999 69.1296 149.657 68.0542 148.56 66.5948C146.073 62.9847 145.049 58.9138 145.488 54.3819C145.707 52.3849 146.219 50.6182 147.902 49.466C148.633 48.9284 148.706 48.3907 148.56 47.5458C147.536 41.3241 146.951 35.1024 147.243 28.7271C147.609 21.4301 149.73 15.1316 156.167 11.2911C159.02 9.60126 161.507 7.29694 164.067 5.06943C169.187 0.768027 175.185 -0.460945 181.476 0.0767303C195.081 1.22889 205.395 8.21867 212.71 20.2011C217.757 28.4967 218.781 37.5604 217.025 47.1617C215.489 55.6877 213.002 63.9065 211.466 72.4325C210.515 77.8092 209.345 83.1092 207.955 88.3323C206.126 94.7844 203.786 101.083 200.055 106.613C199.251 107.842 199.689 108.226 200.64 108.61C204.81 110.454 208.687 112.912 212.124 115.907C216.952 120.055 219.293 125.509 220.244 131.961C221.341 139.872 219.439 147.4 218.196 155.004C217.391 159.92 217.318 164.989 219.366 169.752C220.317 172.056 221.121 174.36 221.78 176.818C222.95 181.043 221.926 185.037 220.536 189.031C219.659 191.412 218.634 193.793 218.049 196.251C217.61 198.248 217.464 200.476 218.488 202.473C220.097 205.622 220.975 209.079 222.146 212.458C222.511 213.534 223.096 213.995 224.12 214.148C232.898 215.531 239.92 219.909 244.821 227.744C245.333 228.512 245.772 229.434 246.064 230.279C246.942 232.66 245.918 234.734 243.577 235.655C241.237 236.577 238.969 235.809 236.702 235.579C232.02 235.118 227.339 234.426 222.658 234.119C218.854 233.889 215.123 233.197 211.32 233.505C209.199 233.658 207.15 233.965 205.029 234.196C205.175 235.271 205.761 234.964 206.2 235.041C220.902 236.039 235.678 236.807 250.453 236.807C251.331 236.807 252.136 236.884 253.013 236.884C253.525 236.884 254.184 237.192 254.549 236.577C254.915 235.886 254.33 235.348 254.037 234.887C252.794 233.121 251.112 231.815 249.429 230.586C243.212 226.054 240.286 219.602 238.823 211.998C237.506 205.238 237.506 198.556 238.311 191.873C238.969 186.88 239.847 181.888 240.725 176.895C241.017 175.128 241.164 173.439 240.871 171.749C239.554 164.221 240.871 157.078 243.724 150.165C244.967 147.169 245.626 144.097 245.918 140.871C246.284 136.8 246.576 132.652 247.088 128.581C247.454 125.432 248.113 122.283 249.575 119.364C251.477 115.6 254.696 113.757 258.353 112.681C263.985 111.068 269.91 110.684 275.689 110.07C277.005 109.916 278.249 109.378 279.639 109.148C285.198 108.38 287.612 110.3 288.709 116.138C289.44 119.902 290.611 123.512 294.195 125.662C297.779 127.813 301.51 127.736 305.386 127.045C308.312 126.507 311.165 125.585 314.164 125.355C315.7 125.278 316.139 125.97 315.919 127.429C315.627 129.349 314.237 130.885 312.335 131.346C311.311 131.577 310.287 131.73 309.263 131.884C308.312 131.961 307.434 131.423 306.264 131.73C306.996 132.959 308.02 133.497 309.044 133.958C315.481 136.493 319.138 136.8 324.039 131.116C325.648 129.272 326.965 127.199 328.281 125.125C331.353 120.362 331.719 114.986 331.792 109.455C331.865 105.999 331.865 102.312 333.767 99.393C336.327 95.4757 336.693 90.867 338.449 86.7193C339.253 84.799 338.522 84.1077 336.62 84.6454C331.792 85.9511 329.159 82.9555 330.11 77.7324C330.622 74.8904 331.646 72.202 332.231 69.36C332.377 68.4383 332.524 67.5934 332.524 66.6717C332.451 64.6746 331.719 63.9065 329.817 63.8297C327.257 63.676 324.843 64.521 322.503 65.2122C317.163 66.9021 311.677 66.7485 306.337 65.9804C300.997 65.2122 295.804 63.676 292.074 59.0674C291.415 58.2993 291.123 58.5297 290.464 59.0674C288.124 60.834 287.027 63.3688 286.441 66.134C285.71 69.5136 285.71 72.8933 286.076 76.3498C286.441 79.9599 286.368 83.57 286.88 87.1033C287.392 90.2526 286.734 93.4018 286.149 96.4742C285.929 97.396 285.71 98.7785 284.466 98.5481C283.296 98.3177 283.515 97.0887 283.515 96.167C283.662 91.1743 283.516 86.2584 282.857 81.3425C282.126 76.3498 280.955 71.4339 280.004 66.4412C277.956 55.6877 279.712 45.6255 286.222 36.8691C288.855 33.3358 292.586 31.2619 296.389 29.5721C301.656 27.2677 306.922 25.1938 312.262 23.1968C317.968 21.0461 323.746 21.3533 329.305 23.8113C336.181 26.8837 341.667 31.7228 345.178 38.7894C346.934 42.3226 347.811 46.0864 348.177 50.0037C348.323 51.6936 348.616 53.4602 348.762 55.15C349.274 62.2934 347.153 68.8224 344.3 75.1208C344.008 75.6585 343.788 76.273 343.569 76.8875C343.203 77.8092 342.325 78.7309 342.545 79.7295C342.837 80.9585 344.227 80.1903 345.105 80.4976C346.348 81.0353 347.007 81.7266 347.08 83.186C347.372 87.7946 345.324 91.1743 342.106 93.9395C341.813 94.2467 341.521 94.554 341.082 94.7844C336.108 97.6264 336.4 102.235 337.644 106.844C339.765 114.602 339.253 122.206 337.424 129.81C336.547 133.497 336.035 137.261 335.523 140.948C334.864 146.324 333.987 151.701 333.328 157.155C333.109 159.152 332.963 161.226 332.889 163.223C332.67 170.827 331.865 178.354 332.524 185.959C332.597 186.573 332.377 187.418 333.255 187.725C334.206 188.033 334.572 187.265 335.084 186.727C339.253 182.272 342.837 177.202 346.275 172.056C350.883 165.143 355.053 158.076 358.491 150.472C359.588 148.091 359.222 146.555 357.247 144.942C354.321 142.484 350.737 141.562 347.299 140.256C345.836 139.719 344.373 139.104 342.91 138.336C341.521 137.645 341.448 136.569 342.033 135.34C343.057 132.959 345.178 132.038 347.299 131.193C348.031 130.885 348.835 130.732 349.567 130.425C351.761 129.503 351.981 128.888 350.81 126.584C349.201 123.281 346.495 120.9 344.227 118.212C342.179 115.831 340.424 113.373 339.765 110.147C339.253 107.535 340.35 106.383 342.837 106.997C347.811 108.303 352.858 109.302 357.832 110.377C362.514 111.376 367.122 112.604 371.877 112.989C374.364 113.219 376.85 113.526 379.337 113.68C380.947 113.757 382.337 114.371 383.653 115.216C385.482 116.368 386.579 118.212 386.652 120.593C386.872 124.664 386.067 128.658 385.336 132.652C383.726 141.946 382.995 151.394 382.995 160.842C382.995 168.215 381.312 175.128 379.337 182.118C378.021 186.88 378.752 189.338 381.532 191.72C382.922 192.872 383.58 192.718 384.385 191.028C385.701 188.263 385.628 185.267 385.189 182.349C384.75 179.507 384.458 176.588 384.385 173.746C384.311 163.991 384.019 154.159 384.823 144.404C385.189 140.103 385.409 135.801 387.53 131.961C389.139 128.965 390.163 128.888 392.211 131.577C394.259 134.265 394.991 137.414 395.357 140.64C395.942 146.401 398.063 151.394 401.867 155.542C406.694 160.918 408.596 167.601 409.84 174.591C410.864 180.505 412.766 185.882 417.081 190.107C421.616 194.562 424.25 200.399 426.224 206.467C427.249 209.616 428.858 212.458 429.809 215.685C431.93 222.982 431.198 229.971 427.98 236.731C427.761 237.115 427.541 237.499 427.395 237.883C427.175 238.267 427.029 238.651 426.737 239.189C427.395 239.649 428.126 239.419 428.858 239.419C456.946 239.419 484.961 239.419 513.049 239.419C513.488 239.419 513.927 239.342 514.366 239.419C515.244 239.573 516.707 238.881 516.707 240.418C516.78 242.107 515.244 241.8 514.147 241.8C484.742 241.8 455.337 241.8 425.932 241.8C425.054 241.8 424.176 241.954 423.591 241.032C423.006 240.11 423.884 239.419 424.25 238.805C428.053 232.737 429.736 226.284 428.419 219.064C427.761 215.608 426.298 212.535 424.981 209.386C423.225 205.161 421.909 200.783 419.641 196.789C418.983 195.637 418.178 194.638 417.301 193.64C413.936 190.107 410.571 186.496 409.181 181.504C408.157 177.74 407.28 173.976 406.475 170.136C405.524 165.297 403.549 161.072 400.404 157.462C396.088 152.546 393.528 146.862 393.016 140.103C392.796 137.952 392.211 135.725 391.041 133.727C390.748 133.267 390.456 132.575 389.871 132.652C389.359 132.729 389.066 133.42 388.92 133.958C388.042 136.416 387.603 139.027 387.31 141.639C386.798 146.555 386.506 151.471 386.579 156.463C386.652 162.839 386.579 169.214 386.652 175.589C386.725 177.97 387.018 180.352 387.384 182.656C387.896 186.42 387.676 190.107 385.701 193.409C387.676 194.485 389.797 194.562 391.772 194.792C395.43 195.253 399.087 195.33 402.671 196.021C406.402 196.712 409.986 198.018 413.058 200.399C414.96 201.935 415.252 203.241 414.155 205.161C413.204 206.928 412.107 207.235 409.913 206.314C407.353 205.238 404.646 204.624 402.306 203.011C401.94 202.78 401.428 202.473 400.916 202.78C400.916 203.779 401.793 204.086 402.306 204.624C404.719 207.312 407.133 210.077 408.816 213.303C410.132 215.838 410.132 217.298 408.742 218.296C407.279 219.371 404.28 218.757 403.037 216.837C401.793 214.916 400.843 212.843 399.819 210.845C396.746 204.624 392.065 200.169 385.628 197.788C383.799 197.096 381.824 196.559 379.85 196.712C377.509 196.866 375.461 197.711 373.925 199.708C373.413 200.399 373.193 200.86 374.071 201.551C375.388 202.704 376.119 204.24 376.339 206.006C376.485 207.082 377.143 207.696 377.801 208.387C380.215 210.922 382.849 213.15 384.677 216.299C387.603 221.369 390.383 226.438 392.504 231.892C393.308 233.889 393.894 236.039 393.894 238.267C393.894 241.954 391.699 243.874 388.188 243.336C385.555 242.952 383.141 241.723 381.02 240.187C376.412 236.884 371.218 235.118 365.879 233.658C362.806 232.89 362.221 231.431 363.757 228.205C365.366 224.825 367.488 221.753 369.39 218.603C371.218 215.608 372.974 212.689 373.852 209.232C373.925 208.772 374.364 208.311 374.071 207.927C372.681 206.16 372.096 203.395 370.56 202.243C368.073 200.322 364.708 199.477 361.49 200.63C359.515 201.321 359.076 203.395 359.003 205.392C358.783 210.615 359.661 215.761 359.881 220.984C360.027 225.055 359.588 228.896 357.906 232.583C357.247 233.965 356.516 234.196 355.272 233.505C352.054 231.738 348.543 230.97 344.959 230.355C341.74 229.741 338.668 228.896 335.376 229.51C334.864 229.587 334.426 229.664 334.06 229.971C330.11 233.581 325.282 234.657 320.235 234.887C315.846 235.118 311.604 236.116 307.361 236.961C300.047 238.421 293.61 237.115 288.489 231.047C284.759 226.592 279.712 224.748 274.372 223.519C272.324 223.058 270.203 222.444 268.228 221.676C266.326 220.984 265.96 219.909 266.838 217.912C267.935 215.377 269.91 213.611 271.958 212.074C272.763 211.46 273.568 210.922 274.445 210.538C277.371 209.232 278.176 205.008 277.079 202.627C276.42 201.167 275.104 200.553 274.153 201.628C271.739 204.624 268.301 205.853 265.009 207.082C261.791 208.234 258.499 209.386 255.135 209.77C253.233 210.001 252.794 209.386 253.16 207.466C253.891 203.779 256.305 201.782 259.45 200.399C262.742 198.94 266.326 199.324 269.691 198.556C269.91 198.479 270.13 198.479 270.642 198.402C269.032 197.327 267.423 197.02 265.814 197.02C262.376 196.943 258.938 196.943 255.5 196.866C254.476 196.866 253.379 196.943 253.087 195.714C252.867 194.638 253.745 194.024 254.476 193.409C256.232 192.104 258.28 191.796 260.328 191.566C263.766 191.182 267.131 192.027 270.569 192.488C271.812 192.641 272.031 192.488 271.812 191.105C271.373 188.494 271.007 185.805 270.934 183.117C270.861 179.583 269.032 176.511 267.935 173.285C265.96 167.217 263.327 161.456 261.498 155.388C260.84 153.237 261.498 151.317 262.742 149.627C263.693 148.321 265.009 148.168 266.18 149.32C268.667 151.624 269.691 154.85 270.642 158C272.543 163.991 273.056 170.213 272.836 176.434C272.763 179.583 273.421 182.502 274.226 185.498C274.738 187.418 275.25 189.415 275.03 191.336C274.665 194.254 276.347 196.328 277.444 198.633C277.664 199.017 278.029 199.324 278.468 199.324C281.102 199.631 283.589 200.553 286.222 200.783C288.563 201.014 290.464 199.862 292.513 199.017C292.951 198.786 293.39 198.556 293.829 198.402C294.634 197.941 296.024 198.018 296.024 196.789C296.024 195.406 295.804 193.947 294.195 193.102C292.22 192.104 290.903 190.414 290.464 188.109C290.026 186.036 290.464 185.344 292.513 185.344C294.195 185.344 293.683 184.115 293.537 183.347C292.805 179.891 291.562 176.665 289.952 173.515C286.588 167.063 283.735 160.304 280.955 153.621C279.273 149.627 279.273 147.553 283.369 144.635C286.734 142.177 286.661 141.101 283.223 138.797C281.394 137.568 279.273 137.107 277.152 137.03C275.762 137.03 275.177 136.262 275.469 134.956C276.786 127.122 278.395 119.364 283.442 112.989C284.393 111.76 283.808 111.529 282.857 111.452C281.687 111.376 280.516 111.299 279.419 111.529C274.592 112.528 269.691 113.296 264.79 113.757C261.572 114.064 258.353 115.062 255.281 116.445C251.843 117.981 250.6 121.284 249.722 124.741C248.698 128.965 248.405 133.267 248.186 137.491C247.893 143.022 246.723 148.245 244.748 153.314C243.065 157.539 242.115 161.994 242.553 166.602C243.139 173.208 242.48 179.66 241.09 186.112C239.628 193.025 238.969 200.169 239.92 207.159C240.725 213.534 241.895 219.986 246.43 224.979C248.259 227.053 250.526 228.589 252.574 230.355C254.184 231.815 255.866 233.274 256.598 235.502C257.036 236.961 257.914 237.268 259.231 237.268C270.422 237.268 281.687 237.345 292.878 237.422C293.39 237.422 293.829 237.422 294.341 237.422C295.292 237.499 296.462 237.115 296.828 238.421C297.194 239.573 296.024 240.034 295.365 240.571C291.927 243.567 288.416 246.409 284.978 249.404C284.32 250.019 283.662 250.249 282.857 250.249C268.813 250.249 254.769 250.249 240.798 250.249C239.481 250.249 238.823 249.481 237.945 248.79C237.36 248.329 236.994 248.099 236.482 248.944C233.63 253.552 229.021 255.473 224.34 257.009C219.439 258.622 214.465 259.928 209.491 261.31C201.226 263.614 193.033 263.461 184.841 261.003C178.55 259.083 172.406 256.701 166.042 255.088C162.165 254.09 158.142 253.859 154.192 253.706C148.853 253.475 146.658 250.249 146.439 245.487C146.219 241.109 147.317 236.961 148.853 232.967C149.804 230.509 150.901 228.051 151.559 225.439C151.852 224.211 151.413 223.442 150.535 222.828C148.414 221.215 146 221.829 144.61 224.057C141.465 229.28 139.417 234.81 139.49 241.032C139.563 244.028 140.221 247.023 140.88 249.942C141.026 250.71 141.392 251.478 140.806 252.17C140.148 252.938 139.344 252.477 138.612 252.246C135.394 251.171 132.102 250.557 128.737 250.326C123.763 249.942 118.716 249.712 113.815 248.406C107.305 246.716 100.722 245.487 94.2853 243.336C88.5798 241.416 83.7522 238.267 81.6309 231.892C79.8022 226.361 80.3143 221.061 82.5818 215.838C84.2642 212.074 86.678 208.848 89.7502 206.237C90.6279 205.93 90.8474 205.622 91.3594 204.854ZM139.856 94.7076C139.563 94.4003 139.417 94.2467 139.197 94.0931C137.222 92.7873 135.101 92.2496 132.834 92.0192C129.908 91.712 129.615 91.2511 130.785 88.4859C131.151 87.7178 131.444 86.9497 131.809 86.2584C131.956 85.9512 132.175 85.6439 131.956 85.4135C131.736 85.1062 131.444 85.2598 131.151 85.4135C128.225 86.7193 125.226 87.7178 122.227 88.7931C115.278 91.1743 108.183 92.4801 100.868 92.8641C97.9426 93.0177 95.0899 93.325 92.164 93.8627C86.166 94.938 84.0447 100.852 85.2151 106.076C85.8734 109.225 87.19 111.99 88.653 114.755C90.7011 118.749 92.9686 122.59 94.0658 127.045C95.3093 132.191 93.0418 136.416 88.1409 137.338C84.4105 138.029 81.9235 139.949 80.9726 143.943C79.8754 148.629 79.8022 153.314 80.8994 158C81.704 161.61 82.7281 165.22 82.0698 168.984C81.5578 172.286 81.0457 175.512 80.168 178.739C78.1199 185.805 77.9004 193.025 78.2662 200.322C78.4125 203.702 80.68 205.622 83.8253 204.931C85.3614 204.624 86.8243 204.009 88.3604 203.472C91.5057 202.396 94.5047 201.014 97.7963 200.476C99.8444 200.169 101.527 199.324 103.136 198.095C106.94 195.099 107.671 192.718 106.208 188.109C104.453 182.656 104.16 177.126 105.55 171.442C106.062 169.291 107.159 167.217 107.086 164.913C107.013 162.455 106.72 160.074 106.574 157.616C106.354 153.468 105.989 149.243 105.989 145.095C105.989 141.485 106.428 137.875 108.11 134.649C109.28 132.422 111.402 132.345 112.791 134.342C113.669 135.571 114.108 136.953 114.401 138.413C115.79 145.556 114.474 152.316 111.84 158.921C110.158 163.146 109.5 167.294 110.085 171.902C110.743 177.049 111.328 182.349 110.524 187.649C110.158 189.953 110.012 192.18 111.402 194.485C115.059 200.399 118.863 206.083 125.007 209.463C130.2 212.305 135.759 214.532 141.319 216.683C144.61 217.989 147.755 219.448 151.12 220.524C155.655 221.983 155.216 224.057 153.827 228.358C153.461 229.357 153.095 230.432 152.729 231.431C150.828 236.193 149.291 241.032 149.73 246.332C150.023 249.558 151.266 250.941 154.339 251.478C156.972 251.862 159.605 251.555 162.238 252.016C169.48 253.168 176.356 255.78 183.378 258.007C187.474 259.313 191.57 260.465 195.886 260.696C201.079 260.926 206.126 260.312 211.1 258.852C216.586 257.239 222.072 255.857 227.412 253.859C230.045 252.861 232.532 251.402 234.434 249.251C236.043 247.407 236.043 247.023 234.507 245.18C234.288 244.873 233.922 244.489 233.995 244.258C234.288 242.722 233.191 242.799 232.313 242.722C231.435 242.568 230.338 242.799 229.826 241.877C228.363 239.496 226.022 239.035 223.608 238.881C215.27 238.344 207.004 239.496 198.665 240.341C194.423 240.802 190.254 241.032 186.084 239.957C183.451 239.342 181.257 237.883 179.867 235.271C179.282 234.119 179.428 233.351 180.745 232.737C183.963 231.2 187.108 231.968 190.254 232.583C192.887 233.044 195.447 233.581 197.861 231.815C198.519 231.277 199.616 230.893 199.543 229.971C199.47 229.126 198.3 228.819 197.495 228.512C195.081 227.59 192.741 226.515 190.692 224.902C188.864 223.442 186.669 222.905 184.475 223.289C179.428 224.057 174.381 225.055 169.26 225.9C165.603 226.515 161.873 227.206 158.142 226.131C156.899 225.747 155.728 225.209 155.728 223.442C155.728 221.906 156.167 220.831 157.703 220.524C158.727 220.293 158.727 219.832 158.215 218.911C157.191 217.144 156.533 215.224 155.728 213.38C153.095 207.312 150.974 201.014 149.291 194.638C146.146 182.886 143.22 171.134 140.294 159.382C138.1 150.703 137.295 141.716 136.271 132.806C135.54 126.507 134.004 120.439 132.614 114.294C132.175 112.22 131.517 110.3 131.224 108.149C130.785 105 130.859 101.697 129.469 98.7785C128.884 97.6264 129.761 96.9351 130.712 96.7815C132.907 96.3206 135.101 95.5525 137.369 95.6293C137.881 95.3221 138.832 95.3989 139.856 94.7076ZM153.9 53.3066C153.827 54.5356 154.265 55.3037 154.631 56.1486C156.24 59.8355 157.191 63.5992 156.606 67.6702C156.533 68.2847 156.46 68.8992 156.752 69.5136C157.996 71.9716 158.362 74.5832 158.654 77.2715C158.947 79.499 159.532 81.6497 160.556 83.6468C161.873 86.1816 163.701 88.3323 165.311 90.7134C168.675 95.7061 171.821 100.929 176.283 104.923C179.867 108.149 183.597 111.145 188.791 110.223C192.302 109.609 195.813 108.457 198.007 105.615C202.03 100.468 204.151 94.1699 205.98 87.7946C207.955 80.8048 209.199 73.5846 210.735 66.4412C212.271 58.9138 214.538 51.6167 215.562 43.9357C216.44 37.5604 216.001 31.4155 213.441 25.6547C207.516 12.4433 197.568 4.45494 183.817 2.38105C176.721 1.3057 169.992 2.53467 164.36 7.91143C162.312 9.8317 160.117 11.5215 157.703 12.9809C155.509 14.3635 153.388 15.9766 152.217 18.4345C149.804 23.2736 149.584 28.4967 149.804 33.7967C150.316 33.5662 150.169 33.1822 150.242 32.9517C151.12 28.7271 152.291 24.5794 155.143 21.3533C158.069 18.0504 162.165 18.6649 164.287 22.6591C164.945 23.8881 165.164 25.3475 166.408 26.4996C165.896 23.6576 165.384 21.1229 164.872 18.5113C163.921 13.9795 165.164 8.98678 169.48 6.60564C175.99 2.99554 182.939 2.22743 189.668 4.99262C201.811 10.0621 211.174 18.2041 214.246 32.4141C215.27 37.0227 213.661 42.6299 210.442 44.8574C207.736 46.7009 204.59 46.8545 201.445 47.1617C199.324 47.3922 197.349 46.7009 195.228 46.4704C190.473 45.9328 185.938 44.3965 181.769 42.0154C178.77 40.3256 176.136 38.0212 173.064 36.485C170.285 35.1024 168.602 35.4865 167.066 38.1749C165.237 41.4009 164.652 45.1646 164.287 48.8516C164.067 51.0791 163.701 53.3066 162.97 55.4573C161.873 58.7601 158.581 59.3746 156.387 56.6863C155.509 55.9181 154.851 54.6892 153.9 53.3066ZM170.577 222.597C174.673 222.674 178.696 221.522 182.646 220.831C186.011 220.293 189.01 220.754 191.643 222.751C193.545 224.211 195.593 225.209 197.788 226.054C201.957 227.667 202.396 229.203 199.836 232.89C201.445 232.89 202.908 232.276 204.444 231.968C208.979 231.2 213.514 230.97 218.122 231.354C224.12 231.892 230.192 232.583 236.19 233.044C237.945 233.197 239.628 233.965 241.456 233.812C244.163 233.658 244.967 232.352 243.724 229.895C243.504 229.357 243.139 228.896 242.846 228.435C238.823 222.137 233.117 218.527 226.242 216.837C223.462 216.145 220.609 215.224 217.61 216.606C214.611 217.989 211.686 219.218 210.223 222.674C209.711 223.903 208.76 225.055 207.882 226.131C205.834 228.666 202.981 228.512 201.372 225.67C200.787 224.671 200.202 224.364 199.031 224.518C195.374 224.825 193.545 222.367 194.423 218.68C195.301 215.147 196.471 211.69 198.08 208.464C199.836 204.854 200.787 201.014 200.933 196.866C201.006 194.715 201.372 192.564 201.738 190.414C202.542 185.191 203.566 180.044 204.956 175.052C205.834 171.902 206.712 168.6 208.54 165.834C209.199 164.913 210.003 164.068 211.247 164.298C212.563 164.529 213.002 165.681 213.222 166.756C214.026 169.982 214.026 173.285 213.368 176.511C211.978 183.04 209.272 189.108 206.492 195.099C204.663 199.093 202.176 202.857 202.396 207.619C202.542 211.614 202.323 215.608 202.25 219.602C202.25 220.293 202.103 221.522 203.274 220.984C205.907 219.832 208.906 219.064 210.954 217.067C213.368 214.686 215.855 213.38 219.073 213.457C219.512 213.457 220.317 213.457 219.951 212.689C219.22 211.153 219.22 209.463 218.561 207.927C217.61 205.469 216.074 203.164 215.782 200.399C215.416 197.096 216.513 194.101 217.537 191.028C218.415 188.57 219.366 186.112 219.951 183.578C220.683 180.198 219.951 176.818 218.634 173.669C216.66 168.907 215.343 164.068 215.709 158.768C215.928 155.542 216.513 152.392 217.172 149.32C218.122 144.558 218.634 139.795 218.415 134.956C218.196 130.655 217.318 126.584 215.197 122.897C211.832 117.136 206.419 114.141 201.006 111.222C198.665 109.916 198.153 110.3 196.983 112.835C193.911 119.594 192.521 126.814 191.79 134.188C191.058 141.332 190.839 148.552 190.619 155.772C190.4 163.684 190.546 171.595 189.522 179.43C188.425 187.649 187.986 196.021 186.011 204.163C184.841 209.156 182.793 213.764 178.184 216.453C177.526 216.837 177.233 217.298 177.16 218.066C177.014 219.755 176.063 220.831 174.527 221.445C173.43 221.906 172.04 222.597 170.577 222.597ZM344.52 227.129C345.471 227.053 346.495 227.053 347.446 226.976C351.176 226.745 353.005 225.209 354.029 221.522C355.053 217.835 355.492 214.071 355.784 210.308C356.077 205.93 355.053 201.782 351.469 198.786C349.859 197.48 347.958 196.712 346.129 195.944C345.617 195.714 345.032 195.56 345.032 194.869C345.032 194.178 345.397 193.87 345.91 193.486C347.226 192.564 348.689 192.257 350.225 192.104C354.541 191.796 358.783 192.795 362.88 193.947C368.439 195.483 373.925 194.485 379.484 194.408C380.288 194.408 380.874 193.947 379.996 193.102C376.265 189.569 376.265 185.114 377.728 180.659C380.215 173.208 381.386 165.604 381.239 157.769C381.093 148.475 382.483 139.335 383.799 130.194C384.165 127.659 384.604 125.125 384.823 122.59C385.043 120.439 384.677 118.442 382.629 117.367C381.312 116.675 379.923 115.984 378.46 115.907C371.584 115.523 364.781 114.371 358.052 112.758C353.444 111.683 348.835 110.838 344.227 109.839C343.642 109.686 343.13 108.994 342.545 109.609C342.106 110.147 342.545 110.838 342.764 111.452C343.788 114.218 345.836 116.138 347.665 118.288C350.371 121.438 353.517 124.357 354.029 128.965C354.248 130.809 353.809 131.73 352.054 132.114C349.859 132.652 347.665 133.343 345.763 134.572C345.178 134.88 344.666 135.34 344.666 136.032C344.666 136.723 345.397 136.8 345.836 136.953C346.714 137.338 347.665 137.722 348.543 138.029C351.176 139.104 353.956 139.872 356.516 141.332C361.782 144.327 362.733 147.4 359.954 153.007C358.637 155.618 357.32 158.23 355.931 160.765C350.664 170.136 344.812 179.123 337.79 187.265C336.254 189.031 336.254 188.954 338.302 189.876C340.716 190.951 342.837 192.334 343.935 195.022C346.86 202.243 345.397 209.079 342.033 215.685C340.57 218.527 338.375 220.984 337.498 224.134C337.205 225.132 337.205 225.67 338.302 226.208C340.424 227.283 342.472 226.976 344.52 227.129ZM283.808 71.2035C283.954 69.8209 284.101 68.4383 284.247 67.0557C284.759 62.5239 286.661 58.7601 290.391 56.2254C291.488 55.4573 292.513 55.15 293.463 56.7631C294.049 57.8384 294.926 58.7601 295.95 59.5283C298.584 61.5253 301.51 62.5239 304.728 63.1384C309.263 64.1369 313.798 64.3673 318.406 63.676C321.991 63.1384 325.355 61.7558 328.94 61.4485C333.036 61.0645 335.45 63.5992 334.938 67.9774C334.645 70.3586 333.987 72.5861 333.255 74.8904C332.743 76.5034 332.377 78.1165 332.451 79.8063C332.524 82.2642 333.475 83.0323 335.742 82.4947C336.62 82.2642 337.498 81.8802 338.449 81.957C339.326 81.957 339.473 81.5729 339.692 80.9585C340.497 78.8078 341.228 76.5802 342.252 74.5832C345.617 67.8238 347.226 60.7572 346.495 53.0761C345.983 47.469 345.105 42.0154 341.96 37.2531C338.01 31.2619 332.67 27.0373 326.087 25.0402C321.844 23.8113 317.382 23.7344 313.067 25.4243C308.605 27.1909 304.143 28.804 299.754 30.6474C296.024 32.1836 292.293 33.7967 289.367 36.7923C284.174 42.169 282.272 49.0052 281.687 56.4558C281.321 61.4485 282.272 66.2876 283.808 71.2035ZM317.821 145.019C318.772 149.397 318.406 153.929 320.747 157.769C320.82 157.846 320.82 158 320.82 158.153C321.991 161.687 322.283 165.373 322.795 169.06C323.234 172.363 324.185 175.589 324.331 178.892C324.551 182.81 322.795 184.883 319.065 184.653C318.48 184.653 317.894 184.423 317.236 184.346C314.603 184.038 311.896 183.347 309.483 185.344C306.337 187.956 302.899 189.492 298.803 188.801C297.779 188.647 297.633 189.185 297.56 190.183C297.486 192.027 298.657 192.18 299.9 192.488C302.022 192.872 302.607 194.024 301.656 196.098C301.071 197.404 300.266 198.479 299.169 199.324C296.097 201.705 292.513 202.78 289.001 203.932C286.588 204.701 284.247 205.546 281.906 206.544C280.663 207.082 280.004 208.311 280.151 209.386C280.297 210.615 281.687 210.001 282.491 210.001C284.832 210.001 287.1 209.77 289.44 209.616C290.026 209.616 290.684 209.693 290.903 210.461C291.123 211.153 290.903 211.69 290.391 212.228C289.44 213.227 288.27 213.918 286.953 214.379C285.637 214.763 284.247 215.147 282.93 215.685C281.906 216.069 280.882 216.683 280.955 218.142C281.029 219.602 282.272 219.448 283.077 219.909C283.296 220.063 283.662 219.986 283.954 220.063C285.783 220.216 287.612 220.37 289.44 220.447C290.611 220.447 291.415 220.831 292 221.906C292.805 223.289 293.975 224.364 295.438 224.902C302.314 227.283 309.19 226.745 315.919 224.134C320.82 222.29 325.648 220.524 330.914 220.37C334.279 220.293 337.205 219.295 339.18 215.838C341.813 211.153 343.276 206.39 342.618 201.014C342.325 198.863 341.521 197.02 339.765 195.637C337.351 193.793 334.426 193.179 331.646 192.411C328.281 191.412 324.99 190.337 322.722 187.265C322.283 186.65 321.552 186.189 321.991 185.267C322.429 184.346 323.307 184.346 324.039 184.423C325.209 184.499 326.453 184.499 327.623 185.114C328.427 185.575 329.378 185.728 330.549 186.112C330.549 179.66 330.549 173.592 330.549 167.524C330.549 164.913 330.988 162.301 331.207 159.689C331.426 157.846 331.426 156.003 331.573 154.159C331.573 153.775 331.646 153.468 331.061 153.314C328.574 152.777 326.526 151.163 324.258 150.165C321.917 148.859 320.089 146.708 317.821 145.019ZM102.039 202.089C101.966 202.089 101.673 202.089 101.38 202.166C101.234 202.166 101.015 202.243 100.868 202.319C94.2853 205.546 88.2872 209.54 85.2151 216.837C82.7281 222.674 82.4355 228.435 85.8003 234.119C88.0678 237.883 91.5788 239.649 95.3825 240.955C98.8935 242.184 102.551 243.106 106.135 243.951C109.719 244.796 113.23 246.102 116.961 246.639C123.324 247.715 129.908 247.561 136.271 248.867C139.124 249.481 139.124 249.174 138.539 246.102C137.734 242.107 137.588 238.113 138.685 234.119C139.856 229.895 141.538 225.977 143.659 222.213C144.025 221.599 144.537 220.984 143.44 220.6C141.684 220.063 140.221 218.757 138.466 218.219C135.32 217.221 132.175 216.299 129.176 214.84C124.934 212.689 120.911 210.077 116.741 207.927C113.962 206.544 111.036 207.082 108.841 209.386C107.598 210.692 106.72 212.305 105.696 213.841C103.941 216.529 102.112 219.064 98.674 219.448C96.2602 219.679 95.5288 218.757 96.1871 216.222C96.2602 215.838 96.4065 215.531 96.5528 215.147C98.162 211.076 101.38 208.464 104.087 205.315C104.672 204.624 106.135 204.009 105.623 203.011C105.184 202.089 103.794 201.935 102.624 201.935C102.551 202.089 102.405 202.089 102.039 202.089ZM201.518 45.0878C202.689 45.2415 204.371 44.7038 206.053 44.4733C209.491 43.8589 211.612 41.7082 212.051 38.0212C212.563 33.8735 211.686 29.9561 210.003 26.2692C206.931 19.6635 201.957 14.8244 196.178 11.0607C189.303 6.52883 181.915 4.37813 173.869 7.37375C168.456 9.37083 166.627 11.2911 167.066 17.1287C167.139 18.0504 167.286 19.049 167.359 19.9707C167.651 22.8127 168.748 25.4243 168.895 28.2663C168.968 29.0344 169.187 29.8793 168.456 30.417C167.724 30.9547 166.92 30.5706 166.188 30.1097C165.311 29.4953 164.579 28.7271 164.14 27.7286C163.482 26.346 162.897 24.9634 162.165 23.6576C160.922 21.5837 158.581 21.3533 156.899 23.12C155.655 24.3489 154.997 25.8851 154.339 27.4982C151.925 33.1822 151.778 39.1734 151.998 45.2415C152.071 46.8545 151.925 48.3907 153.9 49.1588C154.558 49.3892 154.997 50.4646 155.509 51.1559C156.314 52.4617 157.045 53.7674 157.85 55.0732C158.289 55.8413 158.947 56.3022 159.825 56.1486C160.702 55.995 160.995 55.3037 161.141 54.5356C161.507 52.8457 162.019 51.2327 162.165 49.466C162.385 45.8559 163.116 42.3995 164.36 39.0198C166.042 34.6416 168.895 32.7981 172.772 34.0271C174.6 34.6416 176.209 35.5633 177.746 36.7923C184.475 42.2458 192.375 44.7038 201.518 45.0878ZM158.874 215.685C159.093 215.3 159.166 215.224 159.166 215.147C159.02 208.234 158.069 201.475 157.264 194.638C156.387 186.88 155.436 179.123 154.704 171.288C153.9 162.147 153.68 152.93 152.949 143.79C152.656 139.565 152.217 135.34 151.705 131.116C150.901 123.665 149.877 116.215 149.804 108.687C149.73 100.929 149.73 93.1714 149.072 85.4135C148.779 82.2642 148.706 79.115 147.39 75.9658C144.537 78.3469 141.684 80.4208 138.466 81.8802C135.759 83.1092 134.735 85.7207 133.272 88.1019C132.834 88.87 132.907 89.3308 133.931 89.7149C136.418 90.483 139.124 90.7134 141.099 92.7873C141.977 93.709 143.22 94.6308 142.708 95.9365C142.269 97.1655 140.733 97.1655 139.563 97.396C137.295 97.78 134.882 97.4728 132.687 98.3177C131.883 98.6249 131.59 98.8554 131.809 99.7771C132.321 102.158 132.687 104.539 132.907 106.997C133.053 108.687 133.053 110.531 133.638 112.144C134.735 114.986 135.467 117.981 136.198 120.9C138.027 128.197 138.539 135.725 139.417 143.098C139.929 147.016 140.368 151.01 141.245 154.85C142.781 161.61 144.61 168.215 146.292 174.898C147.682 180.428 149.072 186.036 150.535 191.566C151.705 196.021 152.949 200.553 154.412 204.931C155.728 208.618 157.338 211.998 158.874 215.685ZM161.946 208.157C161.946 211.69 162.677 214.532 163.189 217.451C163.336 218.066 163.628 218.527 164.506 218.373C167.724 217.758 170.87 217.067 173.869 215.915C174.966 215.531 175.185 214.916 175.185 213.764C175.185 208.387 174.893 203.011 174.966 197.557C175.112 188.647 175.917 179.891 176.941 171.057C177.746 164.145 176.941 157.462 175.917 150.779C175.039 145.172 173.796 139.719 174.161 133.958C174.308 132.114 174.454 130.732 172.04 131.807C171.821 131.884 171.528 131.884 171.309 131.73C169.553 130.732 169.041 131.961 168.675 133.343C167.651 137.645 165.896 141.716 164.506 145.864C162.312 152.239 160.556 158.845 159.898 165.604C158.874 175.512 159.605 185.498 160.702 195.406C161.214 199.861 161.58 204.317 161.946 208.157ZM319.065 182.272C321.698 182.349 322.503 181.427 322.137 178.662C321.917 176.741 321.405 174.898 321.186 172.978C320.528 167.985 319.869 162.992 318.48 158.076C317.675 155.158 317.382 155.004 314.676 155.234C314.164 155.311 313.725 155.311 313.213 155.311C311.531 155.158 311.019 156.079 310.872 157.692C310.58 160.688 310.58 163.684 309.995 166.679C309.117 171.288 308.312 175.897 307.508 180.582C307.288 181.734 307.361 183.27 305.971 183.194C304.728 183.117 305.021 181.427 304.947 180.428C304.655 177.279 304.435 174.053 303.704 170.904C302.607 166.142 301.144 161.533 299.608 156.924C299.023 155.158 298.949 152.853 297.34 151.855C294.926 150.395 294.268 148.245 294.122 145.633C294.049 144.404 294.268 143.252 293.756 142.023C292.147 138.029 291.635 133.881 291.562 129.58C291.562 128.351 291.196 127.352 290.538 126.43C288.27 123.512 286.661 120.286 285.344 116.752C285.198 116.368 285.198 115.907 284.759 115.831C284.247 115.754 284.027 116.215 283.881 116.599C280.955 121.745 279.346 127.506 278.395 133.343C278.249 134.265 278.688 134.572 279.492 134.649C282.857 135.033 285.564 136.646 287.904 139.258C288.928 140.41 289.001 141.485 288.27 142.714C287.319 144.404 286.002 145.71 284.466 146.785C282.93 147.861 282.345 149.243 283.003 151.087C285.344 157.769 288.416 164.068 291.488 170.366C293.61 174.744 295.731 179.046 296.389 183.962C296.609 185.728 297.486 186.036 298.803 186.42C302.314 187.418 305.094 185.882 307.727 183.731C309.629 182.195 311.75 181.427 314.237 181.657C315.919 181.888 317.456 182.041 319.065 182.272ZM177.526 214.148C178.477 213.457 179.135 213.15 179.72 212.535C183.305 208.772 184.182 203.779 184.987 198.863C185.645 195.176 185.865 191.489 186.377 187.802C187.474 179.737 188.352 171.672 188.425 163.453C188.498 153.007 188.791 142.484 189.888 132.114C190.034 130.655 190.839 129.196 190.4 127.583C190.18 127.659 189.961 127.736 189.888 127.813C187.547 130.962 187.035 130.655 184.402 127.429C184.182 127.199 184.109 126.891 183.89 126.584C182.354 124.357 181.622 121.668 179.94 119.517C179.647 119.133 179.501 118.212 178.77 118.596C178.258 118.826 178.55 119.517 178.477 119.978C178.331 122.052 178.843 124.049 178.55 126.123C178.258 127.736 177.16 128.812 176.795 130.348C175.405 136.493 176.795 142.484 177.672 148.475C178.696 155.081 179.867 161.61 179.282 168.369C178.989 171.518 178.77 174.668 178.404 177.74C177.672 184.73 177.38 191.72 177.014 198.709C176.941 203.779 177.526 208.772 177.526 214.148ZM151.705 92.4033C152.144 97.0119 151.413 101.697 151.925 106.383C152.217 109.148 151.925 111.913 152.217 114.678C153.022 123.588 154.046 132.575 154.924 141.485C155.509 147.784 155.802 154.159 156.167 160.534C156.387 164.682 156.24 168.83 157.411 172.978C157.411 168.753 157.777 164.682 158.435 160.611C159.605 154.082 161.653 147.861 163.628 141.639C164.945 137.414 167.798 133.497 166.335 128.504C164.945 123.742 164.14 121.515 158.947 122.206C158.581 122.283 158.215 122.283 157.85 122.283C156.387 122.283 155.948 121.668 156.679 120.286C157.63 118.519 158.874 117.136 160.629 116.215C163.336 114.755 166.261 114.218 169.26 114.064C171.235 113.91 173.137 113.757 175.039 113.219C173.796 112.989 172.625 113.065 171.382 112.989C165.823 112.758 161.141 110.684 157.776 105.922C154.924 101.774 153.095 97.1655 151.705 92.4033ZM389.359 241.263C391.626 241.339 392.504 240.034 392.138 237.729C391.407 233.735 389.724 230.125 388.042 226.438C385.482 220.754 382.263 215.685 377.875 211.383C376.704 210.308 376.265 210.231 375.826 211.998C375.534 213.303 374.802 214.609 374.144 215.838C371.803 219.909 369.463 223.903 367.049 227.897C364.854 231.431 364.928 231.738 369.316 232.66C373.998 233.658 378.094 235.886 382.19 238.267C384.385 239.649 386.579 241.263 389.359 241.263ZM283.954 212.689C281.979 212.535 280.078 212.458 278.249 211.767C278.029 211.69 277.737 211.844 277.517 211.921C274.372 213.227 271.739 215.147 269.764 218.066C269.032 219.141 269.325 219.755 270.569 220.063C272.178 220.447 273.714 220.984 275.323 221.292C281.467 222.598 286.953 225.132 291.269 230.279C295.438 235.271 301.071 235.963 306.776 234.81C312.847 233.581 318.918 232.737 325.063 232.045C328.647 231.584 331.426 229.587 334.133 227.437C335.815 226.054 334.938 223.673 336.181 222.06C334.938 222.213 333.767 222.444 332.67 222.521C328.208 222.982 323.819 223.366 319.65 225.286C312.847 228.512 305.606 229.203 298.291 228.128C295.658 227.744 292.951 226.668 291.269 224.364C290.245 222.905 289.075 222.521 287.539 222.521C285.564 222.521 283.589 222.598 281.76 221.753C280.443 221.138 279.127 220.6 278.907 218.834C278.688 216.913 279.419 215.454 280.809 214.302C281.687 213.534 282.784 213.227 283.954 212.689ZM292.805 240.264C281.175 239.803 269.764 239.88 258.28 239.419C257.695 239.419 257.183 239.496 256.817 240.034C254.988 242.261 252.428 242.952 249.795 243.413C246.284 243.951 242.773 244.565 239.189 244.565C238.384 244.565 237.579 244.949 238.384 245.794C239.408 246.947 240.505 248.099 242.334 248.099C255.647 248.022 268.886 248.099 282.199 248.022C282.784 248.022 283.589 248.099 283.954 247.715C286.953 245.257 289.879 242.722 292.805 240.264ZM336.108 115.139C334.938 116.138 334.426 117.06 333.987 118.135C332.67 121.13 331.792 124.357 330.768 127.506C328.647 133.42 324.551 136.8 318.772 138.029C317.163 138.336 315.554 138.336 313.652 138.567C315.481 140.026 317.017 141.178 318.48 142.484C321.771 145.403 325.063 148.321 329.232 149.935C330.11 150.242 330.476 150.319 330.768 149.243C332.67 141.946 335.011 134.803 335.523 127.199C335.596 123.204 336.62 119.441 336.108 115.139ZM171.016 110.454C162.165 102.005 158.435 91.0975 154.412 80.4208C153.973 80.5744 153.973 80.8816 153.9 81.1121C152.876 89.6381 154.412 97.5496 159.605 104.463C162.385 108.149 166.115 109.993 171.016 110.454ZM306.557 173.208C307.946 167.371 308.239 161.61 308.897 156.003C308.97 155.619 308.97 155.234 308.678 154.927C306.337 152.316 304.582 149.243 302.899 146.171C302.753 145.94 302.607 145.479 302.095 145.71C300.924 146.248 299.461 149.781 299.973 151.087C302.607 158.23 304.801 165.45 306.557 173.208ZM308.458 141.409C307.727 141.332 306.996 141.562 306.264 141.869C303.997 142.945 303.777 143.406 305.094 145.556C306.337 147.707 307.8 149.781 309.117 151.932C309.702 152.853 310.214 152.93 310.945 152.085C312.116 150.779 313.506 150.165 315.188 150.395C316.139 150.549 316.358 150.011 316.285 149.166C316.212 145.249 312.994 141.409 308.458 141.409ZM203.639 195.791C205.688 191.796 207.589 187.879 209.125 183.654C210.881 178.815 212.271 173.976 211.539 168.676C211.466 168.062 211.612 167.217 210.881 167.063C210.223 166.986 210.149 167.831 209.784 168.215C209.564 168.523 209.491 168.907 209.345 169.214C207.662 173.285 206.712 177.586 205.761 181.888C204.663 186.496 203.859 191.105 203.639 195.791ZM390.236 196.943C390.456 197.25 390.529 197.404 390.675 197.557C390.822 197.711 391.041 197.864 391.26 198.018C396.088 201.398 400.257 205.392 402.598 211.153C403.33 212.919 403.768 214.993 405.524 216.145C406.182 216.606 406.914 216.914 407.499 216.376C408.084 215.838 407.499 215.224 407.206 214.686C405.012 211.076 402.671 207.619 399.526 204.777C398.575 203.932 397.844 202.934 396.966 202.012C396.527 201.551 396.307 200.937 396.673 200.246C396.966 199.554 397.551 199.631 398.063 199.631C398.648 199.631 399.233 199.785 399.819 200.015C403.622 201.321 407.28 203.088 411.01 204.777C411.595 205.008 412.18 205.238 412.619 204.547C413.058 203.856 412.692 203.318 412.253 202.857C411.303 201.859 410.205 201.09 408.962 200.476C403.11 197.711 396.673 197.941 390.236 196.943ZM182.5 112.835C181.183 112.374 180.452 113.526 179.501 113.987C178.623 114.448 178.77 114.909 179.428 115.523C181.11 116.906 182.281 118.673 183.232 120.593C184.182 122.513 185.206 124.357 186.304 126.2C186.669 126.814 187.181 127.659 187.986 126.584C190.839 122.82 191.57 120.132 188.205 116.445C186.669 114.755 184.914 113.142 182.5 112.835ZM115.864 205.161C113.011 201.551 110.816 198.325 108.768 194.792C107.671 196.328 106.866 197.788 105.55 198.863C104.599 199.708 104.526 200.015 105.842 200.476C108.841 201.551 109.207 203.241 107.013 205.622C105.33 207.543 103.502 209.309 101.819 211.23C100.356 212.919 98.8204 214.532 98.4546 216.99C99.625 217.067 100.356 216.683 101.161 216.069C102.551 214.916 103.502 213.303 104.453 211.767C106.94 207.389 109.865 204.086 115.864 205.161ZM108.841 159.536C110.451 156.31 111.548 152.853 112.06 149.32C112.718 145.249 112.938 141.024 111.402 136.953C111.182 136.416 111.182 135.571 110.378 135.494C109.5 135.417 109.353 136.416 109.207 136.953C108.695 139.258 108.11 141.562 107.964 143.943C107.744 149.243 108.841 154.313 108.841 159.536ZM178.989 110.223C178.623 109.916 178.404 109.532 178.038 109.302C174.234 106.613 171.162 103.234 168.456 99.393C165.384 95.0916 162.824 90.4062 159.239 86.4888C160.263 89.1004 160.849 91.8656 162.238 94.2467C164.579 98.3177 166.627 102.465 169.773 105.922C172.26 108.61 174.82 111.222 178.989 110.223ZM357.32 203.779C358.71 199.554 360.466 198.095 364.05 198.095C365.952 198.095 367.853 198.402 369.609 199.17C371.657 200.092 372.608 199.17 373.413 197.02C369.17 197.711 365.147 196.943 361.197 195.944C357.467 195.022 353.736 194.024 349.421 194.715C353.151 196.866 355.931 199.554 357.32 203.779ZM296.682 138.029C296.316 140.871 296.316 143.406 297.706 145.71C297.925 146.094 298.291 146.862 298.584 146.478C299.681 144.865 301.436 143.636 301.875 141.562C302.168 140.103 302.607 138.874 303.631 137.875C304.07 137.491 304.362 137.107 303.631 136.8C301.583 135.878 299.535 134.803 297.706 133.497C296.828 132.883 296.682 133.497 296.682 134.265C296.682 135.648 296.682 136.953 296.682 138.029ZM270.934 173.362C271.373 170.213 270.715 167.447 270.349 164.759C269.837 160.995 268.886 157.385 267.204 154.005C266.619 152.853 266.107 150.703 265.009 151.24C263.62 151.855 263.985 154.005 264.278 155.619C264.717 157.846 265.887 159.766 266.692 161.84C268.228 165.45 269.179 169.368 270.934 173.362ZM204.225 237.038C203.639 236.884 203.054 236.807 202.469 236.654C200.933 236.116 198.739 236.884 198.08 234.426C198.007 234.119 197.568 234.35 197.276 234.503C194.935 235.655 192.521 235.348 190.107 234.81C187.84 234.273 185.572 233.889 183.232 234.119C182.793 234.196 182.354 234.196 182.134 234.657C181.988 235.118 182.5 235.271 182.719 235.502C184.256 237.115 186.231 237.576 188.352 237.883C193.618 238.574 198.885 237.499 204.225 237.038ZM253.599 239.342C246.211 239.112 238.823 238.881 231.435 238.728C231.143 238.728 230.557 238.574 230.63 239.189C230.704 239.803 231.216 240.11 231.801 240.187C233.63 240.341 235.239 240.878 236.702 242.107C237.067 242.415 237.506 242.415 237.945 242.415C241.895 242.107 245.845 241.723 249.795 241.109C251.185 240.725 252.355 240.264 253.599 239.342ZM171.894 129.58C173.796 129.58 174.893 128.581 175.185 126.584C175.332 125.432 175.405 124.203 175.844 123.204C176.648 121.438 175.917 120.055 175.039 118.749C174.6 118.135 174.161 117.06 173.357 117.213C172.479 117.367 172.26 118.442 171.967 119.21C171.016 121.822 170.65 124.51 170.285 127.199C169.919 128.965 170.285 129.58 171.894 129.58ZM271.812 201.167C267.57 201.244 263.4 201.167 259.523 203.164C258.353 203.779 257.329 204.547 256.671 205.776C256.451 206.16 256.159 206.621 256.451 207.005C256.744 207.389 257.256 207.235 257.695 207.159C258.499 206.928 259.304 206.621 260.109 206.39C264.205 205.161 268.228 203.932 271.812 201.167ZM160.19 119.594C163.848 119.441 166.188 121.13 167.505 124.433C167.578 124.741 167.505 125.125 167.944 125.125C168.456 125.125 168.456 124.664 168.456 124.28C168.602 121.822 169.334 119.517 170.358 117.29C170.87 116.215 170.358 116.215 169.626 116.215C167.212 116.138 164.872 116.752 162.677 117.597C161.8 117.904 160.702 118.212 160.19 119.594ZM350.445 228.973C352.273 229.664 353.882 230.202 355.492 230.893C356.443 231.354 356.808 230.97 357.101 230.125C358.491 225.516 358.564 220.831 357.467 215.838C356.589 221.215 356.223 226.592 350.445 228.973ZM339.107 93.4786C341.74 91.5583 343.788 89.4844 344.739 86.4888C345.617 83.6468 344.593 82.1874 341.96 82.6483C341.082 82.8019 340.424 82.8787 341.082 84.1845C341.594 85.1062 341.374 86.1816 341.009 87.1801C340.35 89.1004 339.326 90.9438 339.107 93.4786ZM200.348 209.693C199.324 210.538 199.251 211.69 198.885 212.689C197.861 215.147 196.91 217.682 196.69 220.37C196.544 221.829 197.422 222.29 198.592 222.367C199.397 222.367 200.421 222.444 200.275 221.215C199.909 217.374 200.348 213.611 200.348 209.693ZM195.593 110.454C192.96 112.067 190.546 112.528 187.693 113.065C190.034 114.755 191.351 116.752 192.521 119.057C193.326 116.061 194.496 113.526 195.593 110.454ZM296.462 129.349C299.096 131.884 301.948 133.881 305.533 134.649C304.728 133.497 303.923 132.345 303.85 130.885C303.777 129.964 303.411 129.733 302.607 129.733C300.559 129.81 298.511 130.117 296.462 129.349ZM152.071 57.0703C152.071 59.9123 152.071 62.8311 152.071 65.6731C152.071 66.9021 152.949 67.2093 153.753 67.2861C154.851 67.4398 154.558 66.3644 154.558 65.8267C154.704 62.6775 153.827 59.8355 152.071 57.0703ZM151.266 83.7236C151.486 82.6483 151.852 81.5729 151.852 80.5744C151.852 78.3469 153.022 76.1962 152.437 73.9687C152.29 73.2006 152.217 72.1252 151.047 72.4325C150.023 72.7397 149.438 73.3542 149.73 74.7368C150.242 77.6556 151.193 80.5744 151.266 83.7236ZM149.73 62.9847C150.096 59.4514 149.95 55.9181 149.804 52.3848C149.804 52.0008 149.95 51.5399 149.438 51.4631C148.999 51.3863 148.853 51.7704 148.633 52.0776C147.243 54.6892 147.755 60.5268 149.73 62.9847ZM108.256 186.65C108.622 181.734 108.183 176.972 107.744 172.133C106.354 176.05 106.574 182.886 108.256 186.65ZM275.177 198.479C274.665 196.328 273.641 194.715 271.3 194.715C269.983 194.715 268.667 194.408 267.35 194.101C264.936 193.563 260.621 193.793 259.45 194.408C264.863 194.869 270.788 193.486 275.177 198.479ZM169.114 223.289C168.895 223.058 168.748 222.982 168.675 222.982C166.627 222.828 164.506 223.212 162.75 221.522C162.165 220.984 162.092 221.829 162.019 222.29C161.8 223.75 161.068 223.98 160.19 222.982C159.459 222.137 158.727 222.29 157.923 222.597C157.776 222.597 157.63 222.982 157.703 223.058C158.215 223.826 159.02 223.826 159.751 223.903C162.897 224.211 165.896 223.826 169.114 223.289ZM334.206 113.219C336.474 112.144 336.474 112.067 336.108 109.916C335.742 107.919 335.303 105.922 334.791 103.387C334.572 106.997 333.84 109.993 334.206 113.219ZM208.54 221.215C206.712 222.06 205.249 222.751 203.786 223.366C202.835 223.75 202.981 224.211 203.493 224.825C204.225 225.824 205.029 225.9 205.907 224.979C206.931 224.057 207.662 222.905 208.54 221.215ZM284.32 202.78C283.15 202.473 282.126 202.319 281.248 201.935C279.566 201.244 279.712 202.166 280.004 203.395C280.224 204.24 280.59 204.47 281.321 204.24C282.345 203.932 283.296 203.472 284.32 202.78ZM174.966 218.219C172.406 218.911 169.773 219.679 166.774 220.447C169.992 220.6 172.625 220.14 174.966 218.219ZM307.873 129.042C309.921 129.964 312.116 129.426 313.213 127.967C311.238 127.813 309.629 128.812 307.873 129.042ZM326.306 187.188C327.696 188.647 329.525 189.108 331.353 189.569C329.817 188.34 328.135 187.495 326.306 187.188ZM155.582 73.3542C154.851 75.1976 155.582 76.6571 156.24 78.2701C156.606 76.5034 156.021 75.044 155.582 73.3542ZM295.146 190.03C295.365 189.646 295.292 189.185 295.219 188.801C295.073 188.263 294.78 187.725 294.122 187.725C293.902 187.725 293.537 187.802 293.463 187.879C293.317 188.417 293.756 188.801 294.049 189.185C294.341 189.569 294.487 190.183 295.146 190.03Z" fill="white"/>
</g>
<defs>
<clipPath id="clip0">
<rect width="517" height="263" fill="white"/>
</clipPath>
</defs>
</svg>
