<svg width="172" height="149" viewBox="0 0 172 149" fill="none" xmlns="http://www.w3.org/2000/svg">
<g opacity="0.2" clip-path="url(#clip0)">
<path d="M82.6912 147.197C84.3331 146.036 86.0248 144.924 87.6169 143.714C98.6872 135.291 104.956 124.051 107.22 110.49C107.32 109.848 107.419 109.181 107.494 108.539C107.742 106.563 107.718 106.587 105.877 105.995C97.2941 103.277 89.209 99.5969 82.1688 93.8909C73.2628 86.678 67.8148 77.4149 65.949 66.151C64.0583 54.6647 64.8544 43.3514 69.7054 32.6556C76.8203 17.0442 88.4378 6.10138 105.379 1.90211C120.654 -1.90194 135.431 -0.197525 148.615 9.01617C160.059 16.9948 167.199 28.0611 170.109 41.5729C174.587 62.2481 171.03 81.7377 159.835 99.6216C143.839 125.188 120.977 141.417 91.2987 148.012C90.0797 148.284 88.8607 148.531 87.6418 148.753C85.1292 149.198 84.7063 149.074 82.6912 147.197Z" fill="#BFBFC2"/>
<path d="M90.9755 105.377C86.5474 103.153 82.6168 100.634 79.0097 97.719C69.1335 89.691 63.0635 79.341 61.0235 66.9408C58.8344 53.6761 60.2275 41.4488 65.1531 30.6295C69.0588 22.0333 74.2333 14.8699 80.5272 9.31201C81.0247 8.86738 81.5471 8.44746 82.0695 8.02753C69.3325 -0.29691 55.1028 -1.60609 40.1268 1.90153C27.4395 4.89043 17.7623 12.4985 10.1997 22.8485C4.35361 30.8518 1.2191 39.9173 0.298649 49.7238C-0.273523 55.7016 -0.0745064 61.6547 1.14447 67.5337C4.00533 81.5642 12.1401 91.7412 24.4294 98.88C29.8526 102.042 35.6241 104.364 41.6194 106.192C42.4155 106.439 42.8135 106.686 42.6145 107.6C42.3657 108.81 42.2662 110.045 42.0672 111.255C39.9776 122.89 34.8778 132.894 25.9966 140.873C23.4094 143.195 20.5983 145.22 17.5882 147.147C20.0759 149.222 20.1008 149.222 22.9616 148.654C24.5787 148.333 26.2205 148.011 27.8127 147.641C54.3565 141.416 75.4025 127.213 90.9755 105.377Z" fill="#BFBFC2"/>
</g>
<defs>
<clipPath id="clip0">
<rect width="172" height="149" fill="white"/>
</clipPath>
</defs>
</svg>
