<svg width="266" height="106" viewBox="0 0 266 106" fill="none" xmlns="http://www.w3.org/2000/svg">
<g clip-path="url(#clip0)">
<path d="M0 54.6713C6.68826 50.3089 13.0364 45.4933 18.9879 40.2245C21.9919 37.6184 24.8259 34.8423 27.6032 32.0096C28.2834 31.2731 28.9636 30.5933 29.6437 29.8568C30.3239 29.1203 31.004 28.3837 31.6842 27.6472C32.9879 26.2309 34.2348 24.6446 35.5385 23.1149C38.0891 20.0556 40.583 16.9963 43.0769 13.8236C45.5142 10.7076 48.0081 7.53501 50.2186 4.30572C50.7854 3.51256 51.2955 2.66275 51.749 1.81293C51.8624 1.58632 51.9757 1.41635 52.0324 1.18974C52.0891 1.07643 52.0891 1.01978 52.0891 0.906467C52.1457 0.793159 52.0324 0.793159 52.1457 0.963121C52.1457 1.01978 52.3158 1.13308 52.4291 1.13308C52.4858 1.13308 52.4858 1.13308 52.4858 1.13308C52.4291 1.13308 52.3725 1.18974 52.3158 1.24639C52.1457 1.3597 51.9757 1.52966 51.8057 1.69963C50.502 3.11598 49.3117 4.75895 48.1781 6.40192C47.0445 8.0449 45.9109 9.68787 44.834 11.3308C44.2672 12.1807 43.7571 12.9738 43.247 13.8236C42.7368 14.6168 42.2834 15.5232 41.83 16.4297C39.9595 19.9423 38.3725 23.5681 37.1822 27.3073C36.5587 29.1769 36.1053 31.1032 35.7652 33.0294C35.4251 34.9556 35.085 36.9385 35.3117 38.8081C35.4251 39.7146 35.6518 40.6211 36.2186 41.2443C36.7854 41.8108 37.5789 42.0941 38.4858 42.0941C39.3927 42.0374 40.2996 41.7541 41.1498 41.3576C42 40.961 42.8502 40.4511 43.7004 39.9412C45.3441 38.8648 46.9312 37.675 48.4615 36.4286C49.2551 35.8055 50.1053 35.1823 50.8988 34.6724L53.336 32.9727C56.5668 30.6499 59.7409 28.3271 62.6883 25.6643C64.1619 24.3613 65.5789 22.9449 66.9393 21.5286C68.2429 20.0556 69.4899 18.5259 70.6235 16.9396C71.7004 15.2966 72.7206 13.6537 73.5142 11.8407C74.3644 10.0844 75.1012 8.21486 75.668 6.34527C75.7814 5.89204 75.9514 5.4388 76.0081 4.98557C76.0648 4.53234 76.1215 4.02245 76.0081 3.79583C76.0081 3.73918 75.9514 3.73918 75.9514 3.68252C75.9514 3.68252 75.9514 3.68252 75.8947 3.68252C75.8381 3.68252 75.668 3.68252 75.498 3.79583C75.1579 3.96579 74.8178 4.24906 74.4777 4.58899C73.1174 5.94869 72.0405 7.59166 70.9069 9.23463C69.83 10.8776 68.8097 12.5772 67.8462 14.3335L66.3725 16.9396L64.9555 19.5457C63.1417 23.0583 61.3846 26.6275 59.7976 30.2533C56.6235 37.3918 53.7328 44.8135 50.9555 52.2918L46.7611 63.4527C45.3441 67.1919 43.9271 70.9311 42.3401 74.5569C40.753 78.2394 38.9959 81.8086 37.1822 85.3779C36.2753 87.1341 35.2551 88.8904 34.2915 90.6467C33.3279 92.3463 32.3077 94.1026 31.2308 95.8022C30.1538 97.5019 29.0769 99.2015 27.83 100.788C26.583 102.374 25.2794 103.96 23.5223 105.15C23.2955 105.32 23.0688 105.433 22.8421 105.547C22.5587 105.66 22.332 105.773 22.0486 105.83C21.4818 106 20.8016 106 20.2348 105.773C19.6113 105.547 19.2146 105.094 18.8178 104.64C18.6478 104.414 18.5344 104.187 18.3644 103.904C18.251 103.677 18.1377 103.394 18.0243 103.167C17.3441 101.128 17.3441 99.0315 17.5142 96.992C17.6842 94.9524 18.0243 92.9695 18.4211 91.0433C18.8178 89.0604 19.3846 87.1341 20.0081 85.2079C21.3117 81.4121 23.0121 77.7296 25.0526 74.2737C29.1336 67.3618 34.1781 61.0732 39.9028 55.4645C45.6275 49.8557 51.9757 44.9268 58.7206 40.7344C52.0324 45.0967 45.8542 50.139 40.2996 55.861C34.7449 61.5831 29.9271 67.9284 26.0162 74.8402C24.0891 78.2961 22.332 81.8653 21.0283 85.5478C20.4049 87.4174 19.8381 89.287 19.4413 91.2132C19.0445 93.1395 18.7045 95.1224 18.5344 97.0486C18.3644 98.9749 18.3644 100.958 18.9879 102.714C19.2713 103.564 19.7814 104.414 20.4615 104.64C21.1417 104.924 21.9919 104.584 22.7287 104.074C24.2591 103.054 25.5628 101.524 26.753 99.938C27.9433 98.4083 29.0202 96.7087 30.0972 95.0657C31.1741 93.3661 32.1377 91.6665 33.1012 89.9102C34.1215 88.2106 35.0283 86.4543 35.9919 84.698C37.8623 81.1855 39.5628 77.6162 41.1498 73.9904C42.7368 70.3645 44.1538 66.6253 45.5709 62.8862L49.8785 51.8952C52.6559 44.4169 55.5466 36.9952 58.7773 29.6868C60.4211 26.0609 62.1215 22.4351 63.9919 18.9225L65.4089 16.2598L66.8826 13.6537C67.8462 11.8974 68.8664 10.1978 70 8.49813C71.1336 6.7985 72.2105 5.15553 73.6842 3.68252C74.081 3.3426 74.4777 2.94602 75.0445 2.66275C75.3279 2.54944 75.668 2.43613 76.1215 2.49278C76.2348 2.49278 76.3482 2.54944 76.4615 2.60609C76.5749 2.66275 76.6883 2.7194 76.7449 2.83271C76.915 3.00267 77.0283 3.17263 77.085 3.39925C77.3117 4.0791 77.1984 4.64564 77.1417 5.15553C77.0283 5.66542 76.915 6.17531 76.8016 6.68519C76.2348 8.66809 75.4413 10.481 74.5911 12.294C73.7976 14.1635 72.7206 15.8632 71.587 17.5628C70.4534 19.2058 69.1498 20.7921 67.7895 22.2651C66.4291 23.7381 65.0121 25.1545 63.4818 26.4575C60.4777 29.1203 57.247 31.4997 54.0162 33.8226L51.5789 35.5222C50.7287 36.0887 49.9919 36.6553 49.1984 37.2785C47.6113 38.5249 46.0243 39.7146 44.3239 40.8477C43.4737 41.4142 42.5668 41.9241 41.6599 42.3207C40.6964 42.7173 39.7328 43.1138 38.5992 43.1705C37.5223 43.2271 36.2753 42.8872 35.4251 41.9808C34.6316 41.0743 34.3482 39.9412 34.2348 38.9214C34.0081 36.8252 34.3482 34.7857 34.6883 32.8028C35.0283 30.8199 35.5385 28.837 36.1619 26.9674C37.4089 23.1149 39.0526 19.4324 40.9231 15.9198C41.3765 15.0134 41.83 14.1635 42.3968 13.2571C42.9069 12.4073 43.4737 11.5575 44.0405 10.7076C45.1174 9.00802 46.251 7.36505 47.3846 5.72207C48.5749 4.0791 49.7085 2.43613 51.0688 0.963121C51.2389 0.793159 51.4656 0.566542 51.6923 0.396579C51.8057 0.283271 51.919 0.226617 52.0891 0.113308C52.0891 0.0566542 52.2024 0 52.3725 0C52.4858 0 52.5992 0 52.7692 0.113308C52.8826 0.169963 52.9393 0.283271 53.0526 0.339925C53.2794 0.67985 53.2227 0.963121 53.166 1.13308C53.1093 1.30305 53.1093 1.47301 53.0526 1.58632C52.9393 1.86959 52.8259 2.0962 52.7126 2.32282C52.2591 3.22929 51.6923 4.0791 51.1255 4.92891C48.8583 8.27151 46.4211 11.3875 43.9271 14.5601C41.4332 17.6761 38.9393 20.7921 36.3887 23.8514C35.7652 24.6446 35.085 25.3811 34.4615 26.1176C33.8381 26.8541 33.1579 27.6472 32.4211 28.3271C31.7409 29.0636 31.0607 29.8001 30.3239 30.48C29.6437 31.2165 28.9069 31.8963 28.2267 32.5762C25.3927 35.3522 22.4453 38.0716 19.3846 40.6211C13.2632 45.8332 6.80162 50.4789 0 54.6713Z" fill="white" fill-opacity="0.75"/>
<path d="M73.2876 33.0861C72.7208 33.6526 72.494 34.4458 72.4374 35.1823C72.4374 35.5788 72.494 35.9754 72.6074 36.3153C72.6641 36.4853 72.7774 36.6553 72.9475 36.7119C73.0608 36.7686 73.2309 36.7686 73.4009 36.6553C73.6843 36.4853 73.911 36.1454 74.1378 35.8055C74.3078 35.4655 74.4778 35.1256 74.5912 34.7857C74.8179 34.1058 74.8746 33.3127 74.7612 32.5762C74.4778 31.1032 73.3442 29.9134 71.9839 29.4035C71.3038 29.1769 70.5669 29.0636 69.8867 29.2336C69.5467 29.2902 69.1499 29.4035 68.8098 29.5168C68.4697 29.6301 68.1297 29.8001 67.7896 29.9701C66.4859 30.6499 65.3523 31.7264 64.3888 32.8594C63.3685 33.9925 62.5183 35.2389 61.6681 36.542C61.2714 37.2218 60.8746 37.845 60.5345 38.5249C60.1944 39.2047 59.8544 39.8846 59.6276 40.5644C59.1742 41.9241 59.0042 43.5104 59.4576 44.8135C59.6843 45.4367 60.0811 46.0032 60.6479 46.2298C61.2147 46.4564 61.8948 46.4564 62.575 46.2298C63.2552 46.0032 63.8786 45.6633 64.5021 45.2667L64.7288 45.0967C64.8422 45.0401 64.8422 45.0401 64.8989 44.9834C65.0123 44.8701 65.1823 44.7568 65.2956 44.5869L66.1459 43.7937C68.2997 41.5842 70.4535 39.2614 72.5507 36.9952C73.571 35.8621 74.6479 34.6724 75.6114 33.4826C75.8382 33.1994 76.1216 32.8594 76.2916 32.5762C76.405 32.4062 76.5183 32.2929 76.575 32.1796V32.1229C76.575 32.1796 76.575 32.2362 76.575 32.2362C76.575 32.2362 76.6317 32.5195 76.745 32.5762C76.8584 32.6895 76.9718 32.6895 77.0851 32.6895C77.1985 32.6895 77.2552 32.6328 77.2552 32.6328L77.1985 32.6895C76.745 33.1427 76.2349 33.7659 75.7815 34.3891C73.9677 36.8819 72.2673 39.488 71.0204 42.3207C70.6803 43.0005 70.3969 43.737 70.2268 44.4169C70.0001 45.0967 69.8867 45.8899 69.9434 46.4564C70.0001 46.7397 70.1135 46.9663 70.2835 47.1363C70.5102 47.3063 70.737 47.3629 71.0204 47.3629C71.5872 47.3629 72.2673 46.9663 72.8341 46.5697C74.0244 45.7199 75.1013 44.5302 76.0649 43.3971C77.0284 42.2074 77.992 40.961 78.8989 39.7146C79.8058 38.4682 80.656 37.1652 81.5629 35.8621C81.7896 35.5222 81.9596 35.2389 82.2997 34.8423C82.2997 34.8423 82.3564 34.7857 82.4131 34.729C82.4697 34.729 82.5264 34.6724 82.5264 34.6157C82.4698 34.6157 82.9232 34.4458 83.0932 34.6157C83.2633 34.6724 83.3766 34.9556 83.3766 34.9556C83.3766 35.0123 83.4333 35.1256 83.4333 35.1256C83.4333 35.1823 83.4333 35.2389 83.4333 35.2956C83.4333 35.4655 83.3766 35.5788 83.3766 35.6921C83.32 35.9188 83.2633 36.0887 83.2066 36.3153C82.9799 37.1085 82.6965 37.845 82.4131 38.5815C81.8463 40.0545 81.2228 41.5275 80.5993 42.9439C79.9758 44.3602 79.3523 45.8332 78.5588 47.2496C78.4455 47.4196 78.3321 47.5895 78.2187 47.8161C78.1621 47.8728 78.1621 47.9295 78.1054 47.9861C78.1054 47.9861 78.0487 48.0428 77.992 48.0994C77.992 48.0994 77.8787 48.1561 77.822 48.2127C77.822 48.2127 77.5953 48.2694 77.4252 48.2694C76.9718 48.0994 76.9718 47.8161 76.9151 47.7028C76.9151 47.5895 76.9151 47.4762 76.9151 47.4196C76.9718 46.853 77.1418 46.5131 77.3118 46.1165C77.5952 45.38 77.9353 44.6435 78.2754 43.9637C78.9556 42.5473 79.6924 41.1876 80.4859 39.7712C81.2228 38.4115 82.0163 37.0518 82.8098 35.6921C83.0366 35.3522 83.2066 35.0123 83.4333 34.6724L84.1135 33.7093C84.5669 33.0861 85.077 32.4629 85.6438 31.8397C86.2106 31.2731 86.8341 30.6499 87.6276 30.2533C88.0244 30.0834 88.5345 29.9134 89.1013 30.0267C89.328 30.0834 89.5548 30.1967 89.8382 30.31C90.0649 30.48 90.2916 30.6499 90.4617 30.9332C90.575 31.2165 90.6317 31.5564 90.6317 31.783C90.6317 32.0663 90.575 32.2929 90.4617 32.5195C90.2916 32.9727 90.1216 33.3127 89.9515 33.7093C89.5548 34.4458 89.1013 35.069 88.7613 35.7488C88.5912 36.0887 88.4212 36.4286 88.3645 36.6553C88.3078 36.7686 88.3645 36.8819 88.3645 36.9385C88.3645 36.9385 88.4212 36.9952 88.3645 36.9385C88.2511 36.8819 88.2511 36.8819 88.2511 36.8819C88.4212 36.8819 88.8179 36.7686 89.1013 36.6553C89.4414 36.4853 89.7815 36.3153 90.1216 36.1454C90.8017 35.8055 91.4252 35.3522 92.1054 34.9556L93.0689 34.3324L93.5224 33.9925L93.7491 33.8226L93.8625 33.7659L93.9191 33.7093H93.9758C93.7491 33.8792 94.3159 33.3127 94.826 33.8792L93.8625 34.4458C93.8625 34.5024 93.9191 34.5024 93.9191 34.5024H93.9758C93.9758 34.5024 93.9191 34.5024 93.8625 34.5591C93.6924 34.6157 93.5224 34.729 93.2957 34.899C92.8989 35.1823 92.5588 35.5222 92.1621 35.8621C91.4252 36.5986 90.7451 37.3351 90.0649 38.1283C89.3847 38.9214 88.7613 39.7146 88.1944 40.5644C88.0811 40.791 87.911 41.0176 87.7977 41.1876L87.741 41.2443C87.741 41.2443 87.741 41.3576 87.6843 41.4142L87.6276 41.7541C87.571 42.264 87.5143 42.7173 87.571 43.1705C87.6276 44.077 88.0811 44.8701 88.8746 45.2101C89.6681 45.55 90.6317 45.4367 91.5386 45.0967C92.4455 44.7568 93.2957 44.2469 93.9758 43.5671C94.656 42.8872 95.2228 42.0374 95.6762 41.1309C96.1864 40.2245 96.5831 39.318 96.8665 38.3549C97.1499 37.3918 97.3766 36.372 97.4333 35.4089C97.4333 34.4458 97.2633 33.426 96.7532 32.6328C96.243 31.8397 95.3928 31.2731 94.4859 30.9332C93.5791 30.5933 92.5021 30.6499 91.5953 31.0465C90.6884 31.4431 89.8382 32.0663 89.158 32.8594C87.741 34.3891 86.6641 36.2587 86.154 38.2416C86.3807 37.2218 86.7208 36.202 87.2309 35.2956C87.6843 34.3324 88.2511 33.4826 88.988 32.6328C89.6681 31.8397 90.5183 31.1032 91.4819 30.6499C92.4455 30.1967 93.6357 30.0267 94.7127 30.3667C95.7896 30.6499 96.8098 31.2731 97.4333 32.2362C98.0568 33.1994 98.3402 34.3324 98.3402 35.4089C98.3402 36.542 98.1702 37.6184 97.8868 38.6382C97.6034 39.6579 97.2066 40.6777 96.6965 41.6408C96.1864 42.604 95.6195 43.5671 94.7693 44.3602C93.9758 45.1534 93.0123 45.7766 91.9353 46.1165C90.8584 46.5131 89.6115 46.6831 88.4778 46.1732C87.911 45.9466 87.3442 45.4933 87.0608 44.9268C86.7208 44.3602 86.5507 43.7937 86.494 43.1705C86.4374 42.604 86.494 42.0374 86.5507 41.4709L86.6074 41.0743C86.6074 41.0176 86.6074 40.961 86.6641 40.8477C86.6641 40.791 86.7208 40.7344 86.7208 40.6777L86.7774 40.5644C86.9475 40.2811 87.0608 40.0545 87.2309 39.8279C87.8544 38.9214 88.4778 38.1283 89.158 37.2785C89.8382 36.4853 90.575 35.6921 91.3119 34.899C91.7086 34.5024 92.1054 34.1625 92.5588 33.8226C92.7855 33.6526 93.0123 33.4826 93.3523 33.3693C93.5224 33.3127 93.6924 33.256 93.9758 33.256C94.0325 33.256 94.1459 33.256 94.2025 33.256C94.2592 33.256 94.3726 33.3127 94.4293 33.3693C94.5993 33.426 94.656 33.5959 94.7693 33.7093L93.8058 34.2758C94.3159 34.8423 94.8827 34.3324 94.5993 34.4458L94.5426 34.5024L94.4293 34.5591L94.2025 34.729L93.6924 35.069L92.7289 35.7488C92.0487 36.202 91.3685 36.5986 90.6884 36.9952C90.3483 37.1652 89.9515 37.3918 89.6115 37.5617C89.2147 37.7317 88.8746 37.9017 88.2511 37.9017C88.1378 37.9017 88.0811 37.9017 87.9677 37.845C87.911 37.845 87.8544 37.7884 87.7977 37.7884C87.741 37.7317 87.6843 37.7317 87.6276 37.675C87.4576 37.5051 87.4009 37.3918 87.3442 37.1652C87.2309 36.8252 87.2876 36.542 87.3442 36.3153C87.4576 35.8055 87.6843 35.4655 87.8544 35.069C88.2511 34.3324 88.7046 33.7093 89.0447 33.0294C89.2147 32.6895 89.3847 32.3496 89.4981 32.0663C89.6114 31.7264 89.6115 31.4431 89.5548 31.3298C89.5548 31.2731 89.4414 31.2165 89.3847 31.1598C89.2714 31.1032 89.158 31.0465 88.988 31.0465C88.7612 30.9899 88.4778 31.0465 88.1944 31.1598C87.6276 31.4431 87.0608 31.953 86.5507 32.4629C86.0406 33.0294 85.5872 33.5959 85.1337 34.2191L84.4536 35.1823C84.2835 35.4655 84.0568 35.8055 83.8868 36.1454C83.0932 37.5051 82.3564 38.8648 81.5629 40.2245C80.826 41.5842 80.0892 42.9439 79.409 44.3602C79.0689 45.0401 78.7289 45.7766 78.4454 46.4564C78.3321 46.7964 78.1621 47.1929 78.1621 47.4196C78.1621 47.4196 78.1621 47.4762 78.1621 47.4196C78.1621 47.3629 78.1621 47.1929 77.822 47.0796C77.6519 47.023 77.4819 47.0796 77.4819 47.0796C77.4252 47.0796 77.3685 47.1363 77.3685 47.1363C77.3685 47.1363 77.3118 47.1363 77.3685 47.1363L77.4252 47.0796C77.5386 46.9663 77.5953 46.7964 77.7086 46.6264C78.4455 45.3234 79.0689 43.8504 79.6924 42.434C80.3159 41.0176 80.8827 39.5446 81.4495 38.1283C81.7329 37.3918 82.0163 36.6553 82.243 35.9754C82.2997 35.8055 82.3564 35.6355 82.4131 35.4655C82.4131 35.4089 82.4697 35.2956 82.4697 35.2389C82.4697 35.2389 82.4697 35.2956 82.4697 35.3522C82.4697 35.3522 82.5831 35.5788 82.6965 35.6355C82.8098 35.8055 83.2633 35.6355 83.2066 35.6355L83.2633 35.5788C83.0932 35.8055 82.8098 36.1454 82.6398 36.4287C81.7329 37.7317 80.8827 39.0347 79.9758 40.2811C79.0689 41.5842 78.1054 42.8306 77.0851 44.0203C76.0649 45.21 74.988 46.3998 73.6276 47.4196C73.2876 47.6462 72.9475 47.8728 72.5507 48.0994C72.154 48.2694 71.7005 48.4393 71.1904 48.4393C70.6803 48.4393 70.1135 48.2694 69.7167 47.9861C69.2633 47.6462 69.0365 47.0796 68.9799 46.6264C68.8665 45.6633 69.0365 44.8701 69.2633 44.077C69.49 43.2838 69.7734 42.5473 70.1135 41.8108C71.4738 38.9214 73.1175 36.2587 75.0446 33.7093C75.2714 33.3693 75.5548 33.0861 75.7815 32.7461C76.0649 32.4062 76.2916 32.1229 76.6317 31.8397C76.6884 31.783 76.745 31.783 76.8017 31.7264C76.8017 31.7264 76.8584 31.6697 76.9151 31.6697C76.9151 31.6697 77.0851 31.613 77.2552 31.613C77.4252 31.613 77.5386 31.6697 77.6519 31.783C77.7653 31.8963 77.8787 32.1796 77.822 32.1796C77.822 32.2362 77.822 32.3496 77.822 32.4062V32.5195C77.7653 32.6328 77.7653 32.6895 77.7086 32.7461C77.5953 32.9727 77.4819 33.1427 77.3685 33.3127C77.1418 33.6526 76.8584 33.9359 76.6317 34.2758C75.6114 35.5222 74.5912 36.6553 73.5143 37.845C71.4171 40.1678 69.2633 42.4907 67.1094 44.7002L66.2592 45.55C66.0892 45.6633 65.9758 45.8332 65.8058 45.9466C65.7491 46.0032 65.5791 46.1165 65.5224 46.1732L65.239 46.3431C64.5588 46.7964 63.822 47.1929 62.9718 47.4196C62.1782 47.6462 61.158 47.7595 60.3078 47.3629C59.8544 47.1929 59.4576 46.853 59.1742 46.5131C58.8908 46.1732 58.6641 45.7199 58.5507 45.3234C58.2673 44.4735 58.2106 43.6237 58.2673 42.7739C58.324 41.9241 58.494 41.1309 58.7207 40.3378C59.0041 39.5446 59.3442 38.8081 59.6843 38.1283C60.0244 37.3918 60.4212 36.7119 60.8746 36.0321C61.7248 34.6724 62.6317 33.3693 63.7653 32.2362C64.8989 31.1032 66.0892 29.9701 67.5629 29.2902C67.9596 29.1203 68.2997 28.9503 68.6965 28.837C69.0932 28.667 69.49 28.6104 69.8867 28.5537C70.737 28.4404 71.5871 28.5537 72.3807 28.8936C73.911 29.5168 75.1013 30.9898 75.3847 32.6328C75.4981 33.426 75.4414 34.2758 75.1013 35.069C74.9313 35.4655 74.7612 35.8055 74.5345 36.1454C74.3078 36.4853 74.0811 36.8252 73.6843 37.0518C73.5143 37.1652 73.2309 37.1652 73.0042 37.0518C72.7774 36.9385 72.6641 36.7119 72.6074 36.542C72.4374 36.1454 72.4374 35.7488 72.4374 35.3522C72.3807 34.3891 72.6641 33.5959 73.2876 33.0861Z" fill="white" fill-opacity="0.75"/>
<path d="M99.927 36.3717C101.571 35.5219 103.214 34.5588 104.801 33.5957C106.389 32.6325 107.976 31.6128 109.449 30.5363C110.186 29.9698 110.923 29.4033 111.546 28.7234C111.716 28.5534 111.83 28.3835 111.943 28.2135C112.057 28.0436 112.113 27.8736 112.113 27.7603C112.113 27.7036 112.113 27.7036 112.057 27.7036C112 27.647 112 27.647 111.943 27.5903C111.887 27.5903 111.773 27.5903 111.603 27.647C111.263 27.7603 110.923 28.1002 110.64 28.3835C110.356 28.6668 110.016 29.0633 109.733 29.4033C109.166 30.1398 108.656 30.8763 108.202 31.6694L108.146 31.7827L108.089 31.896L107.976 32.236C107.919 32.4626 107.806 32.6325 107.749 32.8592C107.636 33.3124 107.465 33.709 107.352 34.1622C107.125 35.0687 106.955 35.9751 106.785 36.8816L106.332 39.6577C106.275 40.1109 106.162 40.5641 106.048 41.074C105.935 41.5273 105.822 42.0371 105.765 42.4337C105.595 43.3402 105.368 44.3033 105.085 45.2098C104.915 45.663 104.745 46.1163 104.461 46.6261C104.178 47.0794 103.838 47.5326 103.271 47.8159C102.704 48.0991 102.024 48.1558 101.457 47.9292C100.891 47.7026 100.437 47.3626 100.097 47.0227C99.3602 46.2862 98.9068 45.3797 98.51 44.4733C98.34 44.02 98.1132 43.5668 97.9999 43.0569C97.9432 42.8303 97.8865 42.547 97.8865 42.2638C97.8298 41.9805 97.8298 41.7539 97.8298 41.4706C97.8298 40.3942 98.2833 39.3744 98.9068 38.5812C99.5302 37.7881 100.38 37.1649 101.174 36.655C102.024 36.1451 102.874 35.7485 103.781 35.3519C105.538 34.6154 107.352 34.0489 109.109 33.4824C110.016 33.1991 110.866 32.9158 111.716 32.5759C112.113 32.4059 112.567 32.236 112.907 32.0093C113.304 31.7827 113.7 31.5561 114.097 31.2728C115.627 30.2531 117.101 29.1766 118.461 27.9302C119.822 26.6839 121.069 25.3242 122.032 23.8511C122.996 22.3215 123.733 20.6785 123.789 18.9222C123.846 18.469 123.789 18.0724 123.733 17.6192C123.676 17.2226 123.563 16.7694 123.449 16.5994C123.449 16.5428 123.393 16.5428 123.449 16.5994C123.449 16.5994 123.506 16.5994 123.449 16.5994C123.393 16.5994 123.223 16.7127 123.109 16.8827C122.826 17.1659 122.542 17.5059 122.316 17.9025C121.352 19.4321 120.559 21.0751 119.708 22.7747C118.801 24.4743 117.951 26.0607 117.158 27.7603C115.514 31.1029 114.154 34.5588 113.304 38.128C112.907 39.9409 112.567 41.7539 112.51 43.5668C112.51 44.02 112.567 44.4733 112.68 44.7565C112.793 44.6999 112.793 44.7565 112.793 44.7565C112.793 44.7565 112.907 44.7565 113.077 44.6999C113.36 44.5299 113.757 44.2467 114.04 43.9634C114.38 43.6801 114.664 43.3402 114.947 43.0003C116.138 41.6406 117.271 40.1109 118.348 38.5812C118.915 37.8447 119.425 37.0516 119.992 36.3151C120.275 35.9185 120.559 35.5786 120.899 35.182C121.012 35.0687 121.069 35.012 121.239 34.8987C121.295 34.8421 121.295 34.8421 121.352 34.7854L121.465 34.7288C121.465 34.7288 121.522 34.6721 121.635 34.6721C121.692 34.6721 121.749 34.6721 121.862 34.6721C121.976 34.6721 122.089 34.7288 122.202 34.7854C122.712 35.7485 122.202 35.4653 122.372 35.5786L122.316 35.6352C122.146 35.8618 122.032 36.0318 121.862 36.2018C120.729 37.6748 119.652 39.1478 118.801 40.7908C118.008 42.3204 117.271 44.4166 118.858 44.8699C119.538 45.1531 120.332 45.0398 121.125 44.6999C121.919 44.36 122.656 43.8501 123.279 43.2269C124.64 42.0371 125.773 40.5641 126.68 39.0911C126.907 38.7512 127.077 38.298 127.247 37.9014C127.417 37.5048 127.587 37.0516 127.7 36.5983C127.984 35.7485 128.154 34.8421 128.21 33.9922C128.267 33.1424 128.097 32.236 127.644 31.5561C127.133 30.8763 126.34 30.5363 125.433 30.423C124.583 30.3097 123.676 30.4797 122.882 30.9329C122.089 31.3295 121.409 31.9527 120.785 32.6325C119.595 33.9922 118.688 35.7485 118.461 37.6181C118.518 36.655 118.745 35.7485 119.142 34.8987C119.482 34.0489 119.992 33.1991 120.559 32.4626C121.125 31.7261 121.862 31.0462 122.712 30.5363C123.563 30.0265 124.526 29.7432 125.546 29.8565C126.51 29.9698 127.587 30.3097 128.267 31.1029C128.947 31.9527 129.117 33.0291 129.117 33.9922C129.117 35.012 128.947 35.9751 128.721 36.8816C128.607 37.3348 128.437 37.7881 128.267 38.2413C128.097 38.6945 127.927 39.1478 127.7 39.601C127.247 40.5075 126.68 41.244 126.057 41.9805C125.433 42.717 124.753 43.3968 124.016 44.0767C123.279 44.6999 122.486 45.3231 121.579 45.7197C121.125 45.9463 120.615 46.0596 120.048 46.1162C119.482 46.1729 118.915 46.1162 118.405 45.8896C118.121 45.7763 117.895 45.6064 117.668 45.4364C117.441 45.2664 117.214 45.0398 117.044 44.7565C116.761 44.19 116.704 43.5668 116.761 43.0569C116.874 41.9805 117.328 41.074 117.725 40.2242C118.631 38.5246 119.708 36.9949 120.899 35.4653C121.012 35.2953 121.182 35.0687 121.295 34.9554C121.409 35.0687 121.012 34.7288 121.465 35.6352C121.522 35.6919 121.635 35.7485 121.749 35.7485C121.806 35.7485 121.806 35.7485 121.862 35.7485C121.919 35.7485 121.919 35.7485 121.919 35.7485C121.862 35.8052 121.806 35.8618 121.749 35.9185C121.465 36.2018 121.182 36.5983 120.899 36.9383C120.332 37.6748 119.822 38.4113 119.255 39.2044C118.178 40.7341 117.044 42.2638 115.797 43.6801C115.457 44.02 115.174 44.4166 114.777 44.7565C114.437 45.0965 114.04 45.4364 113.53 45.663C113.247 45.7763 112.907 45.9463 112.453 45.7763C112.227 45.7197 112 45.5497 111.887 45.4364C111.83 45.3797 111.773 45.2664 111.716 45.2098C111.66 45.1531 111.66 45.0398 111.603 44.9832C111.376 44.4166 111.376 43.9067 111.376 43.3968C111.376 42.3771 111.49 41.4706 111.66 40.5075C111.83 39.5444 112 38.6379 112.17 37.7314C113.02 34.0489 114.437 30.4797 116.081 27.1371C116.874 25.4375 117.781 23.7945 118.631 22.1515C119.482 20.5085 120.275 18.7523 121.295 17.1659C121.579 16.7694 121.862 16.3728 122.259 15.9762C122.486 15.8062 122.656 15.5796 123.053 15.4663C123.166 15.4663 123.279 15.4097 123.393 15.4097C123.506 15.4097 123.676 15.4097 123.789 15.4663C124.016 15.523 124.186 15.6929 124.356 15.8629L124.526 16.0895L124.64 16.3161C124.696 16.4861 124.753 16.5994 124.81 16.7127C124.866 16.996 124.923 17.2226 124.98 17.4492C125.036 17.9591 125.093 18.469 125.036 18.9789C124.923 21.0184 124.129 22.888 123.053 24.4743C121.976 26.1173 120.672 27.5337 119.255 28.7801C117.838 30.0831 116.308 31.2162 114.721 32.236C114.324 32.5192 113.927 32.7459 113.474 32.9725C113.02 33.1991 112.567 33.4257 112.17 33.5957C111.263 33.9356 110.356 34.2755 109.506 34.5588C107.749 35.1253 105.935 35.6919 104.235 36.3717C102.534 37.0516 100.891 37.958 99.8136 39.2611C99.3035 39.9409 98.9634 40.6774 98.9634 41.5273C98.9634 41.7539 98.9634 41.9238 98.9634 42.1505C98.9634 42.3771 99.0201 42.547 99.0768 42.7737C99.1902 43.1702 99.3602 43.6235 99.5302 44.02C99.8703 44.8132 100.324 45.6064 100.891 46.2296C101.457 46.8528 102.194 47.136 102.704 46.8528C103.271 46.5695 103.668 45.7197 103.951 44.9265C104.235 44.0767 104.405 43.1702 104.575 42.2638C105.028 40.4508 105.312 38.6379 105.595 36.7683C105.765 35.8618 105.935 34.8987 106.162 33.9922C106.275 33.539 106.389 33.0858 106.559 32.5759C106.615 32.3493 106.729 32.1227 106.785 31.896L106.899 31.5561C106.899 31.4995 106.955 31.4428 107.012 31.3295L107.125 31.1595C107.635 30.3097 108.202 29.5732 108.826 28.8367C109.166 28.4968 109.449 28.1002 109.846 27.7603C110.243 27.4204 110.583 27.0804 111.15 26.9105C111.433 26.7972 111.83 26.7405 112.17 26.9105C112.34 27.0238 112.453 27.1371 112.567 27.2504C112.68 27.4204 112.793 27.647 112.737 27.8169C112.737 28.2135 112.567 28.4401 112.397 28.6668C112.227 28.8934 112.057 29.0633 111.887 29.2333C111.206 29.9131 110.413 30.4797 109.619 30.9896C106.672 33.0291 103.328 34.7854 99.927 36.3717Z" fill="white" fill-opacity="0.75"/>
<path d="M129.117 33.8229C128.267 34.956 127.644 36.2024 127.077 37.5054C126.51 38.8085 126 40.1115 125.717 41.4712C125.603 42.1511 125.49 42.8309 125.66 43.4541C125.773 43.7374 125.943 43.964 126.227 44.0773C126.51 44.1906 126.85 44.1906 127.134 44.134C127.19 44.134 127.36 44.0207 127.53 43.9074C127.644 43.7941 127.814 43.7374 127.927 43.6241C128.21 43.3975 128.437 43.1709 128.721 42.9442C129.231 42.491 129.741 41.9811 130.194 41.4712C131.158 40.4515 132.065 39.4317 132.972 38.3553C133.878 37.2788 134.729 36.2024 135.466 35.0127C135.636 34.7294 135.806 34.4461 135.919 34.1628C135.919 34.1062 135.919 34.0495 135.919 34.0495C135.919 34.0495 135.919 34.1062 135.976 34.2195C136.032 34.2762 135.976 34.2195 135.976 34.2195C135.919 34.1628 135.919 34.1628 135.862 34.2195C135.749 34.2195 135.522 34.4461 135.352 34.6727C135.182 34.8993 135.012 35.1826 134.842 35.5225C134.219 36.7123 133.765 38.0153 133.425 39.375C133.255 40.0549 133.028 40.7347 132.972 41.3579C132.972 41.4146 132.972 41.4146 132.972 41.4712C132.972 41.5279 132.972 41.5279 132.972 41.5279C132.972 41.5279 132.972 41.6979 132.972 41.7545C132.972 41.9245 133.028 42.0944 133.028 42.2077C133.085 42.5477 133.198 42.8309 133.312 43.1142C133.538 43.6808 133.878 44.134 134.389 44.2473C134.842 44.4173 135.466 44.2473 135.976 43.964C137.053 43.3975 137.959 42.321 138.47 41.1313C139.036 39.9416 139.206 38.6385 138.98 37.3355C138.753 36.0891 138.129 34.8427 137.336 33.7663C136.939 33.1997 136.486 32.6898 136.032 32.1799C135.579 31.6701 135.069 31.2168 134.559 30.7636C133.538 29.8005 132.461 28.8374 131.498 27.8742C130.988 27.3643 130.478 26.8545 130.024 26.3446C129.797 26.0613 129.571 25.778 129.344 25.4948C129.231 25.3248 129.117 25.1548 129.004 24.9282C129.004 24.8716 128.947 24.8149 128.947 24.7016C128.947 24.6449 128.947 24.5883 128.947 24.5316C128.947 24.475 128.947 24.3617 129.004 24.2484C129.004 24.1917 129.061 24.0784 129.231 23.9651C129.344 23.8518 129.401 23.8518 129.457 23.8518C129.627 23.7951 129.684 23.7951 129.741 23.7951C130.251 23.7951 130.591 23.9084 130.931 24.0217C131.271 24.1351 131.611 24.2484 131.951 24.3617C132.632 24.5883 133.312 24.8149 133.935 25.0415L135.919 25.778L136.883 26.1179C137.223 26.2313 137.563 26.3446 137.789 26.4012C140.51 26.8545 143.287 26.7411 146.065 26.6278L150.259 26.3446C151.676 26.2313 153.036 26.1746 154.453 26.0046C155.814 25.8347 157.231 25.6647 158.534 25.3248C159.895 25.0415 161.198 24.6449 162.389 24.0217C163.579 23.3985 164.599 22.5487 164.996 21.4156C165.223 20.8491 165.279 20.2259 165.166 19.6027C165.053 18.9229 164.883 18.243 164.769 17.5632C164.429 16.2035 164.032 14.9004 163.579 13.5974C163.466 13.2574 163.352 12.9742 163.182 12.6909C163.069 12.4076 162.899 12.1244 162.729 11.9544C162.672 11.8977 162.672 11.8977 162.672 11.8977H162.615C162.502 11.8411 162.445 11.8977 162.332 11.8977C162.162 11.9544 161.935 12.0677 161.765 12.2943C161.368 12.7476 161.085 13.3141 160.858 13.9373C160.631 14.5605 160.405 15.2403 160.178 15.8635C159.725 17.2232 159.328 18.5263 158.988 19.886C158.308 22.6054 157.797 25.3248 157.457 28.1008C157.117 30.8769 156.891 33.653 156.721 36.429C156.551 39.2051 156.494 42.0378 156.494 44.8138C156.551 50.4226 156.834 56.0314 156.891 61.6401C156.891 64.4728 156.834 67.3055 156.721 70.0816C156.607 72.8577 156.494 75.6904 156.097 78.5231C155.757 81.3558 155.19 84.1885 154.057 86.8512C153.49 88.1543 152.696 89.4573 151.619 90.5338C151.109 91.0437 150.486 91.4969 149.806 91.8935C149.465 92.0634 149.125 92.2334 148.729 92.3467C148.389 92.5167 147.992 92.5733 147.652 92.63C146.178 92.9133 144.704 92.7999 143.287 92.63C141.87 92.4034 140.453 92.0634 139.093 91.6102C137.733 91.157 136.429 90.6471 135.125 90.0239C133.822 89.4007 132.575 88.7208 131.385 87.871C129.004 86.2847 126.963 84.1885 125.32 81.7524C125.093 81.4691 124.923 81.1292 124.753 80.8459C124.583 80.506 124.413 80.2227 124.243 79.8828C123.959 79.2029 123.619 78.5797 123.393 77.8999C122.826 76.5402 122.599 75.0672 122.486 73.6508C122.372 70.7615 123.166 67.7588 124.753 65.3793L125.376 64.4728C125.603 64.1896 125.83 63.9063 126.057 63.623C126.51 63.0565 127.02 62.5466 127.474 62.0367C128.494 61.0736 129.571 60.1105 130.761 59.3173C133.085 57.6743 135.636 56.4846 138.3 55.4648C140.963 54.445 143.684 53.7085 146.405 53.0853C143.684 53.8218 141.02 54.615 138.413 55.7481C135.862 56.8245 133.312 58.1276 131.101 59.7705C129.968 60.5637 128.947 61.5268 127.984 62.4899C127.53 62.9998 127.077 63.5097 126.68 64.0763C126.453 64.3595 126.227 64.6428 126.057 64.9261L125.49 65.7759C124.016 68.0987 123.449 70.8748 123.619 73.5375C123.733 74.8972 124.016 76.2003 124.47 77.5033C124.64 78.1265 124.98 78.7497 125.263 79.3729C125.433 79.6562 125.603 79.9394 125.773 80.2794C125.943 80.5626 126.113 80.8459 126.283 81.1292C127.814 83.3953 129.741 85.3782 132.008 86.9079C133.142 87.7011 134.332 88.3243 135.579 88.9475C136.826 89.514 138.129 90.0805 139.433 90.4771C140.737 90.9304 142.097 91.2703 143.401 91.4402C144.761 91.6669 146.121 91.7235 147.425 91.4402C148.729 91.2136 149.862 90.5904 150.826 89.684C151.733 88.7775 152.47 87.5878 153.036 86.3414C154.113 83.8486 154.68 81.1292 155.02 78.3531C155.36 75.5771 155.474 72.801 155.587 70.025C155.757 67.2489 155.814 64.4162 155.757 61.6401C155.7 56.0314 155.417 50.4226 155.36 44.8138C155.36 41.9811 155.417 39.1484 155.587 36.3724C155.757 33.5396 155.984 30.7636 156.324 27.9309C156.664 25.1548 157.174 22.3221 157.854 19.6027C158.194 18.243 158.648 16.8833 159.101 15.5236C159.328 14.8438 159.555 14.1639 159.781 13.4841C160.065 12.8042 160.405 12.1244 160.915 11.5012C161.198 11.2179 161.595 10.878 162.105 10.7647C162.389 10.708 162.615 10.708 162.842 10.7647L163.012 10.8213C163.069 10.8213 163.182 10.878 163.239 10.9346C163.352 11.0479 163.466 11.1046 163.579 11.2179C163.919 11.5578 164.089 11.8977 164.259 12.2377C164.429 12.5776 164.542 12.9175 164.712 13.2574C165.223 14.6171 165.619 15.9768 165.959 17.3365C166.129 18.0164 166.3 18.6962 166.413 19.4328C166.526 20.2259 166.47 21.0191 166.186 21.8122C165.903 22.5487 165.449 23.2286 164.883 23.7385C164.316 24.2484 163.692 24.7016 163.012 25.0415C161.708 25.7214 160.291 26.1179 158.931 26.4579C157.514 26.7978 156.097 26.9678 154.737 27.1377C153.32 27.3077 151.903 27.3643 150.486 27.4776L146.291 27.7609C143.457 27.9309 140.623 27.9875 137.733 27.5343C137.279 27.4776 136.996 27.3077 136.656 27.1944L135.636 26.8545L133.652 26.1179C132.972 25.8913 132.348 25.6647 131.668 25.4381C131.328 25.3248 130.988 25.2115 130.704 25.1548C130.421 25.0415 130.024 24.9849 129.854 24.9849C129.854 24.9849 129.797 24.9849 129.911 24.9849C129.911 24.9849 129.968 24.9849 130.024 24.9282C130.081 24.8716 130.138 24.7582 130.138 24.7582C130.138 24.7016 130.138 24.6449 130.138 24.6449C130.138 24.6449 130.138 24.6449 130.138 24.5883C130.138 24.5316 130.138 24.5883 130.138 24.5883C130.138 24.6449 130.251 24.8149 130.308 24.9282C130.478 25.1548 130.704 25.4381 130.931 25.6647C131.385 26.1746 131.895 26.6845 132.348 27.1377C133.368 28.1008 134.389 29.064 135.409 30.0271C135.919 30.537 136.486 30.9902 136.939 31.5568C137.393 32.0666 137.903 32.6332 138.3 33.2564C139.15 34.4461 139.887 35.8058 140.17 37.2788C140.283 38.0153 140.283 38.8085 140.227 39.545C140.113 40.2815 139.887 41.018 139.603 41.6979C138.98 43.0576 137.959 44.3039 136.599 45.0405C135.919 45.3804 135.012 45.6636 134.162 45.3804C133.708 45.2671 133.312 44.9838 133.028 44.6439C132.745 44.3039 132.518 43.964 132.348 43.5674C132.178 43.1709 132.065 42.8309 132.008 42.4344C131.951 42.2644 131.951 42.0378 131.895 41.8678C131.895 41.7545 131.895 41.6979 131.838 41.5279C131.838 41.4146 131.838 41.3579 131.838 41.3579C131.838 41.3013 131.838 41.2446 131.838 41.188C131.951 40.3948 132.121 39.7716 132.348 39.0351C132.745 37.6754 133.255 36.3157 133.992 35.0127C134.162 34.6727 134.389 34.3895 134.615 34.0495C134.729 33.8796 134.899 33.7663 135.069 33.5963C135.239 33.483 135.466 33.313 135.749 33.2564C135.862 33.1997 136.032 33.2564 136.202 33.2564C136.372 33.313 136.486 33.3697 136.599 33.4263L136.656 33.483C136.712 33.5396 136.656 33.483 136.769 33.5963C136.939 33.7663 136.939 33.9362 136.939 33.9929C136.939 34.1628 136.883 34.2762 136.826 34.3895C136.656 34.786 136.486 35.0693 136.259 35.4092C135.466 36.599 134.502 37.6754 133.595 38.7518C132.631 39.8283 131.668 40.848 130.704 41.8112C130.194 42.3211 129.684 42.7743 129.174 43.2842C128.891 43.5108 128.664 43.7374 128.324 43.964C128.154 44.0773 128.04 44.1906 127.87 44.3039C127.7 44.4173 127.587 44.5306 127.304 44.5872C126.907 44.6439 126.51 44.6439 126.17 44.4739C125.773 44.3039 125.546 43.9074 125.433 43.5674C125.263 42.8309 125.376 42.0944 125.546 41.4146C125.887 40.0549 126.453 38.7518 127.077 37.4488C127.587 36.1457 128.267 34.8993 129.117 33.8229Z" fill="white" fill-opacity="0.75"/>
<path d="M183.19 14.3335C183.247 17.1662 183.19 19.9989 183.02 22.8316C182.907 25.6643 182.623 28.497 182.227 31.3298C181.83 34.1625 181.263 36.9385 180.47 39.7146C179.676 42.434 178.713 45.1534 177.352 47.6462C178.259 44.9268 178.996 42.2074 179.619 39.488C180.243 36.7119 180.696 33.9925 181.093 31.1598C181.49 28.3837 181.773 25.551 182.113 22.775C182.453 19.9989 182.737 17.1662 183.19 14.3335Z" fill="white" fill-opacity="0.75"/>
<path d="M194.526 16.5994C194.47 16.3161 194.413 16.0329 194.3 15.7496C194.186 15.4663 194.073 15.1831 193.846 15.0131C193.62 14.8431 193.393 14.7865 193.109 14.8431C192.826 14.8998 192.599 15.0697 192.373 15.2397C191.466 15.9196 190.672 16.826 189.992 17.7891C189.255 18.7523 188.632 19.7154 188.008 20.6785C187.385 21.6416 186.818 22.7181 186.081 23.6812C184.664 25.6074 183.19 27.477 181.66 29.3466L179.449 32.1227C178.713 33.0291 178.089 33.9922 177.296 34.9554C176.559 35.9185 175.709 36.8816 174.575 37.5615C174.008 37.9014 173.328 38.1847 172.591 38.1847C171.911 38.1847 171.174 38.0714 170.551 37.5615C170.267 37.3348 169.984 36.9949 169.871 36.655C169.7 36.3151 169.644 35.9185 169.644 35.5786C169.587 34.8987 169.757 34.2189 169.984 33.5957C170.211 32.9725 170.551 32.4059 171.004 31.896C171.458 31.3862 171.911 30.9896 172.478 30.6497C173.498 29.9131 174.632 29.4599 175.822 29.0067C176.956 28.6101 178.146 28.3268 179.393 28.1002C180.583 27.9302 181.83 27.8169 183.077 27.9303C183.7 27.9869 184.324 28.1569 184.947 28.4401C185.231 28.5534 185.571 28.7234 185.798 28.8934C186.081 29.0633 186.308 29.29 186.591 29.5166C187.101 29.9698 187.498 30.6497 187.611 31.3295C187.781 32.0094 187.668 32.7459 187.498 33.3691C187.158 34.6154 186.591 35.6919 186.138 36.7683C185.684 37.8447 185.344 38.9212 185.288 39.9976C185.231 40.5075 185.344 41.074 185.571 41.3006C185.684 41.4139 185.798 41.4706 185.968 41.5273C186.138 41.5273 186.364 41.5273 186.591 41.4139C187.555 41.074 188.462 40.3375 189.312 39.5444C190.162 38.7512 190.956 37.9014 191.579 36.9949C191.692 36.7683 191.862 36.5417 191.919 36.3151C191.976 36.2018 191.976 36.1451 191.976 36.0885C191.976 36.0318 191.976 36.0318 191.976 36.0318C191.919 36.0318 191.976 36.0318 191.976 36.0318C191.976 36.0318 191.919 36.0318 191.806 36.0885C191.636 36.1451 191.409 36.3151 191.239 36.485C190.842 36.8816 190.502 37.3348 190.219 37.7881C190.162 37.9014 190.049 38.0147 190.049 38.128C190.049 38.128 189.992 38.2413 189.992 38.298L189.879 38.5246C189.765 38.8079 189.765 39.0345 189.709 39.3177C189.539 40.3375 189.822 41.4139 190.615 42.0371C191.352 42.717 192.486 43.0003 193.506 42.9436C194.583 42.887 195.66 42.547 196.51 41.9238C197.36 41.3006 197.984 40.3375 198.267 39.3177C198.891 37.2782 198.041 34.8421 196.397 33.3124C195.547 32.5759 194.47 32.0094 193.336 32.236C192.769 32.2926 192.259 32.5759 191.806 32.9725C191.352 33.3691 191.012 33.8223 190.672 34.3322C190.956 33.8223 191.239 33.3124 191.692 32.8592C192.089 32.4059 192.656 32.066 193.279 31.9527C194.526 31.6694 195.83 32.1227 196.794 32.9158C197.757 33.709 198.551 34.7288 199.004 35.8618C199.458 37.0516 199.684 38.3546 199.401 39.6577C199.231 40.3375 198.947 40.9041 198.551 41.4139C198.154 41.9238 197.7 42.4337 197.19 42.8303C196.17 43.6235 194.866 44.0767 193.563 44.1334C192.259 44.19 190.899 43.8501 189.879 42.887C189.368 42.4337 188.972 41.8105 188.745 41.1873C188.518 40.5075 188.518 39.8276 188.632 39.1478C188.688 38.8079 188.745 38.5246 188.858 38.1847L188.915 37.958C188.915 37.9014 188.972 37.7881 189.028 37.6748C189.142 37.5048 189.198 37.3915 189.312 37.2215C189.652 36.7116 190.049 36.2018 190.502 35.7485C190.729 35.5219 191.012 35.2953 191.352 35.1253C191.522 35.0687 191.749 34.9554 192.032 34.9554C192.146 34.9554 192.316 35.012 192.486 35.0687C192.656 35.1253 192.713 35.2386 192.826 35.2953C193.053 35.4653 193.166 35.8052 193.166 36.0318C193.166 36.2584 193.109 36.485 193.053 36.655C192.939 36.9949 192.769 37.3348 192.599 37.5615C191.862 38.6379 191.069 39.4877 190.162 40.3375C189.709 40.7341 189.255 41.1307 188.745 41.5273C188.235 41.8672 187.668 42.2071 187.045 42.4337C186.705 42.547 186.364 42.6037 185.911 42.547C185.514 42.4904 185.061 42.2638 184.777 41.9238C184.494 41.5839 184.381 41.1873 184.267 40.8474C184.211 40.5075 184.211 40.1676 184.211 39.8276C184.267 38.5246 184.721 37.3348 185.174 36.2018C185.628 35.0687 186.194 34.0489 186.478 32.9725C186.591 32.4626 186.648 31.9527 186.591 31.4428C186.478 30.9896 186.251 30.5363 185.911 30.1964C185.741 30.0265 185.514 29.8565 185.288 29.6865C185.061 29.5166 184.834 29.4033 184.607 29.29C184.154 29.0633 183.587 28.95 183.02 28.8934C181.943 28.7801 180.753 28.8367 179.62 29.0633C178.486 29.2333 177.352 29.5166 176.275 29.9131C175.198 30.3097 174.122 30.763 173.215 31.3862C172.308 32.0094 171.514 32.8025 171.174 33.8223C170.777 34.7854 170.777 35.9751 171.401 36.485C171.741 36.7683 172.194 36.8816 172.705 36.8816C173.158 36.8816 173.668 36.7117 174.122 36.4284C175.028 35.8618 175.822 35.012 176.502 34.1056C177.182 33.1991 177.862 32.1793 178.656 31.2728L180.866 28.4968C182.34 26.6272 183.814 24.7576 185.231 22.888C185.968 21.9816 186.648 21.0184 187.328 20.0553C188.065 19.0922 188.802 18.1291 189.595 17.2793C190.389 16.3728 191.239 15.4663 192.259 14.8431C192.543 14.6732 192.826 14.5599 193.166 14.5032C193.506 14.4466 193.846 14.5599 194.073 14.7865C194.3 15.0131 194.413 15.2964 194.47 15.5796C194.47 16.0329 194.47 16.3161 194.526 16.5994Z" fill="white" fill-opacity="0.75"/>
<path d="M197.644 36.825C200.591 37.5049 203.709 36.9383 206.259 35.4653C206.883 35.0687 207.506 34.6721 208.073 34.2189C208.64 33.7657 209.207 33.2558 209.66 32.7459C209.887 32.4626 210.113 32.1794 210.227 31.9527C210.283 31.8394 210.227 31.7828 210.283 31.8394C210.34 31.8961 210.283 31.8394 210.17 31.8394C209.717 31.7261 209.093 32.066 208.526 32.4626C207.393 33.2558 206.316 34.3322 205.409 35.4653C204.502 36.5984 203.652 37.8448 203.085 39.1478C202.802 39.771 202.632 40.5075 202.688 41.0174C202.688 41.1307 202.745 41.3007 202.858 41.414C202.915 41.5273 203.028 41.6406 203.085 41.6973C203.255 41.8672 203.482 41.9239 203.709 41.9239C204.275 41.9239 204.956 41.6406 205.522 41.3007C206.146 40.9608 206.713 40.5075 207.336 40.0543C209.66 38.2414 211.7 36.0318 213.741 33.8223C215.725 31.6128 217.652 29.29 219.466 26.9105C220.373 25.7208 221.279 24.531 222.073 23.2847C222.47 22.6615 222.81 22.0383 223.093 21.4151C223.207 21.1318 223.32 20.7352 223.263 20.6219C223.263 20.5653 223.263 20.6219 223.263 20.6219C223.263 20.6219 223.15 20.5653 223.036 20.6219C222.923 20.6219 222.753 20.6786 222.583 20.6786L222.13 20.8485C221.79 20.9052 221.563 21.1884 221.223 21.3018C220.939 21.4717 220.656 21.755 220.373 21.925C220.146 22.1516 219.862 22.4348 219.636 22.6615C218.672 23.7379 217.822 24.9276 217.085 26.2307C215.611 28.7801 214.364 31.4995 213.514 34.3322C213.117 35.7486 212.721 37.2216 212.494 38.6379C212.381 39.3744 212.267 40.1109 212.324 40.7908C212.324 41.1307 212.381 41.4706 212.437 41.7539C212.494 41.8672 212.551 41.9805 212.607 42.0372L212.664 42.0938C212.721 42.0938 212.664 42.0938 212.721 42.0938C212.834 42.0938 213.231 41.9805 213.514 41.8672C213.798 41.6973 214.138 41.5273 214.421 41.3573C215.045 40.9608 215.611 40.5075 216.235 40.0543L217.992 38.6379C218.559 38.1847 219.126 37.6748 219.579 37.1649C219.692 37.0516 219.806 36.8817 219.862 36.7683C219.976 36.655 219.976 36.4851 219.976 36.5417C219.976 36.5984 220.032 36.7683 220.089 36.7683C220.089 36.7683 220.089 36.7683 220.146 36.7683C220.146 36.7683 220.146 36.7683 220.089 36.7683H220.032H219.976C219.976 36.7683 219.976 36.7683 219.919 36.7683C219.749 36.825 219.522 37.1083 219.352 37.3915C219.182 37.6748 219.012 37.9581 218.842 38.298C218.502 38.9212 218.275 39.6011 218.049 40.2809C217.822 40.9608 217.652 41.6973 217.595 42.3205C217.595 42.4904 217.595 42.6604 217.595 42.6604L217.765 43.1136C217.935 43.3969 218.105 43.6235 218.332 43.7935C218.729 44.1334 219.352 44.19 219.976 44.0767C220.599 43.9634 221.223 43.6235 221.846 43.2269C222.47 42.8303 223.036 42.3771 223.547 41.9239C224.624 40.9608 225.53 39.8277 226.267 38.5813C227.004 37.3349 227.514 35.9185 227.344 34.6721C227.174 33.3691 226.267 32.1794 225.02 31.6695C223.773 31.1596 222.243 31.4995 221.166 32.3493C220.032 33.2558 219.466 34.6721 219.296 36.1452C219.126 37.6182 219.239 39.1478 219.749 40.5642C219.126 39.2045 218.842 37.6748 218.956 36.1452C219.069 34.6155 219.579 33.0292 220.769 31.9527C221.393 31.3862 222.073 31.0463 222.866 30.8197C223.66 30.593 224.51 30.6497 225.304 30.8763C226.097 31.1029 226.834 31.6128 227.344 32.236C227.911 32.8592 228.251 33.6524 228.421 34.5022C228.591 35.352 228.421 36.2018 228.194 36.995C227.968 37.7881 227.628 38.468 227.231 39.1478C226.437 40.5075 225.417 41.6973 224.283 42.7737C223.717 43.2836 223.093 43.7935 222.413 44.2467C221.733 44.6433 220.996 45.0399 220.202 45.2098C219.806 45.3231 219.352 45.3231 218.899 45.2665C218.445 45.2098 217.992 45.0399 217.595 44.6999C217.198 44.4167 216.972 44.0201 216.745 43.6235C216.632 43.3969 216.575 43.2269 216.518 43.0003C216.405 42.6604 216.462 42.4338 216.462 42.2071C216.518 41.3573 216.745 40.6208 216.972 39.8843C217.198 39.1478 217.482 38.4113 217.822 37.7315C217.992 37.3915 218.219 37.0516 218.445 36.7117C218.672 36.3718 218.899 36.0318 219.409 35.7486C219.466 35.6919 219.522 35.6919 219.636 35.6353C219.692 35.5786 219.806 35.5786 219.862 35.5786H219.976H220.089C220.146 35.5786 220.202 35.5786 220.259 35.5786C220.316 35.5786 220.373 35.5786 220.486 35.6353L220.599 35.6919C220.656 35.6919 220.713 35.7486 220.769 35.8052C220.996 35.9185 221.166 36.3151 221.109 36.5417C221.053 36.995 220.883 37.1649 220.769 37.3349C220.656 37.5049 220.486 37.6748 220.373 37.8448C219.806 38.468 219.239 38.9212 218.615 39.4311L216.858 40.8474C216.235 41.3007 215.611 41.7539 214.988 42.2071C214.648 42.4338 214.308 42.6037 213.968 42.7737C213.798 42.887 213.571 42.9437 213.344 43.0003C213.117 43.057 212.891 43.1136 212.551 43.1136C212.381 43.1136 212.154 43.057 212.041 42.9437C211.871 42.887 211.814 42.7737 211.7 42.6604C211.53 42.4338 211.417 42.2071 211.304 41.9805C211.134 41.5273 211.134 41.1307 211.134 40.6775C211.134 39.8843 211.19 39.0912 211.36 38.3547C211.587 36.825 211.984 35.352 212.437 33.879C212.891 32.406 213.458 30.9896 214.081 29.5733C214.705 28.1569 215.385 26.7972 216.178 25.4942C216.972 24.1911 217.822 22.8881 218.899 21.755C219.919 20.6219 221.223 19.5455 223.036 19.2622C223.263 19.2622 223.547 19.2622 223.887 19.3755C223.943 19.4322 224.057 19.4888 224.113 19.5455C224.17 19.6021 224.227 19.7154 224.283 19.7721C224.34 19.8287 224.34 19.9421 224.397 19.9987C224.453 20.112 224.453 20.1687 224.453 20.2253C224.51 20.8485 224.34 21.1884 224.17 21.585C223.887 22.3215 223.49 23.0014 223.036 23.6812C222.243 24.9843 221.279 26.174 220.373 27.3638C218.559 29.7432 216.575 32.066 214.591 34.3322C212.551 36.5984 210.454 38.7512 208.073 40.6775C207.449 41.1307 206.826 41.584 206.146 41.9805C205.466 42.3771 204.729 42.717 203.765 42.7737C203.312 42.7737 202.745 42.6037 202.348 42.2071C202.178 42.0372 202.008 41.8106 201.895 41.6406C201.781 41.414 201.725 41.244 201.611 40.9608C201.498 40.4509 201.555 39.9976 201.668 39.6011C201.781 39.2045 201.895 38.8079 202.065 38.468C202.688 36.995 203.539 35.7486 204.502 34.5022C205.012 33.879 205.522 33.3124 206.032 32.7459C206.599 32.1794 207.166 31.6695 207.846 31.2162C208.186 30.9896 208.526 30.8197 208.98 30.6497C209.207 30.593 209.433 30.5364 209.66 30.4797C209.887 30.4797 210.17 30.4797 210.397 30.5364C210.624 30.593 210.964 30.7064 211.19 31.1029C211.304 31.2729 211.304 31.4995 211.247 31.6695C211.247 31.8394 211.19 31.9527 211.134 32.066C210.907 32.5193 210.624 32.8026 210.34 33.0858C209.773 33.6524 209.15 34.1056 208.526 34.5588C207.903 35.0121 207.223 35.4086 206.543 35.7486C205.182 36.4284 203.652 36.8817 202.178 37.0516C200.591 37.4482 199.061 37.2782 197.644 36.825Z" fill="white" fill-opacity="0.75"/>
<path d="M229.668 34.5593C229.101 35.919 228.761 37.3353 228.535 38.8083C228.421 39.5448 228.365 40.2813 228.421 40.9612C228.478 41.641 228.648 42.3776 229.101 42.7741C229.328 42.9441 229.611 43.0574 229.895 43.0574C230.235 43.0574 230.518 43.0007 230.858 42.8874C231.199 42.7741 231.482 42.6608 231.822 42.4909C232.049 42.3776 232.332 42.0943 232.559 41.8677C233.579 40.8479 234.429 39.6581 235.336 38.5251C236.186 37.392 237.093 36.2022 237.773 34.9559C237.83 34.7859 237.943 34.6726 238 34.5026C238.057 34.3327 238.114 34.2193 238.114 34.1627C238.114 34.2193 238.17 34.276 238.227 34.3327C238.284 34.3893 238.284 34.3893 238.397 34.3893C238.51 34.446 238.624 34.3893 238.68 34.3893C238.794 34.3327 238.737 34.3327 238.794 34.3327C238.737 34.3893 238.624 34.5026 238.567 34.6726C238.227 35.2391 237.887 35.919 237.603 36.5422C237.037 37.8452 236.526 39.2616 236.13 40.6213C236.016 40.9612 235.96 41.3011 235.903 41.641C235.846 41.981 235.79 42.3209 235.846 42.5475C235.846 42.6042 235.846 42.6608 235.846 42.6042L235.96 42.7741C236.016 42.8874 236.13 43.0007 236.243 43.0574C236.47 43.2274 236.697 43.3407 236.98 43.3407C237.547 43.454 238.17 43.2274 238.794 43.0007C239.417 42.7175 239.984 42.3776 240.551 41.9243C241.684 41.0745 242.705 40.0547 243.441 38.865C243.838 38.2984 244.178 37.6753 244.292 37.0521C244.348 36.7688 244.405 36.4289 244.348 36.2022C244.348 36.0889 244.292 35.919 244.235 35.749C244.178 35.579 244.122 35.4657 244.065 35.3524C243.782 34.8425 243.271 34.446 242.875 34.446C242.648 34.446 242.535 34.5026 242.478 34.6726C242.421 34.8425 242.365 35.0692 242.421 35.3524C242.535 35.9756 242.818 36.5422 243.271 36.7121C243.725 36.9387 244.405 36.8821 245.028 36.7121C246.332 36.3722 247.636 35.6357 248.996 35.0125C251.66 33.7661 254.324 32.5764 256.591 30.8201C257.725 29.9136 258.688 28.8939 259.312 27.7041C259.935 26.5144 260.162 25.098 259.992 23.7383C259.822 22.3786 259.312 21.0756 258.575 19.8292C257.838 18.6394 256.875 17.5064 255.854 16.5432C254.834 15.5801 253.701 14.6737 252.454 13.8805C251.83 13.4839 251.207 13.144 250.583 12.8607C249.96 12.5774 249.28 12.2942 248.599 12.0676C247.239 11.6143 245.822 11.2177 244.405 10.9345C242.988 10.6512 241.571 10.4246 240.154 10.4246C239.474 10.4246 238.737 10.4812 238.17 10.7079C238 10.7645 237.83 10.8212 237.717 10.8778C237.603 10.9345 237.433 10.9911 237.32 11.1044C237.207 11.1611 237.15 11.2744 237.093 11.3311C237.037 11.3877 237.093 11.3877 237.093 11.4444C237.093 11.5577 237.32 11.8409 237.547 12.0109C237.773 12.2375 238.057 12.4075 238.397 12.5774C239.02 12.9174 239.644 13.2006 240.324 13.4839C242.988 14.5603 245.879 15.3535 248.656 16.09C251.49 16.8832 254.324 17.5064 257.271 17.9596C260.162 18.3562 263.109 18.5828 266.057 18.5828C260.162 18.9794 254.211 18.4695 248.373 17.2231C247.636 17.0531 246.956 16.8265 246.219 16.6565L244.065 16.0334C242.648 15.5801 241.231 15.1269 239.814 14.5603C239.134 14.2771 238.454 13.9938 237.773 13.5972C237.433 13.4273 237.093 13.2006 236.753 12.9174C236.47 12.6341 236.073 12.3508 235.903 11.7276C235.846 11.4444 235.846 11.0478 236.016 10.7645C236.186 10.4812 236.356 10.3113 236.526 10.198C236.697 10.028 236.923 9.97135 237.093 9.85805C237.263 9.74474 237.49 9.68808 237.66 9.63143C238.454 9.34816 239.247 9.2915 239.984 9.2915C241.514 9.2915 243.045 9.51812 244.518 9.80139C245.992 10.0847 247.409 10.4812 248.826 10.9911C249.506 11.2177 250.243 11.501 250.923 11.8409C251.603 12.1809 252.284 12.5208 252.907 12.974C254.211 13.7672 255.401 14.7303 256.478 15.7501C257.555 16.7699 258.575 17.9596 259.369 19.2626C260.162 20.5657 260.786 22.0387 260.956 23.625C261.126 25.2113 260.899 26.8543 260.105 28.214C259.369 29.6304 258.292 30.7634 257.101 31.7266C254.721 33.5962 251.943 34.8425 249.28 36.0889C247.976 36.7121 246.672 37.4486 245.142 37.9019C244.405 38.0718 243.498 38.2418 242.591 37.7886C242.365 37.6753 242.194 37.5053 242.024 37.392C241.854 37.222 241.684 37.0521 241.628 36.8254C241.401 36.4289 241.288 36.0323 241.174 35.5791C241.061 35.1825 241.118 34.6159 241.344 34.1627C241.571 33.6528 242.194 33.3129 242.761 33.3695C243.328 33.3695 243.782 33.5962 244.122 33.8794C244.518 34.1627 244.745 34.5026 244.972 34.8992C245.085 35.0692 245.142 35.2958 245.199 35.5224C245.255 35.749 245.312 35.919 245.369 36.1456C245.425 36.5988 245.369 37.0521 245.255 37.4486C245.029 38.2418 244.632 38.9783 244.235 39.6015C243.385 40.9045 242.308 41.981 241.061 42.9441C240.437 43.3973 239.814 43.8506 239.077 44.1338C238.34 44.4171 237.547 44.7004 236.64 44.5871C236.186 44.5304 235.733 44.3604 235.336 44.0205C235.166 43.8506 234.996 43.6806 234.883 43.5106C234.826 43.3973 234.769 43.3407 234.713 43.2274C234.599 43.0574 234.599 42.8874 234.599 42.7741C234.543 42.2642 234.599 41.8677 234.656 41.5277C234.713 41.1312 234.826 40.7912 234.939 40.3947C235.336 38.9216 235.846 37.5619 236.47 36.1456C236.753 35.4657 237.093 34.7859 237.49 34.106C237.603 33.9361 237.717 33.7661 237.943 33.5395C238 33.4828 238.057 33.4262 238.284 33.3695C238.397 33.3129 238.51 33.3129 238.737 33.3695C238.85 33.4262 238.907 33.4828 238.964 33.5395C239.134 33.6528 239.134 33.8228 239.19 33.9361C239.19 34.0494 239.19 34.106 239.19 34.2193C239.134 34.5026 239.077 34.7292 239.02 34.8992C238.964 35.0692 238.85 35.2958 238.737 35.4657C238 36.8254 237.15 38.0152 236.186 39.2049C235.223 40.338 234.259 41.4711 233.126 42.4909C232.842 42.7175 232.559 43.0007 232.105 43.2274C231.765 43.3973 231.369 43.5106 231.029 43.6239C230.632 43.7373 230.235 43.7939 229.838 43.7373C229.441 43.6806 228.988 43.5106 228.648 43.2274C228.308 42.8874 228.138 42.4909 228.081 42.1509C227.968 41.7544 227.968 41.3578 227.968 41.0179C227.968 40.2813 228.081 39.4882 228.251 38.8083C228.535 37.2787 228.988 35.8623 229.668 34.5593Z" fill="white" fill-opacity="0.75"/>
<path d="M163.806 45.9466C163.862 46.7964 163.012 47.4762 162.615 47.3629C162.445 47.3063 162.502 47.0797 162.162 46.6264C161.822 46.1732 161.482 46.1732 161.425 45.8899C161.312 45.4934 161.879 44.7002 162.615 44.7002C163.296 44.7568 163.749 45.38 163.806 45.9466Z" fill="white" fill-opacity="0.75"/>
</g>
<defs>
<clipPath id="clip0">
<rect width="266" height="106" fill="white"/>
</clipPath>
</defs>
</svg>
