<svg width="584" height="117" viewBox="0 0 584 117" fill="none" xmlns="http://www.w3.org/2000/svg">
<g clip-path="url(#clip0)">
<path d="M21.6505 80.234V115.085H0V0H95.6389C104.487 0 112.206 0.957447 118.796 2.68085C125.197 4.59574 130.656 7.65957 134.798 11.8723C137.999 15.1277 140.258 18.9574 142.141 23.5532C143.835 28.1489 144.776 33.7021 144.776 40.0213C144.776 46.3404 143.835 51.8936 142.141 56.4894C140.446 61.0851 137.999 65.1064 134.798 68.1702C130.656 72.383 125.385 75.4468 118.796 77.3617C112.206 79.2766 104.676 80.0425 95.6389 80.0425H21.6505V80.234ZM93.568 63.5745C99.4043 63.5745 104.299 63.1915 108.064 62.234C111.83 61.2766 114.842 59.7447 116.913 57.6383C120.49 54 122.184 48.2553 122.184 40.0213C122.184 31.7872 120.49 26.0426 116.913 22.4043C114.654 20.2979 111.83 18.766 108.064 17.8085C104.299 16.8511 99.4043 16.4681 93.568 16.4681H21.6505V63.383H93.568V63.5745Z" fill="white"/>
<path d="M289.176 98.234V115.085H230.813C222.153 115.085 214.622 114.894 207.845 114.511C201.256 114.128 195.231 113.362 190.148 112.213C184.876 111.064 180.358 109.532 176.405 107.617C172.451 105.702 168.874 103.213 165.673 100.149C160.59 95.3617 156.825 89.617 154.189 82.5319C151.553 75.6383 150.236 67.2128 150.236 57.6383C150.236 48.0638 151.553 39.6383 154.189 32.7447C156.825 25.8511 160.59 19.9149 165.673 15.1277C168.874 12.0638 172.451 9.57447 176.405 7.65957C180.358 5.74468 184.876 4.21277 190.148 3.06383C195.419 1.91489 201.256 1.14894 207.845 0.765957C214.622 0.191489 222.153 0 230.813 0H289.176V16.8511H232.508C225.73 16.8511 219.706 17.0426 214.434 17.234C209.163 17.4255 204.456 18 200.314 18.766C196.172 19.5319 192.784 20.4894 189.771 22.0213C186.759 23.3617 184.123 25.2766 182.052 27.383C178.664 31.0213 176.216 35.617 175.087 40.7872C173.769 46.1489 173.204 51.7021 173.204 57.6383C173.204 63.5745 173.769 69.1277 175.087 74.4894C176.405 79.8511 178.664 84.2553 182.052 87.8936C184.123 90.1915 186.759 91.9149 189.771 93.2553C192.784 94.5957 196.361 95.7447 200.314 96.5106C204.456 97.2766 209.163 97.6596 214.434 98.0425C219.706 98.234 225.918 98.4255 232.508 98.4255H289.176V98.234Z" fill="white"/>
<path d="M298.213 0H425.669V16.6596H319.863V48.2553H391.028V64.5319H319.863V115.085H298.213V0Z" fill="white"/>
<path d="M584 71.4255C584 78.7021 583.058 84.6383 581.364 89.4255C579.67 94.0213 577.034 98.2341 573.457 101.681C567.809 107.234 559.902 111.255 549.547 113.745C539.192 116.043 526.39 117.383 511.141 117.383H505.116C489.867 117.383 477.065 116.234 466.71 113.745C456.356 111.447 448.448 107.426 442.8 101.681C439.223 98.2341 436.588 94.2128 434.893 89.4255C433.199 84.8298 432.258 78.8936 432.258 71.4255V0H453.72V67.2128C453.72 72.5745 454.096 76.9787 455.038 80.617C455.979 84.2553 457.862 87.1277 460.497 89.4255C464.074 92.8724 469.346 95.3617 476.688 96.8936C483.842 98.617 493.632 99.383 506.058 99.383H509.823C522.249 99.383 532.038 98.617 539.192 96.8936C546.347 95.1702 551.806 92.6809 555.383 89.4255C558.019 86.9362 559.902 84.0638 560.843 80.617C561.784 77.1702 562.161 72.766 562.161 67.2128V0H583.435V71.4255H584Z" fill="white"/>
</g>
<defs>
<clipPath id="clip0">
<rect width="584" height="117" fill="white"/>
</clipPath>
</defs>
</svg>
