<svg width="34" height="29" viewBox="0 0 34 29" fill="none" xmlns="http://www.w3.org/2000/svg">
<path d="M34 29C22.6115 29 11.3609 29 0 29C0 21.033 0 13.1191 0 5.01926C0.4412 5.31138 0.854826 5.57695 1.2133 5.84252C5.7356 9.16211 10.2855 12.4817 14.8078 15.8013C16.8208 17.2619 17.455 17.2619 19.3852 15.7748C23.88 12.3224 28.3747 8.89655 32.8694 5.44416C33.1727 5.20515 33.5036 4.9927 33.9724 4.64746C34 12.8535 34 20.8471 34 29Z" fill="white"/>
<path d="M32.4558 0C27.2165 4.01007 22.2806 7.78114 17.2344 11.6319C12.0778 7.80769 6.94889 4.01007 1.54419 0C11.9675 0 22.0049 0 32.4558 0Z" fill="white"/>
</svg>
