<svg width="30" height="28" viewBox="0 0 30 28" fill="none" xmlns="http://www.w3.org/2000/svg">
<path d="M0.0079128 7.23723C-0.0179217 4.66897 0.860452 2.69738 2.5397 1.01115C3.15973 0.414483 3.85726 0.077237 4.7098 0.025353C6.82823 -0.078415 7.06074 0.0512944 7.88745 2.07477C8.50748 3.55347 9.05 5.0581 9.7217 6.48491C10.1351 7.39288 10.0834 8.11926 9.46335 8.87158C9.28251 9.10506 9.10167 9.36447 8.92083 9.59795C7.29325 11.7511 7.31909 11.7511 8.92083 13.9822C11.1943 17.1471 14.1136 19.4559 17.7046 20.9606C18.5054 21.2978 19.0738 21.22 19.6163 20.5455C20.2364 19.7153 20.9597 18.963 21.5539 18.1069C22.0706 17.3806 22.639 17.173 23.4398 17.5621C25.3774 18.4961 27.315 19.43 29.2526 20.3639C29.976 20.7011 30.0535 21.3237 29.976 21.9982C29.666 25.0075 27.6767 27.1866 24.6024 27.8092C23.0007 28.1465 21.4506 28.0168 19.8747 27.5758C13.1577 25.7339 8.01662 21.635 3.90893 16.1094C2.51386 14.2416 1.1963 12.3219 0.472934 10.0649C0.16292 9.10505 -0.0437563 8.09332 0.0079128 7.23723Z" fill="white"/>
</svg>
