<svg width="38" height="28" viewBox="0 0 38 28" fill="none" xmlns="http://www.w3.org/2000/svg">
<g clip-path="url(#clip0)">
<path d="M35.5594 0.109827L0.809739 11.9602C-0.319313 12.3393 -0.250886 13.7557 0.91238 14.055L9.73951 16.3393L13.0354 25.4864C13.3776 26.444 14.7689 26.7333 15.5672 26.0151L20.1291 21.9353L29.0931 27.6909C30.1879 28.3991 31.7503 27.8704 32.024 26.7033L37.9544 1.88539C38.2509 0.668431 36.8824 -0.339051 35.5594 0.109827ZM31.2029 5.61606L15.0654 18.1048C14.9058 18.2245 14.8031 18.4041 14.7803 18.5836L14.1531 23.4116C14.1303 23.5712 13.8794 23.5911 13.8223 23.4415L11.2677 16.2295C11.1537 15.9004 11.3019 15.5412 11.6441 15.3617L30.7011 5.02753C31.1459 4.78813 31.5907 5.31681 31.2029 5.61606Z" fill="white"/>
</g>
<defs>
<clipPath id="clip0">
<rect width="38" height="28" fill="white"/>
</clipPath>
</defs>
</svg>
