<svg width="41" height="41" viewBox="0 0 41 41" fill="none" xmlns="http://www.w3.org/2000/svg">
<path d="M0 40.9986C0.766217 38.1873 1.41054 35.5148 2.24641 32.9118C2.69917 31.4888 2.59469 30.3088 1.95037 28.9205C-3.55246 17.068 4.21419 2.97687 17.1876 1.18945C28.1236 -0.302958 37.9974 6.95084 39.7562 17.7795C41.515 28.6602 33.6091 39.1244 22.6382 40.4606C18.6156 40.9465 14.7845 40.3391 11.1624 38.517C10.6748 38.274 10.2394 38.3088 9.75185 38.4302C6.56509 39.2979 3.36091 40.1135 0 40.9986ZM4.78886 36.2784C6.61733 35.7925 8.3239 35.376 10.0131 34.8901C10.6922 34.6992 11.2495 34.7339 11.8938 35.1157C14.0879 36.4346 16.5259 37.1114 19.0684 37.2675C29.4645 37.8923 37.8232 28.9031 36.465 18.5777C34.9325 6.89878 21.6805 0.564721 11.5629 6.67318C3.74401 11.3934 1.20157 21.3717 5.86853 29.2328C6.28646 29.9443 6.39095 30.5517 6.14715 31.3326C5.67697 32.9291 5.25903 34.543 4.78886 36.2784Z" fill="white"/>
<path d="M9.97799 16.4443C9.96058 14.7263 10.5527 13.4074 11.6846 12.2794C12.1025 11.8803 12.5727 11.6547 13.1473 11.62C14.5753 11.5506 14.732 11.6373 15.2893 12.9909C15.7072 13.9801 16.0729 14.9866 16.5257 15.941C16.8043 16.5484 16.7695 17.0343 16.3515 17.5376C16.2296 17.6937 16.1077 17.8673 15.9858 18.0235C14.8887 19.4638 14.9062 19.4638 15.9858 20.9562C17.5183 23.0734 19.486 24.6178 21.9066 25.6243C22.4464 25.8499 22.8295 25.7979 23.1952 25.3467C23.6132 24.7914 24.1008 24.2881 24.5013 23.7154C24.8496 23.2295 25.2327 23.0907 25.7725 23.351C27.0786 23.9757 28.3846 24.6005 29.6907 25.2252C30.1782 25.4508 30.2305 25.8673 30.1782 26.3185C29.9693 28.3315 28.6284 29.7892 26.5561 30.2057C25.4765 30.4313 24.4316 30.3445 23.3694 30.0495C18.8417 28.8174 15.3763 26.0755 12.6075 22.3792C11.6672 21.1298 10.779 19.8456 10.2914 18.3358C10.0825 17.6937 9.94316 17.017 9.97799 16.4443Z" fill="white"/>
</svg>
