<svg width="40" height="40" viewBox="0 0 40 40" fill="none" xmlns="http://www.w3.org/2000/svg">
<g clip-path="url(#clip0)">
<path d="M39.0968 9.6177L39.0835 9.5664C38.116 5.79596 33.7688 1.74338 29.7794 0.896959H29.7263C23.2585 -0.295731 16.7111 -0.295731 10.2565 0.896959H10.2167C6.21405 1.74338 1.8668 5.79596 0.899272 9.5664V9.6177C-0.293572 14.8886 -0.293572 20.2365 0.899272 25.5074L0.912526 25.5587C1.84029 29.1753 5.86946 33.0355 9.71307 34.0999V38.3192C9.71307 39.8453 11.6349 40.5892 12.7217 39.4862L17.1352 35.0489C18.0895 35.1002 19.0438 35.1259 20.0113 35.1259C23.2585 35.1259 26.5189 34.8309 29.7528 34.2281L29.7926 34.2153C33.782 33.3689 38.1425 29.3163 39.0968 25.5459L39.1101 25.4946C40.2896 20.2365 40.2896 14.8886 39.0968 9.6177ZM35.611 24.7379C34.9616 27.2003 31.6614 30.2653 29.0371 30.8296C25.6044 31.458 22.1452 31.7274 18.6859 31.6376C18.6196 31.6376 18.5534 31.6632 18.5004 31.7145C18.01 32.2019 15.2797 34.9079 15.2797 34.9079L11.8469 38.3064C11.5951 38.5629 11.1577 38.3833 11.1577 38.0371V31.0605C11.1577 30.945 11.0782 30.8425 10.9589 30.8296C8.33467 30.2653 5.03446 27.2003 4.38503 24.7379C3.31147 19.98 3.31147 15.1451 4.38503 10.3744C5.03446 7.91203 8.33467 4.84694 10.9589 4.28266C16.9629 3.17974 23.0464 3.17974 29.0371 4.28266C31.6614 4.84694 34.9616 7.91203 35.611 10.3744C36.6846 15.1451 36.6846 19.98 35.611 24.7379Z" fill="white"/>
<path d="M25.7122 27.9576C25.3146 27.8422 24.9302 27.7653 24.5724 27.6114C20.8746 26.1237 17.4684 24.2128 14.7646 21.276C13.2271 19.6088 12.0343 17.7236 11.0138 15.7229C10.5366 14.7739 10.1258 13.7992 9.71489 12.8118C9.33053 11.9269 9.88718 11.0035 10.4704 10.3366C11.0138 9.70819 11.7295 9.22086 12.4849 8.87459C13.0813 8.59245 13.6645 8.75917 14.1019 9.24651C15.0429 10.3109 15.9044 11.4139 16.6069 12.645C17.0442 13.4017 16.9249 14.3251 16.143 14.838C15.9574 14.9663 15.7851 15.1074 15.5996 15.2484C15.4405 15.3767 15.2947 15.4921 15.1887 15.6588C14.9899 15.9666 14.9899 16.3257 15.1092 16.6591C16.0767 19.2241 17.6937 21.2119 20.3577 22.2892C20.7818 22.4559 21.2059 22.6611 21.7096 22.6098C22.5313 22.52 22.7964 21.6479 23.3795 21.1862C23.9362 20.7374 24.6652 20.7374 25.2748 21.1093C25.8845 21.4812 26.4677 21.8788 27.0508 22.2892C27.6208 22.6867 28.1907 23.0715 28.7208 23.5203C29.2245 23.9564 29.41 24.5206 29.1184 25.1106C28.5883 26.1878 27.8328 27.0856 26.7327 27.6627C26.4279 27.8037 26.0568 27.855 25.7122 27.9576C25.3013 27.8422 26.0568 27.855 25.7122 27.9576Z" fill="white"/>
<path d="M20.0132 7.64383C24.8508 7.77208 28.827 10.8885 29.6752 15.5181C29.821 16.3133 29.874 17.1084 29.9403 17.9164C29.9668 18.2498 29.768 18.5704 29.3969 18.5832C29.0125 18.5832 28.8402 18.2754 28.8137 17.942C28.7607 17.2751 28.7342 16.6082 28.6282 15.9414C28.1245 12.4531 25.2484 9.56753 21.6699 8.95194C21.1265 8.86217 20.5831 8.83652 20.0265 8.7724C19.6819 8.73392 19.2312 8.7211 19.1517 8.29789C19.0854 7.95162 19.3903 7.66948 19.7349 7.65666C19.8144 7.63101 19.9072 7.64383 20.0132 7.64383C24.8508 7.77208 19.9072 7.64383 20.0132 7.64383Z" fill="white"/>
<path d="M27.356 16.8642C27.3427 16.9283 27.3427 17.0566 27.3029 17.1848C27.1704 17.6593 26.4414 17.7106 26.2692 17.2361C26.2161 17.095 26.2161 16.9411 26.2161 16.7872C26.2161 15.7998 25.9908 14.7994 25.4739 13.9402C24.9438 13.0553 24.1353 12.3115 23.181 11.8626C22.6111 11.5933 21.9882 11.4266 21.352 11.324C21.0737 11.2855 20.7953 11.247 20.517 11.2214C20.1857 11.1701 20.0001 10.9649 20.0134 10.6443C20.0266 10.3493 20.2519 10.1313 20.5965 10.1441C21.7098 10.2082 22.7834 10.4391 23.7642 10.9392C25.7655 11.9652 26.9186 13.5939 27.2499 15.7613C27.2632 15.8639 27.2897 15.9536 27.3029 16.0562C27.3295 16.2999 27.3427 16.5436 27.356 16.8642C27.356 16.9155 27.3427 16.5436 27.356 16.8642Z" fill="white"/>
<path d="M24.3474 16.7493C23.9365 16.7621 23.7244 16.5441 23.6847 16.185C23.6582 15.9285 23.6317 15.6849 23.5654 15.4412C23.4461 14.9667 23.181 14.5178 22.7569 14.2229C22.5581 14.0818 22.3328 13.9792 22.1075 13.9151C21.8159 13.8381 21.4978 13.851 21.2062 13.7868C20.8881 13.7099 20.7026 13.4534 20.7556 13.1712C20.7953 12.9019 21.0737 12.6967 21.3652 12.7224C23.2473 12.8506 24.5859 13.7868 24.7715 15.9285C24.7847 16.0824 24.798 16.2363 24.7715 16.3774C24.7317 16.6082 24.5329 16.7365 24.3474 16.7493C23.9497 16.7621 24.5329 16.7365 24.3474 16.7493Z" fill="white"/>
</g>
<defs>
<clipPath id="clip0">
<rect width="40" height="40" fill="white"/>
</clipPath>
</defs>
</svg>
